G75*
G70*
%OFA0B0*%
%FSLAX24Y24*%
%IPPOS*%
%LPD*%
%AMOC8*
5,1,8,0,0,1.08239X$1,22.5*
%
%ADD10C,0.0000*%
%ADD11C,0.0100*%
%ADD12C,0.0555*%
%ADD13R,0.0591X0.0197*%
%ADD14R,0.0197X0.0591*%
%ADD15R,0.0433X0.0394*%
%ADD16R,0.0394X0.0433*%
%ADD17C,0.0640*%
%ADD18C,0.0440*%
%ADD19C,0.0436*%
%ADD20C,0.0160*%
D10*
X000174Y000746D02*
X000174Y013342D01*
X005829Y014294D02*
X005867Y014509D01*
X005976Y014699D01*
X006144Y014840D01*
X006350Y014914D01*
X006568Y014914D01*
X006774Y014840D01*
X006942Y014699D01*
X007051Y014509D01*
X007089Y014294D01*
X007051Y014079D01*
X006942Y013889D01*
X006774Y013748D01*
X006568Y013674D01*
X006350Y013674D01*
X006144Y013748D01*
X005976Y013889D01*
X005867Y014079D01*
X005829Y014294D01*
G36*
X009638Y009743D02*
X009333Y009438D01*
X009054Y009717D01*
X009359Y010022D01*
X009638Y009743D01*
G37*
G36*
X009164Y009270D02*
X008859Y008965D01*
X008580Y009244D01*
X008885Y009549D01*
X009164Y009270D01*
G37*
X012794Y013442D02*
X012794Y000746D01*
X000174Y000746D01*
G36*
X008885Y004438D02*
X008580Y004743D01*
X008859Y005022D01*
X009164Y004717D01*
X008885Y004438D01*
G37*
G36*
X009359Y003965D02*
X009054Y004270D01*
X009333Y004549D01*
X009638Y004244D01*
X009359Y003965D01*
G37*
G36*
X009359Y003965D02*
X009054Y004270D01*
X009333Y004549D01*
X009638Y004244D01*
X009359Y003965D01*
G37*
D11*
X009059Y004794D02*
X008872Y004730D01*
G36*
X008885Y004438D02*
X008580Y004743D01*
X008859Y005022D01*
X009164Y004717D01*
X008885Y004438D01*
G37*
X008872Y004730D02*
X008659Y004794D01*
X008259Y004794D01*
X008184Y004710D01*
X007869Y004710D02*
X007869Y005434D01*
X007609Y005694D01*
X007359Y005694D01*
X007209Y005844D01*
X007209Y006544D01*
X007609Y006944D01*
X007359Y007294D02*
X007859Y007294D01*
X008459Y006694D01*
X008809Y006694D01*
X008892Y006679D01*
X008892Y006994D02*
X009459Y006994D01*
X009759Y006694D01*
X009759Y005694D01*
X009959Y005494D01*
X009959Y004794D01*
X009059Y004794D01*
X008892Y005419D02*
X008659Y005394D01*
X008309Y005394D01*
X008259Y005344D01*
X008259Y005694D02*
X007609Y006344D01*
X008259Y006294D02*
X008329Y006364D01*
X008892Y006364D01*
X008892Y006049D02*
X008859Y006044D01*
X009359Y006044D01*
X009559Y005844D01*
X009559Y005394D01*
X010159Y005844D02*
X010159Y004494D01*
X010209Y004444D01*
X010209Y002944D01*
X010659Y002494D01*
X011284Y002494D01*
X011859Y001944D02*
X012159Y002244D01*
X012159Y012244D01*
X011909Y012494D01*
X011284Y012494D01*
X011284Y011494D02*
X011159Y011494D01*
X010559Y010894D01*
X010559Y007894D01*
X010359Y007294D02*
X010359Y006144D01*
X010709Y005794D01*
X011009Y005794D01*
X011284Y005494D01*
X011859Y004794D02*
X011559Y004494D01*
X011284Y004494D01*
X011859Y004794D02*
X011859Y006744D01*
X011609Y006994D01*
X010759Y007194D02*
X010759Y006244D01*
X010559Y005444D02*
X010559Y003094D01*
X009709Y001944D02*
X011859Y001944D01*
X009709Y001944D02*
X009059Y002594D01*
X008059Y002594D01*
X007259Y003394D01*
X007259Y004494D01*
X007239Y004710D01*
X007554Y004710D02*
X007559Y004994D01*
X007559Y005194D01*
X007459Y005344D01*
X006959Y005994D02*
X006959Y006894D01*
X007359Y007294D01*
X006859Y007344D02*
X006309Y006794D01*
X006309Y006494D01*
X006959Y005994D02*
X006359Y005394D01*
X006294Y004710D02*
X006359Y004494D01*
X006359Y002994D01*
X007059Y002294D01*
X007059Y001894D01*
X007109Y001494D01*
X007859Y002394D02*
X006959Y003344D01*
X006959Y004494D01*
X006924Y004710D01*
X006609Y004710D02*
X006659Y004494D01*
X006659Y003194D01*
X008059Y001794D01*
X008059Y001644D01*
X008109Y001494D01*
X007859Y002394D02*
X008659Y002394D01*
X009059Y001994D01*
X009059Y001594D01*
X009109Y001494D01*
X006109Y001494D02*
X005959Y001994D01*
X005959Y004494D01*
X005979Y004710D01*
X005664Y004710D02*
X005659Y004494D01*
X005659Y002794D01*
X005059Y002194D01*
X005059Y001794D01*
X005109Y001494D01*
X004109Y001494D02*
X004059Y001794D01*
X004059Y002194D01*
X005359Y003494D01*
X005359Y004494D01*
X005349Y004710D01*
X004325Y005734D02*
X004059Y005694D01*
X003459Y005694D01*
X002759Y004994D01*
X002759Y002394D01*
X001859Y001494D01*
X001859Y002494D02*
X001359Y002494D01*
X000959Y002894D01*
X000959Y009294D01*
X001159Y009494D01*
X001259Y008794D02*
X001859Y009394D01*
X001859Y009494D01*
X001859Y009394D02*
X001859Y009344D01*
X002409Y009844D02*
X001859Y010494D01*
X002409Y009844D02*
X002409Y007244D01*
X002959Y006694D01*
X004059Y006694D01*
X004310Y006694D01*
X004325Y006679D01*
X004325Y006364D02*
X004109Y006344D01*
X002659Y006344D01*
X001859Y007144D01*
X001859Y007494D01*
X001259Y008794D02*
X001259Y003194D01*
X001409Y003044D01*
X001859Y004494D02*
X003359Y005994D01*
X004059Y005994D01*
X004325Y006049D01*
X005109Y006144D02*
X007559Y008594D01*
X007559Y008994D01*
X007554Y009277D01*
X007239Y009277D02*
X007259Y009494D01*
X007259Y009894D01*
X006909Y010094D02*
X007109Y010294D01*
X008209Y010294D01*
X009059Y011144D01*
X009059Y012444D01*
X009109Y012494D01*
X008209Y010294D02*
X008209Y009494D01*
X008184Y009277D01*
X008159Y008994D01*
X008159Y007344D01*
X008509Y006994D01*
X008892Y006994D01*
X008892Y007309D02*
X009159Y007294D01*
X009359Y007294D01*
X009459Y007194D01*
X009909Y007194D01*
X009559Y007594D02*
X008959Y007594D01*
X008909Y007644D01*
X008892Y007624D01*
X008892Y007939D02*
X009159Y007994D01*
X009659Y007994D01*
X010359Y007294D01*
X010759Y007194D02*
X009759Y008194D01*
X009159Y008194D01*
X008892Y008254D01*
X008892Y008569D02*
X009159Y008594D01*
X009309Y008594D01*
X009409Y008694D01*
X009409Y008944D01*
G36*
X009164Y009270D02*
X008859Y008965D01*
X008580Y009244D01*
X008885Y009549D01*
X009164Y009270D01*
G37*
X008872Y009257D02*
X008659Y009294D01*
X008259Y009294D01*
X008184Y009277D01*
X007869Y009277D02*
X007859Y009494D01*
X007859Y009894D01*
X006909Y009494D02*
X006924Y009277D01*
X006909Y009494D02*
X006909Y010094D01*
X006459Y010094D01*
X006459Y010009D01*
X006309Y010109D01*
X006309Y009494D01*
X006294Y009277D01*
X006609Y008244D02*
X004459Y008244D01*
X004325Y008254D01*
X004325Y007939D02*
X004409Y007944D01*
X005609Y007944D01*
X005709Y007844D01*
X005359Y006994D02*
X004759Y007594D01*
X004559Y007594D01*
X004325Y007624D01*
X004325Y007309D02*
X004059Y007344D01*
X003659Y007344D01*
X003659Y008294D02*
X002959Y008994D01*
X002959Y011394D01*
X001859Y012494D01*
X000159Y013394D02*
X005859Y015194D01*
X007059Y015194D02*
X012759Y013394D01*
G36*
X009638Y009743D02*
X009333Y009438D01*
X009054Y009717D01*
X009359Y010022D01*
X009638Y009743D01*
G37*
X007059Y015194D02*
X006976Y015221D01*
X006892Y015244D01*
X006806Y015263D01*
X006720Y015278D01*
X006634Y015289D01*
X006546Y015295D01*
X006459Y015297D01*
X006372Y015295D01*
X006284Y015289D01*
X006198Y015278D01*
X006112Y015263D01*
X006026Y015244D01*
X005942Y015221D01*
X005859Y015194D01*
X008659Y005694D02*
X008892Y005734D01*
X008659Y005694D02*
X008259Y005694D01*
G36*
X008885Y004438D02*
X008580Y004743D01*
X008859Y005022D01*
X009164Y004717D01*
X008885Y004438D01*
G37*
G36*
X009359Y003965D02*
X009054Y004270D01*
X009333Y004549D01*
X009638Y004244D01*
X009359Y003965D01*
G37*
D12*
X011284Y003494D03*
X011284Y002494D03*
X011284Y001494D03*
X011284Y004494D03*
X011284Y005494D03*
X011284Y006494D03*
X011284Y007494D03*
X011284Y008494D03*
X011284Y009494D03*
X011284Y010494D03*
X011284Y011494D03*
X011284Y012494D03*
G36*
X009638Y009743D02*
X009333Y009438D01*
X009054Y009717D01*
X009359Y010022D01*
X009638Y009743D01*
G37*
G36*
X009164Y009270D02*
X008859Y008965D01*
X008580Y009244D01*
X008885Y009549D01*
X009164Y009270D01*
G37*
X001859Y009494D03*
X001859Y010494D03*
X001859Y011494D03*
X001859Y012494D03*
X001859Y008494D03*
X001859Y007494D03*
X001859Y006494D03*
X001859Y005494D03*
X001859Y004494D03*
X001859Y003494D03*
X001859Y002494D03*
X001859Y001494D03*
D13*
X004325Y005419D03*
X004325Y005734D03*
X004325Y006049D03*
X004325Y006364D03*
X004325Y006679D03*
X004325Y006994D03*
X004325Y007309D03*
X004325Y007624D03*
X004325Y007939D03*
X004325Y008254D03*
X004325Y008569D03*
X008892Y008569D03*
X008892Y008254D03*
X008892Y007939D03*
X008892Y007624D03*
X008892Y007309D03*
X008892Y006994D03*
X008892Y006679D03*
X008892Y006364D03*
X008892Y006049D03*
X008892Y005734D03*
X008892Y005419D03*
G36*
X008885Y004438D02*
X008580Y004743D01*
X008859Y005022D01*
X009164Y004717D01*
X008885Y004438D01*
G37*
G36*
X009359Y003965D02*
X009054Y004270D01*
X009333Y004549D01*
X009638Y004244D01*
X009359Y003965D01*
G37*
G36*
X009164Y009270D02*
X008859Y008965D01*
X008580Y009244D01*
X008885Y009549D01*
X009164Y009270D01*
G37*
G36*
X009638Y009743D02*
X009333Y009438D01*
X009054Y009717D01*
X009359Y010022D01*
X009638Y009743D01*
G37*
G36*
X009638Y009743D02*
X009333Y009438D01*
X009054Y009717D01*
X009359Y010022D01*
X009638Y009743D01*
G37*
G36*
X009164Y009270D02*
X008859Y008965D01*
X008580Y009244D01*
X008885Y009549D01*
X009164Y009270D01*
G37*
D14*
X008184Y009277D03*
X007869Y009277D03*
X007554Y009277D03*
X007239Y009277D03*
X006924Y009277D03*
X006609Y009277D03*
X006294Y009277D03*
X005979Y009277D03*
X005664Y009277D03*
X005349Y009277D03*
X005034Y009277D03*
X005034Y004710D03*
X005349Y004710D03*
X005664Y004710D03*
X005979Y004710D03*
X006294Y004710D03*
X006609Y004710D03*
X006924Y004710D03*
X007239Y004710D03*
X007554Y004710D03*
X007869Y004710D03*
X008184Y004710D03*
G36*
X008885Y004438D02*
X008580Y004743D01*
X008859Y005022D01*
X009164Y004717D01*
X008885Y004438D01*
G37*
G36*
X009359Y003965D02*
X009054Y004270D01*
X009333Y004549D01*
X009638Y004244D01*
X009359Y003965D01*
G37*
G36*
X009359Y003965D02*
X009054Y004270D01*
X009333Y004549D01*
X009638Y004244D01*
X009359Y003965D01*
G37*
G36*
X008885Y004438D02*
X008580Y004743D01*
X008859Y005022D01*
X009164Y004717D01*
X008885Y004438D01*
G37*
G36*
X009164Y009270D02*
X008859Y008965D01*
X008580Y009244D01*
X008885Y009549D01*
X009164Y009270D01*
G37*
G36*
X009638Y009743D02*
X009333Y009438D01*
X009054Y009717D01*
X009359Y010022D01*
X009638Y009743D01*
G37*
G36*
X009638Y009743D02*
X009333Y009438D01*
X009054Y009717D01*
X009359Y010022D01*
X009638Y009743D01*
G37*
G36*
X009164Y009270D02*
X008859Y008965D01*
X008580Y009244D01*
X008885Y009549D01*
X009164Y009270D01*
G37*
D16*
X006309Y010109D03*
X006309Y010779D03*
G36*
X008885Y004438D02*
X008580Y004743D01*
X008859Y005022D01*
X009164Y004717D01*
X008885Y004438D01*
G37*
G36*
X009359Y003965D02*
X009054Y004270D01*
X009333Y004549D01*
X009638Y004244D01*
X009359Y003965D01*
G37*
G36*
X009359Y003965D02*
X009054Y004270D01*
X009333Y004549D01*
X009638Y004244D01*
X009359Y003965D01*
G37*
G36*
X008885Y004438D02*
X008580Y004743D01*
X008859Y005022D01*
X009164Y004717D01*
X008885Y004438D01*
G37*
D17*
X009109Y001814D02*
X009109Y001174D01*
X008109Y001174D02*
X008109Y001814D01*
X007109Y001814D02*
X007109Y001174D01*
X006109Y001174D02*
X006109Y001814D01*
X005109Y001814D02*
X005109Y001174D01*
X004109Y001174D02*
X004109Y001814D01*
G36*
X009164Y009270D02*
X008859Y008965D01*
X008580Y009244D01*
X008885Y009549D01*
X009164Y009270D01*
G37*
G36*
X009638Y009743D02*
X009333Y009438D01*
X009054Y009717D01*
X009359Y010022D01*
X009638Y009743D01*
G37*
X009109Y012174D02*
X009109Y012814D01*
X008109Y012814D02*
X008109Y012174D01*
X007109Y012174D02*
X007109Y012814D01*
X006109Y012814D02*
X006109Y012174D01*
X005109Y012174D02*
X005109Y012814D01*
X004109Y012814D02*
X004109Y012174D01*
D18*
X001159Y009494D03*
X003659Y008294D03*
X003659Y007344D03*
X005109Y006144D03*
X005359Y006994D03*
X005709Y007844D03*
X006609Y008244D03*
X006859Y007344D03*
X006309Y006494D03*
X006359Y005394D03*
X007459Y005344D03*
X008259Y005344D03*
G36*
X008885Y004438D02*
X008580Y004743D01*
X008859Y005022D01*
X009164Y004717D01*
X008885Y004438D01*
G37*
G36*
X009359Y003965D02*
X009054Y004270D01*
X009333Y004549D01*
X009638Y004244D01*
X009359Y003965D01*
G37*
X009559Y005394D03*
X010159Y005844D03*
X010559Y005444D03*
X010759Y006244D03*
X011609Y006994D03*
X010559Y007894D03*
X009909Y007194D03*
X009559Y007594D03*
X009409Y008944D03*
G36*
X009164Y009270D02*
X008859Y008965D01*
X008580Y009244D01*
X008885Y009549D01*
X009164Y009270D01*
G37*
G36*
X009638Y009743D02*
X009333Y009438D01*
X009054Y009717D01*
X009359Y010022D01*
X009638Y009743D01*
G37*
X007859Y009894D03*
X007259Y009894D03*
X007609Y006344D03*
X010559Y003094D03*
X001409Y003044D03*
D19*
X003859Y003494D03*
X005559Y005594D03*
X007609Y006944D03*
X008259Y006294D03*
G36*
X008885Y004438D02*
X008580Y004743D01*
X008859Y005022D01*
X009164Y004717D01*
X008885Y004438D01*
G37*
G36*
X009359Y003965D02*
X009054Y004270D01*
X009333Y004549D01*
X009638Y004244D01*
X009359Y003965D01*
G37*
X009859Y003994D03*
X008359Y003394D03*
G36*
X009164Y009270D02*
X008859Y008965D01*
X008580Y009244D01*
X008885Y009549D01*
X009164Y009270D01*
G37*
G36*
X009638Y009743D02*
X009333Y009438D01*
X009054Y009717D01*
X009359Y010022D01*
X009638Y009743D01*
G37*
X009609Y010994D03*
X004109Y010494D03*
X001109Y010994D03*
D20*
X001488Y011246D02*
X001421Y011407D01*
X001421Y011581D01*
X001488Y011742D01*
X001611Y011865D01*
X001772Y011931D01*
X001946Y011931D01*
X002107Y011865D01*
X002230Y011742D01*
X002296Y011581D01*
X002296Y011407D01*
X002230Y011246D01*
X002107Y011123D01*
X001946Y011056D01*
X001772Y011056D01*
X001611Y011123D01*
X001488Y011246D01*
X001476Y011275D02*
X000359Y011275D01*
X000359Y011116D02*
X001627Y011116D01*
X001772Y010931D02*
X001611Y010865D01*
X001488Y010742D01*
X001421Y010581D01*
X001421Y010407D01*
X001488Y010246D01*
X001611Y010123D01*
X001772Y010056D01*
X001946Y010056D01*
X001952Y010059D01*
X002169Y009803D01*
X002107Y009865D01*
X001946Y009931D01*
X001772Y009931D01*
X001611Y009865D01*
X001488Y009742D01*
X001476Y009714D01*
X001374Y009816D01*
X001234Y009874D01*
X001083Y009874D01*
X000944Y009816D01*
X000837Y009709D01*
X000779Y009569D01*
X000779Y009418D01*
X000781Y009413D01*
X000749Y009381D01*
X000749Y009207D01*
X000749Y002981D01*
X000749Y002807D01*
X001149Y002407D01*
X001272Y002284D01*
X001472Y002284D01*
X001488Y002246D01*
X001611Y002123D01*
X001772Y002056D01*
X001946Y002056D01*
X002107Y002123D01*
X002230Y002246D01*
X002296Y002407D01*
X002296Y002581D01*
X002230Y002742D01*
X002107Y002865D01*
X001946Y002931D01*
X001774Y002931D01*
X001789Y002968D01*
X001789Y003056D01*
X001946Y003056D01*
X002107Y003123D01*
X002230Y003246D01*
X002296Y003407D01*
X002296Y003581D01*
X002230Y003742D01*
X002107Y003865D01*
X001946Y003931D01*
X001772Y003931D01*
X001611Y003865D01*
X001488Y003742D01*
X001469Y003695D01*
X001469Y004292D01*
X001488Y004246D01*
X001611Y004123D01*
X001772Y004056D01*
X001946Y004056D01*
X002107Y004123D01*
X002230Y004246D01*
X002296Y004407D01*
X002296Y004581D01*
X002281Y004619D01*
X002549Y004887D01*
X002549Y002481D01*
X001984Y001916D01*
X001946Y001931D01*
X001772Y001931D01*
X001611Y001865D01*
X001488Y001742D01*
X001421Y001581D01*
X001421Y001407D01*
X001488Y001246D01*
X001611Y001123D01*
X001772Y001056D01*
X001946Y001056D01*
X002107Y001123D01*
X002230Y001246D01*
X002296Y001407D01*
X002296Y001581D01*
X002281Y001619D01*
X002969Y002307D01*
X002969Y002481D01*
X002969Y004907D01*
X003546Y005484D01*
X003850Y005484D01*
X003850Y005419D01*
X003850Y005246D01*
X003956Y005141D01*
X004325Y005141D01*
X004325Y005419D01*
X003850Y005419D01*
X004325Y005419D01*
X004325Y005419D01*
X004326Y005419D01*
X004801Y005419D01*
X004801Y005592D01*
X004781Y005612D01*
X004781Y005899D01*
X004781Y005943D01*
X004787Y005929D01*
X004894Y005822D01*
X005033Y005764D01*
X005184Y005764D01*
X005324Y005822D01*
X005431Y005929D01*
X005489Y006068D01*
X005489Y006219D01*
X005487Y006225D01*
X006099Y006837D01*
X006099Y006818D01*
X006094Y006816D01*
X005987Y006709D01*
X005929Y006569D01*
X005929Y006418D01*
X005987Y006279D01*
X006094Y006172D01*
X006233Y006114D01*
X006384Y006114D01*
X006524Y006172D01*
X006631Y006279D01*
X006689Y006418D01*
X006689Y006569D01*
X006631Y006709D01*
X006576Y006764D01*
X006749Y006937D01*
X006749Y006081D01*
X006440Y005772D01*
X006434Y005774D01*
X006283Y005774D01*
X006144Y005716D01*
X006037Y005609D01*
X005979Y005469D01*
X005979Y005318D01*
X006037Y005179D01*
X006050Y005166D01*
X005814Y005166D01*
X005499Y005166D01*
X005227Y005166D01*
X005207Y005186D01*
X005034Y005186D01*
X004861Y005186D01*
X004756Y005080D01*
X004756Y004711D01*
X005034Y004711D01*
X005034Y005186D01*
X005034Y004711D01*
X005034Y004711D01*
X005034Y004710D01*
X005034Y004710D01*
X005034Y004235D01*
X004861Y004235D01*
X004756Y004341D01*
X004756Y004710D01*
X005034Y004710D01*
X005034Y004235D01*
X005149Y004235D01*
X005149Y003581D01*
X003972Y002404D01*
X003849Y002281D01*
X003849Y002226D01*
X003837Y002221D01*
X003702Y002086D01*
X003629Y001909D01*
X003629Y001078D01*
X003692Y000926D01*
X000359Y000926D01*
X000359Y013216D01*
X000447Y013244D01*
X003841Y013244D01*
X003826Y013238D01*
X003685Y013097D01*
X003609Y012913D01*
X003609Y012514D01*
X004089Y012514D01*
X004089Y012474D01*
X003609Y012474D01*
X003609Y012074D01*
X003685Y011891D01*
X003826Y011750D01*
X004009Y011674D01*
X004089Y011674D01*
X004089Y012474D01*
X004129Y012474D01*
X004129Y012514D01*
X004609Y012514D01*
X005089Y012514D01*
X005089Y012474D01*
X004609Y012474D01*
X004609Y012074D01*
X004685Y011891D01*
X004826Y011750D01*
X005009Y011674D01*
X005089Y011674D01*
X005089Y012474D01*
X005129Y012474D01*
X005129Y012514D01*
X005609Y012514D01*
X006089Y012514D01*
X006089Y012474D01*
X005609Y012474D01*
X005609Y012074D01*
X005685Y011891D01*
X005826Y011750D01*
X006009Y011674D01*
X006089Y011674D01*
X006089Y012474D01*
X006129Y012474D01*
X006129Y012514D01*
X006609Y012514D01*
X007089Y012514D01*
X007089Y012474D01*
X006609Y012474D01*
X006609Y012074D01*
X006685Y011891D01*
X006826Y011750D01*
X007009Y011674D01*
X007089Y011674D01*
X007089Y012474D01*
X007129Y012474D01*
X007129Y012514D01*
X007609Y012514D01*
X008089Y012514D01*
X008089Y012474D01*
X007609Y012474D01*
X007609Y012074D01*
X007685Y011891D01*
X007826Y011750D01*
X008009Y011674D01*
X008089Y011674D01*
X008089Y012474D01*
X008129Y012474D01*
X008129Y012514D01*
X008609Y012514D01*
X008609Y012913D01*
X008533Y013097D01*
X008392Y013238D01*
X008377Y013244D01*
X008893Y013244D01*
X008837Y013221D01*
X008702Y013086D01*
X008629Y012909D01*
X008629Y012078D01*
X008702Y011902D01*
X008837Y011767D01*
X008849Y011762D01*
X008849Y011231D01*
X008122Y010504D01*
X007196Y010504D01*
X007022Y010504D01*
X006822Y010304D01*
X006666Y010304D01*
X006666Y010392D01*
X006628Y010430D01*
X006686Y010487D01*
X006686Y010760D01*
X006328Y010760D01*
X006328Y010797D01*
X006686Y010797D01*
X006686Y011070D01*
X006580Y011175D01*
X006327Y011175D01*
X006327Y010797D01*
X006290Y010797D01*
X006290Y010760D01*
X005932Y010760D01*
X005932Y010487D01*
X005990Y010430D01*
X005952Y010392D01*
X005952Y009826D01*
X006046Y009733D01*
X006099Y009733D01*
X006099Y009733D01*
X005829Y009733D01*
X005514Y009733D01*
X005227Y009733D01*
X005207Y009753D01*
X005034Y009753D01*
X004861Y009753D01*
X004756Y009647D01*
X004756Y009277D01*
X004756Y008907D01*
X004861Y008802D01*
X005034Y008802D01*
X005034Y009277D01*
X005034Y009277D01*
X005034Y008802D01*
X005207Y008802D01*
X005227Y008822D01*
X005514Y008822D01*
X005829Y008822D01*
X006144Y008822D01*
X006459Y008822D01*
X006774Y008822D01*
X007089Y008822D01*
X007349Y008822D01*
X007349Y008681D01*
X006988Y008320D01*
X006931Y008459D01*
X006824Y008566D01*
X006684Y008624D01*
X006533Y008624D01*
X006394Y008566D01*
X006287Y008459D01*
X006285Y008454D01*
X004801Y008454D01*
X004801Y008568D01*
X004326Y008568D01*
X004326Y008569D01*
X004801Y008569D01*
X004801Y008742D01*
X004695Y008847D01*
X004326Y008847D01*
X004326Y008569D01*
X004325Y008569D01*
X004325Y008847D01*
X003956Y008847D01*
X003850Y008742D01*
X003850Y008626D01*
X003734Y008674D01*
X003583Y008674D01*
X003578Y008672D01*
X003169Y009081D01*
X003169Y011307D01*
X003169Y011481D01*
X002281Y012369D01*
X002296Y012407D01*
X002296Y012581D01*
X002230Y012742D01*
X002107Y012865D01*
X001946Y012931D01*
X001772Y012931D01*
X001611Y012865D01*
X001488Y012742D01*
X001421Y012581D01*
X001421Y012407D01*
X001488Y012246D01*
X001611Y012123D01*
X001772Y012056D01*
X001946Y012056D01*
X001984Y012072D01*
X002749Y011307D01*
X002749Y008907D01*
X002872Y008784D01*
X003281Y008375D01*
X003279Y008369D01*
X003279Y008218D01*
X003337Y008079D01*
X003444Y007972D01*
X003583Y007914D01*
X003734Y007914D01*
X003870Y007970D01*
X003870Y007788D01*
X003870Y007668D01*
X003734Y007724D01*
X003583Y007724D01*
X003444Y007666D01*
X003337Y007559D01*
X003279Y007419D01*
X003279Y007268D01*
X003337Y007129D01*
X003444Y007022D01*
X003583Y006964D01*
X003734Y006964D01*
X003850Y007012D01*
X003850Y006994D01*
X004325Y006994D01*
X004325Y006994D01*
X003850Y006994D01*
X003808Y006994D01*
X003850Y006994D02*
X003850Y006904D01*
X003046Y006904D01*
X002619Y007331D01*
X002619Y009835D01*
X002625Y009913D01*
X002619Y009921D01*
X002619Y009931D01*
X002563Y009986D01*
X002267Y010336D01*
X002296Y010407D01*
X002296Y010581D01*
X002230Y010742D01*
X002107Y010865D01*
X001946Y010931D01*
X001772Y010931D01*
X001546Y010799D02*
X000359Y010799D01*
X000359Y010641D02*
X001446Y010641D01*
X001421Y010482D02*
X000359Y010482D01*
X000359Y010324D02*
X001456Y010324D01*
X001569Y010165D02*
X000359Y010165D01*
X000359Y010006D02*
X001996Y010006D01*
X002123Y009848D02*
X002130Y009848D01*
X002412Y010165D02*
X002749Y010165D01*
X002749Y010006D02*
X002546Y010006D01*
X002620Y009848D02*
X002749Y009848D01*
X002749Y009689D02*
X002619Y009689D01*
X002619Y009531D02*
X002749Y009531D01*
X002749Y009372D02*
X002619Y009372D01*
X002619Y009214D02*
X002749Y009214D01*
X002749Y009055D02*
X002619Y009055D01*
X002619Y008897D02*
X002759Y008897D01*
X002872Y008784D02*
X002872Y008784D01*
X002918Y008738D02*
X002619Y008738D01*
X002619Y008580D02*
X003076Y008580D01*
X003235Y008421D02*
X002619Y008421D01*
X002619Y008262D02*
X003279Y008262D01*
X003326Y008104D02*
X002619Y008104D01*
X002619Y007945D02*
X003507Y007945D01*
X003406Y007628D02*
X002619Y007628D01*
X002619Y007470D02*
X003300Y007470D01*
X003279Y007311D02*
X002638Y007311D01*
X002797Y007153D02*
X003327Y007153D01*
X003510Y006994D02*
X002956Y006994D01*
X002619Y007787D02*
X003870Y007787D01*
X003870Y007945D02*
X003811Y007945D01*
X004325Y008580D02*
X004326Y008580D01*
X004325Y008738D02*
X004326Y008738D01*
X004766Y008897D02*
X003353Y008897D01*
X003194Y009055D02*
X004756Y009055D01*
X004756Y009214D02*
X003169Y009214D01*
X003169Y009372D02*
X004756Y009372D01*
X004756Y009277D02*
X005034Y009277D01*
X004756Y009277D01*
X004756Y009531D02*
X003169Y009531D01*
X003169Y009689D02*
X004798Y009689D01*
X005034Y009689D02*
X005034Y009689D01*
X005034Y009753D02*
X005034Y009278D01*
X005034Y009278D01*
X005034Y009753D01*
X005034Y009531D02*
X005034Y009531D01*
X005034Y009372D02*
X005034Y009372D01*
X005034Y009277D02*
X005034Y009277D01*
X005034Y009214D02*
X005034Y009214D01*
X005034Y009055D02*
X005034Y009055D01*
X005034Y008897D02*
X005034Y008897D01*
X004801Y008738D02*
X007349Y008738D01*
X007248Y008580D02*
X006791Y008580D01*
X006947Y008421D02*
X007089Y008421D01*
X006426Y008580D02*
X004801Y008580D01*
X003850Y008738D02*
X003512Y008738D01*
X003169Y009848D02*
X005952Y009848D01*
X005952Y010006D02*
X003169Y010006D01*
X003169Y010165D02*
X005952Y010165D01*
X005952Y010324D02*
X003169Y010324D01*
X003169Y010482D02*
X005937Y010482D01*
X005932Y010641D02*
X003169Y010641D01*
X003169Y010799D02*
X005932Y010799D01*
X005932Y010797D02*
X006290Y010797D01*
X006290Y011175D01*
X006037Y011175D01*
X005932Y011070D01*
X005932Y010797D01*
X005932Y010958D02*
X003169Y010958D01*
X003169Y011116D02*
X005979Y011116D01*
X006290Y011116D02*
X006327Y011116D01*
X006327Y010958D02*
X006290Y010958D01*
X006290Y010799D02*
X006327Y010799D01*
X006639Y011116D02*
X008734Y011116D01*
X008849Y011275D02*
X003169Y011275D01*
X003169Y011433D02*
X008849Y011433D01*
X008849Y011592D02*
X003058Y011592D01*
X002899Y011750D02*
X003825Y011750D01*
X003677Y011909D02*
X002741Y011909D01*
X002582Y012068D02*
X003612Y012068D01*
X003609Y012226D02*
X002424Y012226D01*
X002287Y012385D02*
X003609Y012385D01*
X003609Y012543D02*
X002296Y012543D01*
X002246Y012702D02*
X003609Y012702D01*
X003609Y012860D02*
X002111Y012860D01*
X001607Y012860D02*
X000359Y012860D01*
X000359Y012702D02*
X001471Y012702D01*
X001421Y012543D02*
X000359Y012543D01*
X000359Y012385D02*
X001431Y012385D01*
X001508Y012226D02*
X000359Y012226D01*
X000359Y012068D02*
X001745Y012068D01*
X001718Y011909D02*
X000359Y011909D01*
X000359Y011750D02*
X001497Y011750D01*
X001426Y011592D02*
X000359Y011592D01*
X000359Y011433D02*
X001421Y011433D01*
X002000Y011909D02*
X002147Y011909D01*
X002221Y011750D02*
X002305Y011750D01*
X002292Y011592D02*
X002464Y011592D01*
X002622Y011433D02*
X002296Y011433D01*
X002242Y011275D02*
X002749Y011275D01*
X002749Y011116D02*
X002090Y011116D01*
X002172Y010799D02*
X002749Y010799D01*
X002749Y010641D02*
X002272Y010641D01*
X002296Y010482D02*
X002749Y010482D01*
X002749Y010324D02*
X002278Y010324D01*
X002749Y010958D02*
X000359Y010958D01*
X000359Y009848D02*
X001021Y009848D01*
X000829Y009689D02*
X000359Y009689D01*
X000359Y009531D02*
X000779Y009531D01*
X000749Y009372D02*
X000359Y009372D01*
X000359Y009214D02*
X000749Y009214D01*
X000749Y009055D02*
X000359Y009055D01*
X000359Y008897D02*
X000749Y008897D01*
X000749Y008738D02*
X000359Y008738D01*
X000359Y008580D02*
X000749Y008580D01*
X000749Y008421D02*
X000359Y008421D01*
X000359Y008262D02*
X000749Y008262D01*
X000749Y008104D02*
X000359Y008104D01*
X000359Y007945D02*
X000749Y007945D01*
X000749Y007787D02*
X000359Y007787D01*
X000359Y007628D02*
X000749Y007628D01*
X000749Y007470D02*
X000359Y007470D01*
X000359Y007311D02*
X000749Y007311D01*
X000749Y007153D02*
X000359Y007153D01*
X000359Y006994D02*
X000749Y006994D01*
X000749Y006836D02*
X000359Y006836D01*
X000359Y006677D02*
X000749Y006677D01*
X000749Y006519D02*
X000359Y006519D01*
X000359Y006360D02*
X000749Y006360D01*
X000749Y006201D02*
X000359Y006201D01*
X000359Y006043D02*
X000749Y006043D01*
X000749Y005884D02*
X000359Y005884D01*
X000359Y005726D02*
X000749Y005726D01*
X000749Y005567D02*
X000359Y005567D01*
X000359Y005409D02*
X000749Y005409D01*
X000749Y005250D02*
X000359Y005250D01*
X000359Y005092D02*
X000749Y005092D01*
X000749Y004933D02*
X000359Y004933D01*
X000359Y004775D02*
X000749Y004775D01*
X000749Y004616D02*
X000359Y004616D01*
X000359Y004457D02*
X000749Y004457D01*
X000749Y004299D02*
X000359Y004299D01*
X000359Y004140D02*
X000749Y004140D01*
X000749Y003982D02*
X000359Y003982D01*
X000359Y003823D02*
X000749Y003823D01*
X000749Y003665D02*
X000359Y003665D01*
X000359Y003506D02*
X000749Y003506D01*
X000749Y003348D02*
X000359Y003348D01*
X000359Y003189D02*
X000749Y003189D01*
X000749Y003031D02*
X000359Y003031D01*
X000359Y002872D02*
X000749Y002872D01*
X000842Y002713D02*
X000359Y002713D01*
X000359Y002555D02*
X001001Y002555D01*
X001159Y002396D02*
X000359Y002396D01*
X000359Y002238D02*
X001496Y002238D01*
X001717Y002079D02*
X000359Y002079D01*
X000359Y001921D02*
X001746Y001921D01*
X001971Y001921D02*
X001989Y001921D01*
X002001Y002079D02*
X002147Y002079D01*
X002222Y002238D02*
X002306Y002238D01*
X002292Y002396D02*
X002464Y002396D01*
X002549Y002555D02*
X002296Y002555D01*
X002241Y002713D02*
X002549Y002713D01*
X002549Y002872D02*
X002089Y002872D01*
X002173Y003189D02*
X002549Y003189D01*
X002549Y003031D02*
X001789Y003031D01*
X002272Y003348D02*
X002549Y003348D01*
X002549Y003506D02*
X002296Y003506D01*
X002262Y003665D02*
X002549Y003665D01*
X002549Y003823D02*
X002148Y003823D01*
X002124Y004140D02*
X002549Y004140D01*
X002549Y003982D02*
X001469Y003982D01*
X001469Y004140D02*
X001594Y004140D01*
X001570Y003823D02*
X001469Y003823D01*
X002252Y004299D02*
X002549Y004299D01*
X002549Y004457D02*
X002296Y004457D01*
X002282Y004616D02*
X002549Y004616D01*
X002549Y004775D02*
X002436Y004775D01*
X002969Y004775D02*
X004756Y004775D01*
X004756Y004933D02*
X002995Y004933D01*
X003154Y005092D02*
X004767Y005092D01*
X004695Y005141D02*
X004801Y005246D01*
X004801Y005419D01*
X004326Y005419D01*
X004326Y005419D01*
X004326Y005141D01*
X004695Y005141D01*
X004801Y005250D02*
X006007Y005250D01*
X005979Y005409D02*
X004801Y005409D01*
X004801Y005567D02*
X006019Y005567D01*
X006167Y005726D02*
X004781Y005726D01*
X004781Y005884D02*
X004831Y005884D01*
X004781Y006344D02*
X004781Y006529D01*
X004781Y006801D01*
X004801Y006821D01*
X004801Y006994D01*
X004979Y006994D01*
X004979Y007069D02*
X004979Y006918D01*
X005037Y006779D01*
X005144Y006672D01*
X005282Y006614D01*
X005190Y006522D01*
X005184Y006524D01*
X005033Y006524D01*
X004894Y006466D01*
X004787Y006359D01*
X004781Y006344D01*
X004781Y006360D02*
X004788Y006360D01*
X004781Y006519D02*
X005020Y006519D01*
X005138Y006677D02*
X004781Y006677D01*
X004801Y006836D02*
X005013Y006836D01*
X004979Y007069D02*
X004981Y007075D01*
X004781Y007275D01*
X004781Y007187D01*
X004801Y007167D01*
X004801Y006994D01*
X004326Y006994D01*
X004326Y006994D01*
X004801Y006994D01*
X004801Y007153D02*
X004903Y007153D01*
X005622Y006360D02*
X005953Y006360D01*
X005929Y006519D02*
X005780Y006519D01*
X005939Y006677D02*
X005973Y006677D01*
X006098Y006836D02*
X006099Y006836D01*
X006648Y006836D02*
X006749Y006836D01*
X006749Y006677D02*
X006644Y006677D01*
X006689Y006519D02*
X006749Y006519D01*
X006749Y006360D02*
X006665Y006360D01*
X006749Y006201D02*
X006554Y006201D01*
X006711Y006043D02*
X005478Y006043D01*
X005489Y006201D02*
X006064Y006201D01*
X006552Y005884D02*
X005387Y005884D01*
X005034Y005092D02*
X005034Y005092D01*
X005034Y004933D02*
X005034Y004933D01*
X005034Y004775D02*
X005034Y004775D01*
X005034Y004616D02*
X005034Y004616D01*
X005034Y004457D02*
X005034Y004457D01*
X005034Y004299D02*
X005034Y004299D01*
X005149Y004140D02*
X002969Y004140D01*
X002969Y003982D02*
X005149Y003982D01*
X005149Y003823D02*
X002969Y003823D01*
X002969Y003665D02*
X005149Y003665D01*
X005074Y003506D02*
X002969Y003506D01*
X002969Y003348D02*
X004916Y003348D01*
X004757Y003189D02*
X002969Y003189D01*
X002969Y003031D02*
X004599Y003031D01*
X004440Y002872D02*
X002969Y002872D01*
X002969Y002713D02*
X004282Y002713D01*
X004123Y002555D02*
X002969Y002555D01*
X002969Y002396D02*
X003964Y002396D01*
X003849Y002238D02*
X002900Y002238D01*
X002741Y002079D02*
X003699Y002079D01*
X003634Y001921D02*
X002583Y001921D01*
X002424Y001762D02*
X003629Y001762D01*
X003629Y001604D02*
X002287Y001604D01*
X002296Y001445D02*
X003629Y001445D01*
X003629Y001287D02*
X002246Y001287D01*
X002112Y001128D02*
X003629Y001128D01*
X003674Y000969D02*
X000359Y000969D01*
X000359Y001128D02*
X001606Y001128D01*
X001471Y001287D02*
X000359Y001287D01*
X000359Y001445D02*
X001421Y001445D01*
X001431Y001604D02*
X000359Y001604D01*
X000359Y001762D02*
X001509Y001762D01*
X002969Y004299D02*
X004797Y004299D01*
X004756Y004457D02*
X002969Y004457D01*
X002969Y004616D02*
X004756Y004616D01*
X004325Y005250D02*
X004326Y005250D01*
X004325Y005409D02*
X004326Y005409D01*
X003850Y005409D02*
X003471Y005409D01*
X003312Y005250D02*
X003850Y005250D01*
X007469Y004255D02*
X007469Y003481D01*
X008146Y002804D01*
X008972Y002804D01*
X009146Y002804D01*
X009796Y002154D01*
X011005Y002154D01*
X010913Y002246D01*
X010898Y002284D01*
X010572Y002284D01*
X010449Y002407D01*
X009999Y002857D01*
X009999Y003031D01*
X009999Y004357D01*
X009949Y004407D01*
X009949Y004584D01*
X009872Y004584D01*
X009552Y004584D01*
X009599Y004537D01*
X009346Y004283D01*
X009372Y004257D01*
X009639Y003990D01*
X009818Y004169D01*
X009818Y004318D01*
X009625Y004511D01*
X009372Y004257D01*
X009346Y004231D01*
X009613Y003964D01*
X009434Y003785D01*
X009285Y003785D01*
X009092Y003978D01*
X009345Y004231D01*
X009319Y004257D01*
X009066Y004004D01*
X008873Y004197D01*
X008873Y004278D01*
X008820Y004278D01*
X008514Y004584D01*
X008442Y004584D01*
X008442Y004349D01*
X008348Y004255D01*
X008033Y004255D01*
X007704Y004255D01*
X007469Y004255D01*
X007469Y004140D02*
X008929Y004140D01*
X008799Y004299D02*
X008392Y004299D01*
X008442Y004457D02*
X008641Y004457D01*
G36*
X008885Y004438D02*
X008580Y004743D01*
X008859Y005022D01*
X009164Y004717D01*
X008885Y004438D01*
G37*
X009203Y004140D02*
X009255Y004140D01*
G36*
X009359Y003965D02*
X009054Y004270D01*
X009333Y004549D01*
X009638Y004244D01*
X009359Y003965D01*
G37*
X009246Y003823D02*
X007469Y003823D01*
X007469Y003665D02*
X009999Y003665D01*
X009999Y003823D02*
X009472Y003823D01*
X009595Y003982D02*
X009999Y003982D01*
X009999Y004140D02*
X009789Y004140D01*
X009818Y004299D02*
X009999Y004299D01*
X009949Y004457D02*
X009678Y004457D01*
X009572Y004457D02*
X009520Y004457D01*
X009413Y004299D02*
X009361Y004299D01*
X009436Y004140D02*
X009488Y004140D01*
X009096Y003982D02*
X007469Y003982D01*
X007469Y003506D02*
X009999Y003506D01*
X009999Y003348D02*
X007602Y003348D01*
X007761Y003189D02*
X009999Y003189D01*
X009999Y003031D02*
X007919Y003031D01*
X008078Y002872D02*
X009999Y002872D01*
X010142Y002713D02*
X009236Y002713D01*
X009395Y002555D02*
X010301Y002555D01*
X010459Y002396D02*
X009553Y002396D01*
X009712Y002238D02*
X010921Y002238D01*
X010910Y001734D02*
X010847Y001581D01*
X010847Y001407D01*
X010913Y001246D01*
X011036Y001123D01*
X011197Y001056D01*
X011371Y001056D01*
X011532Y001123D01*
X011655Y001246D01*
X011722Y001407D01*
X011722Y001581D01*
X011658Y001734D01*
X011772Y001734D01*
X011946Y001734D01*
X012246Y002034D01*
X012369Y002157D01*
X012369Y012157D01*
X012369Y012331D01*
X012119Y012581D01*
X011996Y012704D01*
X011671Y012704D01*
X011655Y012742D01*
X011532Y012865D01*
X011371Y012931D01*
X011197Y012931D01*
X011036Y012865D01*
X010913Y012742D01*
X010847Y012581D01*
X010847Y012407D01*
X010913Y012246D01*
X011036Y012123D01*
X011197Y012056D01*
X011371Y012056D01*
X011532Y012123D01*
X011655Y012246D01*
X011671Y012284D01*
X011822Y012284D01*
X011949Y012157D01*
X011949Y007166D01*
X011931Y007209D01*
X011824Y007316D01*
X011704Y007366D01*
X011722Y007407D01*
X011722Y007581D01*
X011655Y007742D01*
X011532Y007865D01*
X011371Y007931D01*
X011197Y007931D01*
X011036Y007865D01*
X010913Y007742D01*
X010847Y007581D01*
X010847Y007407D01*
X010849Y007400D01*
X010846Y007404D01*
X010706Y007544D01*
X010774Y007572D01*
X010881Y007679D01*
X010939Y007818D01*
X010939Y007969D01*
X010881Y008109D01*
X010774Y008216D01*
X010769Y008218D01*
X010769Y010807D01*
X011071Y011109D01*
X011197Y011056D01*
X011371Y011056D01*
X011532Y011123D01*
X011655Y011246D01*
X011722Y011407D01*
X011722Y011581D01*
X011655Y011742D01*
X011532Y011865D01*
X011371Y011931D01*
X011197Y011931D01*
X011036Y011865D01*
X010913Y011742D01*
X010847Y011581D01*
X010847Y011479D01*
X010349Y010981D01*
X010349Y010807D01*
X010349Y008218D01*
X010344Y008216D01*
X010237Y008109D01*
X010209Y008041D01*
X009846Y008404D01*
X009672Y008404D01*
X009416Y008404D01*
X009496Y008484D01*
X009619Y008607D01*
X009619Y008620D01*
X009624Y008622D01*
X009731Y008729D01*
X009789Y008868D01*
X009789Y009019D01*
X009731Y009159D01*
X009624Y009266D01*
X009484Y009324D01*
X009472Y009324D01*
X009599Y009451D01*
X009346Y009704D01*
X009372Y009730D01*
X009625Y009477D01*
X009818Y009670D01*
X009818Y009819D01*
X009639Y009998D01*
X009372Y009731D01*
X009346Y009757D01*
X009613Y010024D01*
X009434Y010203D01*
X009285Y010203D01*
X009092Y010010D01*
X009345Y009757D01*
X009319Y009731D01*
X009066Y009984D01*
X008873Y009791D01*
X008873Y009709D01*
X008820Y009709D01*
X008623Y009513D01*
X008609Y009516D01*
X008592Y009504D01*
X008442Y009504D01*
X008442Y009639D01*
X008419Y009662D01*
X008419Y010207D01*
X009269Y011057D01*
X009269Y011231D01*
X009269Y011721D01*
X009381Y011767D01*
X009516Y011902D01*
X009589Y012078D01*
X009589Y012909D01*
X009516Y013086D01*
X009381Y013221D01*
X009325Y013244D01*
X012470Y013244D01*
X012614Y013198D01*
X012614Y000926D01*
X009526Y000926D01*
X009589Y001078D01*
X009589Y001767D01*
X009622Y001734D01*
X010910Y001734D01*
X010856Y001604D02*
X009589Y001604D01*
X009589Y001762D02*
X009594Y001762D01*
X009589Y001445D02*
X010847Y001445D01*
X010896Y001287D02*
X009589Y001287D01*
X009589Y001128D02*
X011031Y001128D01*
X011537Y001128D02*
X012614Y001128D01*
X012614Y000969D02*
X009544Y000969D01*
X011672Y001287D02*
X012614Y001287D01*
X012614Y001445D02*
X011722Y001445D01*
X011712Y001604D02*
X012614Y001604D01*
X012614Y001762D02*
X011974Y001762D01*
X012133Y001921D02*
X012614Y001921D01*
X012614Y002079D02*
X012291Y002079D01*
X012369Y002238D02*
X012614Y002238D01*
X012614Y002396D02*
X012369Y002396D01*
X012369Y002555D02*
X012614Y002555D01*
X012614Y002713D02*
X012369Y002713D01*
X012369Y002872D02*
X012614Y002872D01*
X012614Y003031D02*
X012369Y003031D01*
X012369Y003189D02*
X012614Y003189D01*
X012614Y003348D02*
X012369Y003348D01*
X012369Y003506D02*
X012614Y003506D01*
X012614Y003665D02*
X012369Y003665D01*
X012369Y003823D02*
X012614Y003823D01*
X012614Y003982D02*
X012369Y003982D01*
X012369Y004140D02*
X012614Y004140D01*
X012614Y004299D02*
X012369Y004299D01*
X012369Y004457D02*
X012614Y004457D01*
X012614Y004616D02*
X012369Y004616D01*
X012369Y004775D02*
X012614Y004775D01*
X012614Y004933D02*
X012369Y004933D01*
X012369Y005092D02*
X012614Y005092D01*
X012614Y005250D02*
X012369Y005250D01*
X012369Y005409D02*
X012614Y005409D01*
X012614Y005567D02*
X012369Y005567D01*
X012369Y005726D02*
X012614Y005726D01*
X012614Y005884D02*
X012369Y005884D01*
X012369Y006043D02*
X012614Y006043D01*
X012614Y006201D02*
X012369Y006201D01*
X012369Y006360D02*
X012614Y006360D01*
X012614Y006519D02*
X012369Y006519D01*
X012369Y006677D02*
X012614Y006677D01*
X012614Y006836D02*
X012369Y006836D01*
X012369Y006994D02*
X012614Y006994D01*
X012614Y007153D02*
X012369Y007153D01*
X012369Y007311D02*
X012614Y007311D01*
X012614Y007470D02*
X012369Y007470D01*
X012369Y007628D02*
X012614Y007628D01*
X012614Y007787D02*
X012369Y007787D01*
X012369Y007945D02*
X012614Y007945D01*
X012614Y008104D02*
X012369Y008104D01*
X012369Y008262D02*
X012614Y008262D01*
X012614Y008421D02*
X012369Y008421D01*
X012369Y008580D02*
X012614Y008580D01*
X012614Y008738D02*
X012369Y008738D01*
X012369Y008897D02*
X012614Y008897D01*
X012614Y009055D02*
X012369Y009055D01*
X012369Y009214D02*
X012614Y009214D01*
X012614Y009372D02*
X012369Y009372D01*
X012369Y009531D02*
X012614Y009531D01*
X012614Y009689D02*
X012369Y009689D01*
X012369Y009848D02*
X012614Y009848D01*
X012614Y010006D02*
X012369Y010006D01*
X012369Y010165D02*
X012614Y010165D01*
X012614Y010324D02*
X012369Y010324D01*
X012369Y010482D02*
X012614Y010482D01*
X012614Y010641D02*
X012369Y010641D01*
X012369Y010799D02*
X012614Y010799D01*
X012614Y010958D02*
X012369Y010958D01*
X012369Y011116D02*
X012614Y011116D01*
X012614Y011275D02*
X012369Y011275D01*
X012369Y011433D02*
X012614Y011433D01*
X012614Y011592D02*
X012369Y011592D01*
X012369Y011750D02*
X012614Y011750D01*
X012614Y011909D02*
X012369Y011909D01*
X012369Y012068D02*
X012614Y012068D01*
X012614Y012226D02*
X012369Y012226D01*
X012315Y012385D02*
X012614Y012385D01*
X012614Y012543D02*
X012157Y012543D01*
X011998Y012702D02*
X012614Y012702D01*
X012614Y012860D02*
X011536Y012860D01*
X011032Y012860D02*
X009589Y012860D01*
X009589Y012702D02*
X010897Y012702D01*
X010847Y012543D02*
X009589Y012543D01*
X009589Y012385D02*
X010856Y012385D01*
X010933Y012226D02*
X009589Y012226D01*
X009584Y012068D02*
X011170Y012068D01*
X011143Y011909D02*
X009519Y011909D01*
X009341Y011750D02*
X010922Y011750D01*
X010851Y011592D02*
X009269Y011592D01*
X009269Y011433D02*
X010801Y011433D01*
X010643Y011275D02*
X009269Y011275D01*
X009269Y011116D02*
X010484Y011116D01*
X010349Y010958D02*
X009170Y010958D01*
X009011Y010799D02*
X010349Y010799D01*
X010349Y010641D02*
X008853Y010641D01*
X008694Y010482D02*
X010349Y010482D01*
X010349Y010324D02*
X008536Y010324D01*
X008419Y010165D02*
X009247Y010165D01*
X009096Y010006D02*
X008419Y010006D01*
X008419Y009848D02*
X008930Y009848D01*
X008800Y009689D02*
X008419Y009689D01*
X008442Y009531D02*
X008641Y009531D01*
G36*
X009164Y009270D02*
X008859Y008965D01*
X008580Y009244D01*
X008885Y009549D01*
X009164Y009270D01*
G37*
X009360Y009689D02*
X009413Y009689D01*
G36*
X009638Y009743D02*
X009333Y009438D01*
X009054Y009717D01*
X009359Y010022D01*
X009638Y009743D01*
G37*
X009489Y009848D02*
X009437Y009848D01*
X009595Y010006D02*
X010349Y010006D01*
X010349Y009848D02*
X009789Y009848D01*
X009818Y009689D02*
X010349Y009689D01*
X010349Y009531D02*
X009679Y009531D01*
X009571Y009531D02*
X009519Y009531D01*
X009520Y009372D02*
X010349Y009372D01*
X010349Y009214D02*
X009676Y009214D01*
X009774Y009055D02*
X010349Y009055D01*
X010349Y008897D02*
X009789Y008897D01*
X009735Y008738D02*
X010349Y008738D01*
X010349Y008580D02*
X009592Y008580D01*
X009433Y008421D02*
X010349Y008421D01*
X010349Y008262D02*
X009987Y008262D01*
X010146Y008104D02*
X010235Y008104D01*
X010769Y008262D02*
X010906Y008262D01*
X010913Y008246D02*
X011036Y008123D01*
X011197Y008056D01*
X011371Y008056D01*
X011532Y008123D01*
X011655Y008246D01*
X011722Y008407D01*
X011722Y008581D01*
X011655Y008742D01*
X011532Y008865D01*
X011371Y008931D01*
X011197Y008931D01*
X011036Y008865D01*
X010913Y008742D01*
X010847Y008581D01*
X010847Y008407D01*
X010913Y008246D01*
X010883Y008104D02*
X011082Y008104D01*
X010939Y007945D02*
X011949Y007945D01*
X011949Y007787D02*
X011610Y007787D01*
X011702Y007628D02*
X011949Y007628D01*
X011949Y007470D02*
X011722Y007470D01*
X011829Y007311D02*
X011949Y007311D01*
X011949Y008104D02*
X011486Y008104D01*
X011662Y008262D02*
X011949Y008262D01*
X011949Y008421D02*
X011722Y008421D01*
X011722Y008580D02*
X011949Y008580D01*
X011949Y008738D02*
X011656Y008738D01*
X011455Y008897D02*
X011949Y008897D01*
X011949Y009055D02*
X010769Y009055D01*
X010769Y008897D02*
X011113Y008897D01*
X011197Y009056D02*
X011371Y009056D01*
X011532Y009123D01*
X011655Y009246D01*
X011722Y009407D01*
X011722Y009581D01*
X011655Y009742D01*
X011532Y009865D01*
X011371Y009931D01*
X011197Y009931D01*
X011036Y009865D01*
X010913Y009742D01*
X010847Y009581D01*
X010847Y009407D01*
X010913Y009246D01*
X011036Y009123D01*
X011197Y009056D01*
X010946Y009214D02*
X010769Y009214D01*
X010769Y009372D02*
X010861Y009372D01*
X010847Y009531D02*
X010769Y009531D01*
X010769Y009689D02*
X010892Y009689D01*
X010769Y009848D02*
X011019Y009848D01*
X011197Y010056D02*
X011036Y010123D01*
X010913Y010246D01*
X010847Y010407D01*
X010847Y010581D01*
X010913Y010742D01*
X011036Y010865D01*
X011197Y010931D01*
X011371Y010931D01*
X011532Y010865D01*
X011655Y010742D01*
X011722Y010581D01*
X011722Y010407D01*
X011655Y010246D01*
X011532Y010123D01*
X011371Y010056D01*
X011197Y010056D01*
X010994Y010165D02*
X010769Y010165D01*
X010769Y010006D02*
X011949Y010006D01*
X011949Y009848D02*
X011549Y009848D01*
X011677Y009689D02*
X011949Y009689D01*
X011949Y009531D02*
X011722Y009531D01*
X011707Y009372D02*
X011949Y009372D01*
X011949Y009214D02*
X011623Y009214D01*
X010912Y008738D02*
X010769Y008738D01*
X010769Y008580D02*
X010847Y008580D01*
X010847Y008421D02*
X010769Y008421D01*
X010926Y007787D02*
X010958Y007787D01*
X010866Y007628D02*
X010831Y007628D01*
X010847Y007470D02*
X010780Y007470D01*
X009254Y009848D02*
X009202Y009848D01*
X009472Y010165D02*
X010349Y010165D01*
X010769Y010324D02*
X010881Y010324D01*
X010847Y010482D02*
X010769Y010482D01*
X010769Y010641D02*
X010871Y010641D01*
X010971Y010799D02*
X010769Y010799D01*
X010920Y010958D02*
X011949Y010958D01*
X011949Y011116D02*
X011516Y011116D01*
X011667Y011275D02*
X011949Y011275D01*
X011949Y011433D02*
X011722Y011433D01*
X011717Y011592D02*
X011949Y011592D01*
X011949Y011750D02*
X011646Y011750D01*
X011425Y011909D02*
X011949Y011909D01*
X011949Y012068D02*
X011398Y012068D01*
X011635Y012226D02*
X011880Y012226D01*
X012614Y013019D02*
X009544Y013019D01*
X009424Y013177D02*
X012614Y013177D01*
X011949Y010799D02*
X011597Y010799D01*
X011697Y010641D02*
X011949Y010641D01*
X011949Y010482D02*
X011722Y010482D01*
X011687Y010324D02*
X011949Y010324D01*
X011949Y010165D02*
X011574Y010165D01*
X008849Y011750D02*
X008393Y011750D01*
X008392Y011750D02*
X008533Y011891D01*
X008609Y012074D01*
X008609Y012474D01*
X008129Y012474D01*
X008129Y011674D01*
X008208Y011674D01*
X008392Y011750D01*
X008540Y011909D02*
X008699Y011909D01*
X008633Y012068D02*
X008606Y012068D01*
X008609Y012226D02*
X008629Y012226D01*
X008629Y012385D02*
X008609Y012385D01*
X008609Y012543D02*
X008629Y012543D01*
X008629Y012702D02*
X008609Y012702D01*
X008609Y012860D02*
X008629Y012860D01*
X008674Y013019D02*
X008565Y013019D01*
X008452Y013177D02*
X008794Y013177D01*
X008129Y012385D02*
X008089Y012385D01*
X008089Y012226D02*
X008129Y012226D01*
X008129Y012068D02*
X008089Y012068D01*
X008089Y011909D02*
X008129Y011909D01*
X008129Y011750D02*
X008089Y011750D01*
X007825Y011750D02*
X007393Y011750D01*
X007392Y011750D02*
X007533Y011891D01*
X007609Y012074D01*
X007609Y012474D01*
X007129Y012474D01*
X007129Y011674D01*
X007208Y011674D01*
X007392Y011750D01*
X007540Y011909D02*
X007677Y011909D01*
X007612Y012068D02*
X007606Y012068D01*
X007609Y012226D02*
X007609Y012226D01*
X007609Y012385D02*
X007609Y012385D01*
X007609Y012514D02*
X007609Y012913D01*
X007685Y013097D01*
X007826Y013238D01*
X007841Y013244D01*
X007377Y013244D01*
X007392Y013238D01*
X007533Y013097D01*
X007609Y012913D01*
X007609Y012514D01*
X007609Y012543D02*
X007609Y012543D01*
X007609Y012702D02*
X007609Y012702D01*
X007609Y012860D02*
X007609Y012860D01*
X007565Y013019D02*
X007653Y013019D01*
X007765Y013177D02*
X007452Y013177D01*
X006840Y013244D02*
X006826Y013238D01*
X006685Y013097D01*
X006609Y012913D01*
X006609Y012514D01*
X006609Y012913D01*
X006533Y013097D01*
X006392Y013238D01*
X006377Y013244D01*
X006840Y013244D01*
X006765Y013177D02*
X006452Y013177D01*
X006565Y013019D02*
X006653Y013019D01*
X006609Y012860D02*
X006609Y012860D01*
X006609Y012702D02*
X006609Y012702D01*
X006609Y012543D02*
X006609Y012543D01*
X006609Y012474D02*
X006129Y012474D01*
X006129Y011674D01*
X006208Y011674D01*
X006392Y011750D01*
X006533Y011891D01*
X006609Y012074D01*
X006609Y012474D01*
X006609Y012385D02*
X006609Y012385D01*
X006609Y012226D02*
X006609Y012226D01*
X006606Y012068D02*
X006612Y012068D01*
X006677Y011909D02*
X006540Y011909D01*
X006393Y011750D02*
X006825Y011750D01*
X007089Y011750D02*
X007129Y011750D01*
X007129Y011909D02*
X007089Y011909D01*
X007089Y012068D02*
X007129Y012068D01*
X007129Y012226D02*
X007089Y012226D01*
X007089Y012385D02*
X007129Y012385D01*
X006129Y012385D02*
X006089Y012385D01*
X006089Y012226D02*
X006129Y012226D01*
X006129Y012068D02*
X006089Y012068D01*
X006089Y011909D02*
X006129Y011909D01*
X006129Y011750D02*
X006089Y011750D01*
X005825Y011750D02*
X005393Y011750D01*
X005392Y011750D02*
X005533Y011891D01*
X005609Y012074D01*
X005609Y012474D01*
X005129Y012474D01*
X005129Y011674D01*
X005208Y011674D01*
X005392Y011750D01*
X005540Y011909D02*
X005677Y011909D01*
X005612Y012068D02*
X005606Y012068D01*
X005609Y012226D02*
X005609Y012226D01*
X005609Y012385D02*
X005609Y012385D01*
X005609Y012514D02*
X005609Y012913D01*
X005685Y013097D01*
X005826Y013238D01*
X005840Y013244D01*
X005377Y013244D01*
X005392Y013238D01*
X005533Y013097D01*
X005609Y012913D01*
X005609Y012514D01*
X005609Y012543D02*
X005609Y012543D01*
X005609Y012702D02*
X005609Y012702D01*
X005609Y012860D02*
X005609Y012860D01*
X005565Y013019D02*
X005653Y013019D01*
X005765Y013177D02*
X005452Y013177D01*
X004840Y013244D02*
X004826Y013238D01*
X004685Y013097D01*
X004609Y012913D01*
X004609Y012514D01*
X004609Y012913D01*
X004533Y013097D01*
X004392Y013238D01*
X004377Y013244D01*
X004840Y013244D01*
X004765Y013177D02*
X004452Y013177D01*
X004565Y013019D02*
X004653Y013019D01*
X004609Y012860D02*
X004609Y012860D01*
X004609Y012702D02*
X004609Y012702D01*
X004609Y012543D02*
X004609Y012543D01*
X004609Y012474D02*
X004129Y012474D01*
X004129Y011674D01*
X004208Y011674D01*
X004392Y011750D01*
X004533Y011891D01*
X004609Y012074D01*
X004609Y012474D01*
X004609Y012385D02*
X004609Y012385D01*
X004609Y012226D02*
X004609Y012226D01*
X004606Y012068D02*
X004612Y012068D01*
X004677Y011909D02*
X004540Y011909D01*
X004393Y011750D02*
X004825Y011750D01*
X005089Y011750D02*
X005129Y011750D01*
X005129Y011909D02*
X005089Y011909D01*
X005089Y012068D02*
X005129Y012068D01*
X005129Y012226D02*
X005089Y012226D01*
X005089Y012385D02*
X005129Y012385D01*
X004129Y012385D02*
X004089Y012385D01*
X004089Y012226D02*
X004129Y012226D01*
X004129Y012068D02*
X004089Y012068D01*
X004089Y011909D02*
X004129Y011909D01*
X004129Y011750D02*
X004089Y011750D01*
X003653Y013019D02*
X000359Y013019D01*
X000359Y013177D02*
X003765Y013177D01*
X001988Y012068D02*
X001973Y012068D01*
X001594Y009848D02*
X001297Y009848D01*
X006666Y010324D02*
X006842Y010324D01*
X007000Y010482D02*
X006680Y010482D01*
X006686Y010641D02*
X008259Y010641D01*
X008417Y010799D02*
X006686Y010799D01*
X006686Y010958D02*
X008576Y010958D01*
M02*
