G75*
G70*
%OFA0B0*%
%FSLAX24Y24*%
%IPPOS*%
%LPD*%
%AMOC8*
5,1,8,0,0,1.08239X$1,22.5*
%
%ADD10R,0.0591X0.0197*%
%ADD11R,0.0197X0.0591*%
%ADD12R,0.0433X0.0394*%
%ADD13R,0.0394X0.0433*%
D10*
X006321Y005419D03*
X006321Y005734D03*
X006321Y006049D03*
X006321Y006364D03*
X006321Y006679D03*
X006321Y006994D03*
X006321Y007309D03*
X006321Y007624D03*
X006321Y007939D03*
X006321Y008254D03*
X006321Y008569D03*
X010888Y008569D03*
X010888Y008254D03*
X010888Y007939D03*
X010888Y007624D03*
X010888Y007309D03*
X010888Y006994D03*
X010888Y006679D03*
X010888Y006364D03*
X010888Y006049D03*
X010888Y005734D03*
X010888Y005419D03*
G36*
X010881Y004438D02*
X010576Y004743D01*
X010855Y005022D01*
X011160Y004717D01*
X010881Y004438D01*
G37*
G36*
X011354Y003965D02*
X011049Y004270D01*
X011328Y004549D01*
X011633Y004244D01*
X011354Y003965D01*
G37*
G36*
X011160Y009270D02*
X010855Y008965D01*
X010576Y009244D01*
X010881Y009549D01*
X011160Y009270D01*
G37*
G36*
X011633Y009743D02*
X011328Y009438D01*
X011049Y009717D01*
X011354Y010022D01*
X011633Y009743D01*
G37*
G36*
X011633Y009743D02*
X011328Y009438D01*
X011049Y009717D01*
X011354Y010022D01*
X011633Y009743D01*
G37*
G36*
X011160Y009270D02*
X010855Y008965D01*
X010576Y009244D01*
X010881Y009549D01*
X011160Y009270D01*
G37*
D11*
X010179Y009277D03*
X009864Y009277D03*
X009549Y009277D03*
X009234Y009277D03*
X008919Y009277D03*
X008604Y009277D03*
X008290Y009277D03*
X007975Y009277D03*
X007660Y009277D03*
X007345Y009277D03*
X007030Y009277D03*
X007030Y004710D03*
X007345Y004710D03*
X007660Y004710D03*
X007975Y004710D03*
X008290Y004710D03*
X008604Y004710D03*
X008919Y004710D03*
X009234Y004710D03*
X009549Y004710D03*
X009864Y004710D03*
X010179Y004710D03*
G36*
X010881Y004438D02*
X010576Y004743D01*
X010855Y005022D01*
X011160Y004717D01*
X010881Y004438D01*
G37*
G36*
X011354Y003965D02*
X011049Y004270D01*
X011328Y004549D01*
X011633Y004244D01*
X011354Y003965D01*
G37*
G36*
X011354Y003965D02*
X011049Y004270D01*
X011328Y004549D01*
X011633Y004244D01*
X011354Y003965D01*
G37*
G36*
X010881Y004438D02*
X010576Y004743D01*
X010855Y005022D01*
X011160Y004717D01*
X010881Y004438D01*
G37*
G36*
X011160Y009270D02*
X010855Y008965D01*
X010576Y009244D01*
X010881Y009549D01*
X011160Y009270D01*
G37*
G36*
X011633Y009743D02*
X011328Y009438D01*
X011049Y009717D01*
X011354Y010022D01*
X011633Y009743D01*
G37*
G36*
X011633Y009743D02*
X011328Y009438D01*
X011049Y009717D01*
X011354Y010022D01*
X011633Y009743D01*
G37*
G36*
X011160Y009270D02*
X010855Y008965D01*
X010576Y009244D01*
X010881Y009549D01*
X011160Y009270D01*
G37*
D13*
X008304Y010109D03*
X008304Y010779D03*
G36*
X010881Y004438D02*
X010576Y004743D01*
X010855Y005022D01*
X011160Y004717D01*
X010881Y004438D01*
G37*
G36*
X011354Y003965D02*
X011049Y004270D01*
X011328Y004549D01*
X011633Y004244D01*
X011354Y003965D01*
G37*
M02*
