G75*
G70*
%OFA0B0*%
%FSLAX24Y24*%
%IPPOS*%
%LPD*%
%AMOC8*
5,1,8,0,0,1.08239X$1,22.5*
%
%ADD10C,0.0000*%
%ADD11C,0.0555*%
%ADD12R,0.0591X0.0197*%
%ADD13R,0.0197X0.0591*%
%ADD14R,0.0433X0.0394*%
%ADD15R,0.0394X0.0433*%
%ADD16C,0.0640*%
%ADD17C,0.0100*%
%ADD18C,0.0440*%
%ADD19C,0.0436*%
%ADD20C,0.0160*%
D10*
X001104Y000744D02*
X001169Y000746D01*
X016040Y000746D01*
X016104Y000744D01*
X016164Y000746D01*
X016225Y000751D01*
X016284Y000760D01*
X016343Y000773D01*
X016402Y000789D01*
X016459Y000809D01*
X016514Y000832D01*
X016569Y000859D01*
X016621Y000888D01*
X016672Y000921D01*
X016721Y000957D01*
X016767Y000995D01*
X016811Y001037D01*
X016853Y001081D01*
X016891Y001127D01*
X016927Y001176D01*
X016960Y001227D01*
X016989Y001279D01*
X017016Y001334D01*
X017039Y001389D01*
X017059Y001446D01*
X017075Y001505D01*
X017088Y001564D01*
X017097Y001623D01*
X017102Y001684D01*
X017104Y001744D01*
X017104Y012244D01*
X017102Y012304D01*
X017097Y012364D01*
X017088Y012424D01*
X017075Y012483D01*
X017059Y012541D01*
X017039Y012598D01*
X017016Y012654D01*
X016990Y012708D01*
X016960Y012760D01*
X016927Y012811D01*
X016892Y012859D01*
X016853Y012906D01*
X016812Y012950D01*
X016768Y012991D01*
X016721Y013030D01*
X016673Y013065D01*
X016622Y013098D01*
X016570Y013128D01*
X016516Y013154D01*
X016460Y013177D01*
X016403Y013197D01*
X016345Y013213D01*
X016286Y013226D01*
X016226Y013235D01*
X016166Y013240D01*
X016106Y013242D01*
X001169Y013242D01*
X001105Y013240D01*
X001041Y013234D01*
X000977Y013225D01*
X000914Y013211D01*
X000852Y013194D01*
X000791Y013173D01*
X000732Y013148D01*
X000674Y013120D01*
X000618Y013088D01*
X000564Y013053D01*
X000512Y013015D01*
X000463Y012974D01*
X000416Y012930D01*
X000372Y012883D01*
X000331Y012834D01*
X000293Y012782D01*
X000258Y012728D01*
X000226Y012672D01*
X000198Y012614D01*
X000173Y012555D01*
X000152Y012494D01*
X000135Y012432D01*
X000121Y012369D01*
X000112Y012305D01*
X000106Y012241D01*
X000104Y012177D01*
X000104Y001744D01*
X000106Y001684D01*
X000111Y001623D01*
X000120Y001564D01*
X000133Y001505D01*
X000149Y001446D01*
X000169Y001389D01*
X000192Y001334D01*
X000219Y001279D01*
X000248Y001227D01*
X000281Y001176D01*
X000317Y001127D01*
X000355Y001081D01*
X000397Y001037D01*
X000441Y000995D01*
X000487Y000957D01*
X000536Y000921D01*
X000587Y000888D01*
X000639Y000859D01*
X000694Y000832D01*
X000749Y000809D01*
X000806Y000789D01*
X000865Y000773D01*
X000924Y000760D01*
X000983Y000751D01*
X001044Y000746D01*
X001104Y000744D01*
X000724Y002244D02*
X000762Y002459D01*
X000871Y002649D01*
X001039Y002790D01*
X001245Y002864D01*
X001463Y002864D01*
X001669Y002790D01*
X001837Y002649D01*
X001946Y002459D01*
X001984Y002244D01*
X001946Y002029D01*
X001837Y001839D01*
X001669Y001698D01*
X001463Y001624D01*
X001245Y001624D01*
X001039Y001698D01*
X000871Y001839D01*
X000762Y002029D01*
X000724Y002244D01*
X000724Y002494D02*
X000762Y002709D01*
X000871Y002899D01*
X001039Y003040D01*
X001245Y003114D01*
X001463Y003114D01*
X001669Y003040D01*
X001837Y002899D01*
X001946Y002709D01*
X001984Y002494D01*
X001946Y002279D01*
X001837Y002089D01*
X001669Y001948D01*
X001463Y001874D01*
X001245Y001874D01*
X001039Y001948D01*
X000871Y002089D01*
X000762Y002279D01*
X000724Y002494D01*
X000724Y002744D02*
X000762Y002959D01*
X000871Y003149D01*
X001039Y003290D01*
X001245Y003364D01*
X001463Y003364D01*
X001669Y003290D01*
X001837Y003149D01*
X001946Y002959D01*
X001984Y002744D01*
X001946Y002529D01*
X001837Y002339D01*
X001669Y002198D01*
X001463Y002124D01*
X001245Y002124D01*
X001039Y002198D01*
X000871Y002339D01*
X000762Y002529D01*
X000724Y002744D01*
X000724Y003244D02*
X000762Y003459D01*
X000871Y003649D01*
X001039Y003790D01*
X001245Y003864D01*
X001463Y003864D01*
X001669Y003790D01*
X001837Y003649D01*
X001946Y003459D01*
X001984Y003244D01*
X001946Y003029D01*
X001837Y002839D01*
X001669Y002698D01*
X001463Y002624D01*
X001245Y002624D01*
X001039Y002698D01*
X000871Y002839D01*
X000762Y003029D01*
X000724Y003244D01*
X000724Y003494D02*
X000762Y003709D01*
X000871Y003899D01*
X001039Y004040D01*
X001245Y004114D01*
X001463Y004114D01*
X001669Y004040D01*
X001837Y003899D01*
X001946Y003709D01*
X001984Y003494D01*
X001946Y003279D01*
X001837Y003089D01*
X001669Y002948D01*
X001463Y002874D01*
X001245Y002874D01*
X001039Y002948D01*
X000871Y003089D01*
X000762Y003279D01*
X000724Y003494D01*
X000724Y003744D02*
X000762Y003959D01*
X000871Y004149D01*
X001039Y004290D01*
X001245Y004364D01*
X001463Y004364D01*
X001669Y004290D01*
X001837Y004149D01*
X001946Y003959D01*
X001984Y003744D01*
X001946Y003529D01*
X001837Y003339D01*
X001669Y003198D01*
X001463Y003124D01*
X001245Y003124D01*
X001039Y003198D01*
X000871Y003339D01*
X000762Y003529D01*
X000724Y003744D01*
X000724Y003994D02*
X000762Y004209D01*
X000871Y004399D01*
X001039Y004540D01*
X001245Y004614D01*
X001463Y004614D01*
X001669Y004540D01*
X001837Y004399D01*
X001946Y004209D01*
X001984Y003994D01*
X001946Y003779D01*
X001837Y003589D01*
X001669Y003448D01*
X001463Y003374D01*
X001245Y003374D01*
X001039Y003448D01*
X000871Y003589D01*
X000762Y003779D01*
X000724Y003994D01*
X000724Y004244D02*
X000762Y004459D01*
X000871Y004649D01*
X001039Y004790D01*
X001245Y004864D01*
X001463Y004864D01*
X001669Y004790D01*
X001837Y004649D01*
X001946Y004459D01*
X001984Y004244D01*
X001946Y004029D01*
X001837Y003839D01*
X001669Y003698D01*
X001463Y003624D01*
X001245Y003624D01*
X001039Y003698D01*
X000871Y003839D01*
X000762Y004029D01*
X000724Y004244D01*
X000724Y004494D02*
X000762Y004709D01*
X000871Y004899D01*
X001039Y005040D01*
X001245Y005114D01*
X001463Y005114D01*
X001669Y005040D01*
X001837Y004899D01*
X001946Y004709D01*
X001984Y004494D01*
X001946Y004279D01*
X001837Y004089D01*
X001669Y003948D01*
X001463Y003874D01*
X001245Y003874D01*
X001039Y003948D01*
X000871Y004089D01*
X000762Y004279D01*
X000724Y004494D01*
X000724Y004744D02*
X000762Y004959D01*
X000871Y005149D01*
X001039Y005290D01*
X001245Y005364D01*
X001463Y005364D01*
X001669Y005290D01*
X001837Y005149D01*
X001946Y004959D01*
X001984Y004744D01*
X001946Y004529D01*
X001837Y004339D01*
X001669Y004198D01*
X001463Y004124D01*
X001245Y004124D01*
X001039Y004198D01*
X000871Y004339D01*
X000762Y004529D01*
X000724Y004744D01*
X000724Y004994D02*
X000762Y005209D01*
X000871Y005399D01*
X001039Y005540D01*
X001245Y005614D01*
X001463Y005614D01*
X001669Y005540D01*
X001837Y005399D01*
X001946Y005209D01*
X001984Y004994D01*
X001946Y004779D01*
X001837Y004589D01*
X001669Y004448D01*
X001463Y004374D01*
X001245Y004374D01*
X001039Y004448D01*
X000871Y004589D01*
X000762Y004779D01*
X000724Y004994D01*
X000724Y005244D02*
X000762Y005459D01*
X000871Y005649D01*
X001039Y005790D01*
X001245Y005864D01*
X001463Y005864D01*
X001669Y005790D01*
X001837Y005649D01*
X001946Y005459D01*
X001984Y005244D01*
X001946Y005029D01*
X001837Y004839D01*
X001669Y004698D01*
X001463Y004624D01*
X001245Y004624D01*
X001039Y004698D01*
X000871Y004839D01*
X000762Y005029D01*
X000724Y005244D01*
X000724Y005494D02*
X000762Y005709D01*
X000871Y005899D01*
X001039Y006040D01*
X001245Y006114D01*
X001463Y006114D01*
X001669Y006040D01*
X001837Y005899D01*
X001946Y005709D01*
X001984Y005494D01*
X001946Y005279D01*
X001837Y005089D01*
X001669Y004948D01*
X001463Y004874D01*
X001245Y004874D01*
X001039Y004948D01*
X000871Y005089D01*
X000762Y005279D01*
X000724Y005494D01*
X000724Y005744D02*
X000762Y005959D01*
X000871Y006149D01*
X001039Y006290D01*
X001245Y006364D01*
X001463Y006364D01*
X001669Y006290D01*
X001837Y006149D01*
X001946Y005959D01*
X001984Y005744D01*
X001946Y005529D01*
X001837Y005339D01*
X001669Y005198D01*
X001463Y005124D01*
X001245Y005124D01*
X001039Y005198D01*
X000871Y005339D01*
X000762Y005529D01*
X000724Y005744D01*
X000724Y005994D02*
X000762Y006209D01*
X000871Y006399D01*
X001039Y006540D01*
X001245Y006614D01*
X001463Y006614D01*
X001669Y006540D01*
X001837Y006399D01*
X001946Y006209D01*
X001984Y005994D01*
X001946Y005779D01*
X001837Y005589D01*
X001669Y005448D01*
X001463Y005374D01*
X001245Y005374D01*
X001039Y005448D01*
X000871Y005589D01*
X000762Y005779D01*
X000724Y005994D01*
X000724Y006244D02*
X000762Y006459D01*
X000871Y006649D01*
X001039Y006790D01*
X001245Y006864D01*
X001463Y006864D01*
X001669Y006790D01*
X001837Y006649D01*
X001946Y006459D01*
X001984Y006244D01*
X001946Y006029D01*
X001837Y005839D01*
X001669Y005698D01*
X001463Y005624D01*
X001245Y005624D01*
X001039Y005698D01*
X000871Y005839D01*
X000762Y006029D01*
X000724Y006244D01*
X000724Y006494D02*
X000762Y006709D01*
X000871Y006899D01*
X001039Y007040D01*
X001245Y007114D01*
X001463Y007114D01*
X001669Y007040D01*
X001837Y006899D01*
X001946Y006709D01*
X001984Y006494D01*
X001946Y006279D01*
X001837Y006089D01*
X001669Y005948D01*
X001463Y005874D01*
X001245Y005874D01*
X001039Y005948D01*
X000871Y006089D01*
X000762Y006279D01*
X000724Y006494D01*
X000724Y006744D02*
X000762Y006959D01*
X000871Y007149D01*
X001039Y007290D01*
X001245Y007364D01*
X001463Y007364D01*
X001669Y007290D01*
X001837Y007149D01*
X001946Y006959D01*
X001984Y006744D01*
X001946Y006529D01*
X001837Y006339D01*
X001669Y006198D01*
X001463Y006124D01*
X001245Y006124D01*
X001039Y006198D01*
X000871Y006339D01*
X000762Y006529D01*
X000724Y006744D01*
X000724Y006994D02*
X000762Y007209D01*
X000871Y007399D01*
X001039Y007540D01*
X001245Y007614D01*
X001463Y007614D01*
X001669Y007540D01*
X001837Y007399D01*
X001946Y007209D01*
X001984Y006994D01*
X001946Y006779D01*
X001837Y006589D01*
X001669Y006448D01*
X001463Y006374D01*
X001245Y006374D01*
X001039Y006448D01*
X000871Y006589D01*
X000762Y006779D01*
X000724Y006994D01*
X000724Y007244D02*
X000762Y007459D01*
X000871Y007649D01*
X001039Y007790D01*
X001245Y007864D01*
X001463Y007864D01*
X001669Y007790D01*
X001837Y007649D01*
X001946Y007459D01*
X001984Y007244D01*
X001946Y007029D01*
X001837Y006839D01*
X001669Y006698D01*
X001463Y006624D01*
X001245Y006624D01*
X001039Y006698D01*
X000871Y006839D01*
X000762Y007029D01*
X000724Y007244D01*
X000724Y007494D02*
X000762Y007709D01*
X000871Y007899D01*
X001039Y008040D01*
X001245Y008114D01*
X001463Y008114D01*
X001669Y008040D01*
X001837Y007899D01*
X001946Y007709D01*
X001984Y007494D01*
X001946Y007279D01*
X001837Y007089D01*
X001669Y006948D01*
X001463Y006874D01*
X001245Y006874D01*
X001039Y006948D01*
X000871Y007089D01*
X000762Y007279D01*
X000724Y007494D01*
X000724Y007744D02*
X000762Y007959D01*
X000871Y008149D01*
X001039Y008290D01*
X001245Y008364D01*
X001463Y008364D01*
X001669Y008290D01*
X001837Y008149D01*
X001946Y007959D01*
X001984Y007744D01*
X001946Y007529D01*
X001837Y007339D01*
X001669Y007198D01*
X001463Y007124D01*
X001245Y007124D01*
X001039Y007198D01*
X000871Y007339D01*
X000762Y007529D01*
X000724Y007744D01*
X000724Y007994D02*
X000762Y008209D01*
X000871Y008399D01*
X001039Y008540D01*
X001245Y008614D01*
X001463Y008614D01*
X001669Y008540D01*
X001837Y008399D01*
X001946Y008209D01*
X001984Y007994D01*
X001946Y007779D01*
X001837Y007589D01*
X001669Y007448D01*
X001463Y007374D01*
X001245Y007374D01*
X001039Y007448D01*
X000871Y007589D01*
X000762Y007779D01*
X000724Y007994D01*
X000724Y008244D02*
X000762Y008459D01*
X000871Y008649D01*
X001039Y008790D01*
X001245Y008864D01*
X001463Y008864D01*
X001669Y008790D01*
X001837Y008649D01*
X001946Y008459D01*
X001984Y008244D01*
X001946Y008029D01*
X001837Y007839D01*
X001669Y007698D01*
X001463Y007624D01*
X001245Y007624D01*
X001039Y007698D01*
X000871Y007839D01*
X000762Y008029D01*
X000724Y008244D01*
X000724Y008494D02*
X000762Y008709D01*
X000871Y008899D01*
X001039Y009040D01*
X001245Y009114D01*
X001463Y009114D01*
X001669Y009040D01*
X001837Y008899D01*
X001946Y008709D01*
X001984Y008494D01*
X001946Y008279D01*
X001837Y008089D01*
X001669Y007948D01*
X001463Y007874D01*
X001245Y007874D01*
X001039Y007948D01*
X000871Y008089D01*
X000762Y008279D01*
X000724Y008494D01*
X000724Y008744D02*
X000762Y008959D01*
X000871Y009149D01*
X001039Y009290D01*
X001245Y009364D01*
X001463Y009364D01*
X001669Y009290D01*
X001837Y009149D01*
X001946Y008959D01*
X001984Y008744D01*
X001946Y008529D01*
X001837Y008339D01*
X001669Y008198D01*
X001463Y008124D01*
X001245Y008124D01*
X001039Y008198D01*
X000871Y008339D01*
X000762Y008529D01*
X000724Y008744D01*
X000724Y008994D02*
X000762Y009209D01*
X000871Y009399D01*
X001039Y009540D01*
X001245Y009614D01*
X001463Y009614D01*
X001669Y009540D01*
X001837Y009399D01*
X001946Y009209D01*
X001984Y008994D01*
X001946Y008779D01*
X001837Y008589D01*
X001669Y008448D01*
X001463Y008374D01*
X001245Y008374D01*
X001039Y008448D01*
X000871Y008589D01*
X000762Y008779D01*
X000724Y008994D01*
X000724Y009244D02*
X000762Y009459D01*
X000871Y009649D01*
X001039Y009790D01*
X001245Y009864D01*
X001463Y009864D01*
X001669Y009790D01*
X001837Y009649D01*
X001946Y009459D01*
X001984Y009244D01*
X001946Y009029D01*
X001837Y008839D01*
X001669Y008698D01*
X001463Y008624D01*
X001245Y008624D01*
X001039Y008698D01*
X000871Y008839D01*
X000762Y009029D01*
X000724Y009244D01*
X000724Y009494D02*
X000762Y009709D01*
X000871Y009899D01*
X001039Y010040D01*
X001245Y010114D01*
X001463Y010114D01*
X001669Y010040D01*
X001837Y009899D01*
X001946Y009709D01*
X001984Y009494D01*
X001946Y009279D01*
X001837Y009089D01*
X001669Y008948D01*
X001463Y008874D01*
X001245Y008874D01*
X001039Y008948D01*
X000871Y009089D01*
X000762Y009279D01*
X000724Y009494D01*
X000724Y009744D02*
X000762Y009959D01*
X000871Y010149D01*
X001039Y010290D01*
X001245Y010364D01*
X001463Y010364D01*
X001669Y010290D01*
X001837Y010149D01*
X001946Y009959D01*
X001984Y009744D01*
X001946Y009529D01*
X001837Y009339D01*
X001669Y009198D01*
X001463Y009124D01*
X001245Y009124D01*
X001039Y009198D01*
X000871Y009339D01*
X000762Y009529D01*
X000724Y009744D01*
X000724Y009994D02*
X000762Y010209D01*
X000871Y010399D01*
X001039Y010540D01*
X001245Y010614D01*
X001463Y010614D01*
X001669Y010540D01*
X001837Y010399D01*
X001946Y010209D01*
X001984Y009994D01*
X001946Y009779D01*
X001837Y009589D01*
X001669Y009448D01*
X001463Y009374D01*
X001245Y009374D01*
X001039Y009448D01*
X000871Y009589D01*
X000762Y009779D01*
X000724Y009994D01*
X000724Y010244D02*
X000762Y010459D01*
X000871Y010649D01*
X001039Y010790D01*
X001245Y010864D01*
X001463Y010864D01*
X001669Y010790D01*
X001837Y010649D01*
X001946Y010459D01*
X001984Y010244D01*
X001946Y010029D01*
X001837Y009839D01*
X001669Y009698D01*
X001463Y009624D01*
X001245Y009624D01*
X001039Y009698D01*
X000871Y009839D01*
X000762Y010029D01*
X000724Y010244D01*
X000724Y010494D02*
X000762Y010709D01*
X000871Y010899D01*
X001039Y011040D01*
X001245Y011114D01*
X001463Y011114D01*
X001669Y011040D01*
X001837Y010899D01*
X001946Y010709D01*
X001984Y010494D01*
X001946Y010279D01*
X001837Y010089D01*
X001669Y009948D01*
X001463Y009874D01*
X001245Y009874D01*
X001039Y009948D01*
X000871Y010089D01*
X000762Y010279D01*
X000724Y010494D01*
X000724Y010744D02*
X000762Y010959D01*
X000871Y011149D01*
X001039Y011290D01*
X001245Y011364D01*
X001463Y011364D01*
X001669Y011290D01*
X001837Y011149D01*
X001946Y010959D01*
X001984Y010744D01*
X001946Y010529D01*
X001837Y010339D01*
X001669Y010198D01*
X001463Y010124D01*
X001245Y010124D01*
X001039Y010198D01*
X000871Y010339D01*
X000762Y010529D01*
X000724Y010744D01*
X000724Y010994D02*
X000762Y011209D01*
X000871Y011399D01*
X001039Y011540D01*
X001245Y011614D01*
X001463Y011614D01*
X001669Y011540D01*
X001837Y011399D01*
X001946Y011209D01*
X001984Y010994D01*
X001946Y010779D01*
X001837Y010589D01*
X001669Y010448D01*
X001463Y010374D01*
X001245Y010374D01*
X001039Y010448D01*
X000871Y010589D01*
X000762Y010779D01*
X000724Y010994D01*
X000724Y011244D02*
X000762Y011459D01*
X000871Y011649D01*
X001039Y011790D01*
X001245Y011864D01*
X001463Y011864D01*
X001669Y011790D01*
X001837Y011649D01*
X001946Y011459D01*
X001984Y011244D01*
X001946Y011029D01*
X001837Y010839D01*
X001669Y010698D01*
X001463Y010624D01*
X001245Y010624D01*
X001039Y010698D01*
X000871Y010839D01*
X000762Y011029D01*
X000724Y011244D01*
X000724Y011494D02*
X000762Y011709D01*
X000871Y011899D01*
X001039Y012040D01*
X001245Y012114D01*
X001463Y012114D01*
X001669Y012040D01*
X001837Y011899D01*
X001946Y011709D01*
X001984Y011494D01*
X001946Y011279D01*
X001837Y011089D01*
X001669Y010948D01*
X001463Y010874D01*
X001245Y010874D01*
X001039Y010948D01*
X000871Y011089D01*
X000762Y011279D01*
X000724Y011494D01*
X000724Y011744D02*
X000762Y011959D01*
X000871Y012149D01*
X001039Y012290D01*
X001245Y012364D01*
X001463Y012364D01*
X001669Y012290D01*
X001837Y012149D01*
X001946Y011959D01*
X001984Y011744D01*
X001946Y011529D01*
X001837Y011339D01*
X001669Y011198D01*
X001463Y011124D01*
X001245Y011124D01*
X001039Y011198D01*
X000871Y011339D01*
X000762Y011529D01*
X000724Y011744D01*
G36*
X011160Y009270D02*
X010855Y008965D01*
X010576Y009244D01*
X010881Y009549D01*
X011160Y009270D01*
G37*
G36*
X011633Y009743D02*
X011328Y009438D01*
X011049Y009717D01*
X011354Y010022D01*
X011633Y009743D01*
G37*
X015224Y009744D02*
X015262Y009959D01*
X015371Y010149D01*
X015539Y010290D01*
X015745Y010364D01*
X015963Y010364D01*
X016169Y010290D01*
X016337Y010149D01*
X016446Y009959D01*
X016484Y009744D01*
X016446Y009529D01*
X016337Y009339D01*
X016169Y009198D01*
X015963Y009124D01*
X015745Y009124D01*
X015539Y009198D01*
X015371Y009339D01*
X015262Y009529D01*
X015224Y009744D01*
X015224Y009994D02*
X015262Y010209D01*
X015371Y010399D01*
X015539Y010540D01*
X015745Y010614D01*
X015963Y010614D01*
X016169Y010540D01*
X016337Y010399D01*
X016446Y010209D01*
X016484Y009994D01*
X016446Y009779D01*
X016337Y009589D01*
X016169Y009448D01*
X015963Y009374D01*
X015745Y009374D01*
X015539Y009448D01*
X015371Y009589D01*
X015262Y009779D01*
X015224Y009994D01*
X015224Y010244D02*
X015262Y010459D01*
X015371Y010649D01*
X015539Y010790D01*
X015745Y010864D01*
X015963Y010864D01*
X016169Y010790D01*
X016337Y010649D01*
X016446Y010459D01*
X016484Y010244D01*
X016446Y010029D01*
X016337Y009839D01*
X016169Y009698D01*
X015963Y009624D01*
X015745Y009624D01*
X015539Y009698D01*
X015371Y009839D01*
X015262Y010029D01*
X015224Y010244D01*
X015224Y010494D02*
X015262Y010709D01*
X015371Y010899D01*
X015539Y011040D01*
X015745Y011114D01*
X015963Y011114D01*
X016169Y011040D01*
X016337Y010899D01*
X016446Y010709D01*
X016484Y010494D01*
X016446Y010279D01*
X016337Y010089D01*
X016169Y009948D01*
X015963Y009874D01*
X015745Y009874D01*
X015539Y009948D01*
X015371Y010089D01*
X015262Y010279D01*
X015224Y010494D01*
X015224Y010744D02*
X015262Y010959D01*
X015371Y011149D01*
X015539Y011290D01*
X015745Y011364D01*
X015963Y011364D01*
X016169Y011290D01*
X016337Y011149D01*
X016446Y010959D01*
X016484Y010744D01*
X016446Y010529D01*
X016337Y010339D01*
X016169Y010198D01*
X015963Y010124D01*
X015745Y010124D01*
X015539Y010198D01*
X015371Y010339D01*
X015262Y010529D01*
X015224Y010744D01*
X015224Y010994D02*
X015262Y011209D01*
X015371Y011399D01*
X015539Y011540D01*
X015745Y011614D01*
X015963Y011614D01*
X016169Y011540D01*
X016337Y011399D01*
X016446Y011209D01*
X016484Y010994D01*
X016446Y010779D01*
X016337Y010589D01*
X016169Y010448D01*
X015963Y010374D01*
X015745Y010374D01*
X015539Y010448D01*
X015371Y010589D01*
X015262Y010779D01*
X015224Y010994D01*
X015224Y011244D02*
X015262Y011459D01*
X015371Y011649D01*
X015539Y011790D01*
X015745Y011864D01*
X015963Y011864D01*
X016169Y011790D01*
X016337Y011649D01*
X016446Y011459D01*
X016484Y011244D01*
X016446Y011029D01*
X016337Y010839D01*
X016169Y010698D01*
X015963Y010624D01*
X015745Y010624D01*
X015539Y010698D01*
X015371Y010839D01*
X015262Y011029D01*
X015224Y011244D01*
X015224Y011494D02*
X015262Y011709D01*
X015371Y011899D01*
X015539Y012040D01*
X015745Y012114D01*
X015963Y012114D01*
X016169Y012040D01*
X016337Y011899D01*
X016446Y011709D01*
X016484Y011494D01*
X016446Y011279D01*
X016337Y011089D01*
X016169Y010948D01*
X015963Y010874D01*
X015745Y010874D01*
X015539Y010948D01*
X015371Y011089D01*
X015262Y011279D01*
X015224Y011494D01*
X015224Y011744D02*
X015262Y011959D01*
X015371Y012149D01*
X015539Y012290D01*
X015745Y012364D01*
X015963Y012364D01*
X016169Y012290D01*
X016337Y012149D01*
X016446Y011959D01*
X016484Y011744D01*
X016446Y011529D01*
X016337Y011339D01*
X016169Y011198D01*
X015963Y011124D01*
X015745Y011124D01*
X015539Y011198D01*
X015371Y011339D01*
X015262Y011529D01*
X015224Y011744D01*
X015224Y011994D02*
X015262Y012209D01*
X015371Y012399D01*
X015539Y012540D01*
X015745Y012614D01*
X015963Y012614D01*
X016169Y012540D01*
X016337Y012399D01*
X016446Y012209D01*
X016484Y011994D01*
X016446Y011779D01*
X016337Y011589D01*
X016169Y011448D01*
X015963Y011374D01*
X015745Y011374D01*
X015539Y011448D01*
X015371Y011589D01*
X015262Y011779D01*
X015224Y011994D01*
X015224Y009494D02*
X015262Y009709D01*
X015371Y009899D01*
X015539Y010040D01*
X015745Y010114D01*
X015963Y010114D01*
X016169Y010040D01*
X016337Y009899D01*
X016446Y009709D01*
X016484Y009494D01*
X016446Y009279D01*
X016337Y009089D01*
X016169Y008948D01*
X015963Y008874D01*
X015745Y008874D01*
X015539Y008948D01*
X015371Y009089D01*
X015262Y009279D01*
X015224Y009494D01*
X015224Y009244D02*
X015262Y009459D01*
X015371Y009649D01*
X015539Y009790D01*
X015745Y009864D01*
X015963Y009864D01*
X016169Y009790D01*
X016337Y009649D01*
X016446Y009459D01*
X016484Y009244D01*
X016446Y009029D01*
X016337Y008839D01*
X016169Y008698D01*
X015963Y008624D01*
X015745Y008624D01*
X015539Y008698D01*
X015371Y008839D01*
X015262Y009029D01*
X015224Y009244D01*
X015224Y008994D02*
X015262Y009209D01*
X015371Y009399D01*
X015539Y009540D01*
X015745Y009614D01*
X015963Y009614D01*
X016169Y009540D01*
X016337Y009399D01*
X016446Y009209D01*
X016484Y008994D01*
X016446Y008779D01*
X016337Y008589D01*
X016169Y008448D01*
X015963Y008374D01*
X015745Y008374D01*
X015539Y008448D01*
X015371Y008589D01*
X015262Y008779D01*
X015224Y008994D01*
X015224Y008744D02*
X015262Y008959D01*
X015371Y009149D01*
X015539Y009290D01*
X015745Y009364D01*
X015963Y009364D01*
X016169Y009290D01*
X016337Y009149D01*
X016446Y008959D01*
X016484Y008744D01*
X016446Y008529D01*
X016337Y008339D01*
X016169Y008198D01*
X015963Y008124D01*
X015745Y008124D01*
X015539Y008198D01*
X015371Y008339D01*
X015262Y008529D01*
X015224Y008744D01*
X015224Y008494D02*
X015262Y008709D01*
X015371Y008899D01*
X015539Y009040D01*
X015745Y009114D01*
X015963Y009114D01*
X016169Y009040D01*
X016337Y008899D01*
X016446Y008709D01*
X016484Y008494D01*
X016446Y008279D01*
X016337Y008089D01*
X016169Y007948D01*
X015963Y007874D01*
X015745Y007874D01*
X015539Y007948D01*
X015371Y008089D01*
X015262Y008279D01*
X015224Y008494D01*
X015224Y008244D02*
X015262Y008459D01*
X015371Y008649D01*
X015539Y008790D01*
X015745Y008864D01*
X015963Y008864D01*
X016169Y008790D01*
X016337Y008649D01*
X016446Y008459D01*
X016484Y008244D01*
X016446Y008029D01*
X016337Y007839D01*
X016169Y007698D01*
X015963Y007624D01*
X015745Y007624D01*
X015539Y007698D01*
X015371Y007839D01*
X015262Y008029D01*
X015224Y008244D01*
X015224Y007994D02*
X015262Y008209D01*
X015371Y008399D01*
X015539Y008540D01*
X015745Y008614D01*
X015963Y008614D01*
X016169Y008540D01*
X016337Y008399D01*
X016446Y008209D01*
X016484Y007994D01*
X016446Y007779D01*
X016337Y007589D01*
X016169Y007448D01*
X015963Y007374D01*
X015745Y007374D01*
X015539Y007448D01*
X015371Y007589D01*
X015262Y007779D01*
X015224Y007994D01*
X015224Y007744D02*
X015262Y007959D01*
X015371Y008149D01*
X015539Y008290D01*
X015745Y008364D01*
X015963Y008364D01*
X016169Y008290D01*
X016337Y008149D01*
X016446Y007959D01*
X016484Y007744D01*
X016446Y007529D01*
X016337Y007339D01*
X016169Y007198D01*
X015963Y007124D01*
X015745Y007124D01*
X015539Y007198D01*
X015371Y007339D01*
X015262Y007529D01*
X015224Y007744D01*
X015224Y007494D02*
X015262Y007709D01*
X015371Y007899D01*
X015539Y008040D01*
X015745Y008114D01*
X015963Y008114D01*
X016169Y008040D01*
X016337Y007899D01*
X016446Y007709D01*
X016484Y007494D01*
X016446Y007279D01*
X016337Y007089D01*
X016169Y006948D01*
X015963Y006874D01*
X015745Y006874D01*
X015539Y006948D01*
X015371Y007089D01*
X015262Y007279D01*
X015224Y007494D01*
X015224Y007244D02*
X015262Y007459D01*
X015371Y007649D01*
X015539Y007790D01*
X015745Y007864D01*
X015963Y007864D01*
X016169Y007790D01*
X016337Y007649D01*
X016446Y007459D01*
X016484Y007244D01*
X016446Y007029D01*
X016337Y006839D01*
X016169Y006698D01*
X015963Y006624D01*
X015745Y006624D01*
X015539Y006698D01*
X015371Y006839D01*
X015262Y007029D01*
X015224Y007244D01*
X015224Y006994D02*
X015262Y007209D01*
X015371Y007399D01*
X015539Y007540D01*
X015745Y007614D01*
X015963Y007614D01*
X016169Y007540D01*
X016337Y007399D01*
X016446Y007209D01*
X016484Y006994D01*
X016446Y006779D01*
X016337Y006589D01*
X016169Y006448D01*
X015963Y006374D01*
X015745Y006374D01*
X015539Y006448D01*
X015371Y006589D01*
X015262Y006779D01*
X015224Y006994D01*
X015224Y006744D02*
X015262Y006959D01*
X015371Y007149D01*
X015539Y007290D01*
X015745Y007364D01*
X015963Y007364D01*
X016169Y007290D01*
X016337Y007149D01*
X016446Y006959D01*
X016484Y006744D01*
X016446Y006529D01*
X016337Y006339D01*
X016169Y006198D01*
X015963Y006124D01*
X015745Y006124D01*
X015539Y006198D01*
X015371Y006339D01*
X015262Y006529D01*
X015224Y006744D01*
X015224Y006494D02*
X015262Y006709D01*
X015371Y006899D01*
X015539Y007040D01*
X015745Y007114D01*
X015963Y007114D01*
X016169Y007040D01*
X016337Y006899D01*
X016446Y006709D01*
X016484Y006494D01*
X016446Y006279D01*
X016337Y006089D01*
X016169Y005948D01*
X015963Y005874D01*
X015745Y005874D01*
X015539Y005948D01*
X015371Y006089D01*
X015262Y006279D01*
X015224Y006494D01*
X015224Y006244D02*
X015262Y006459D01*
X015371Y006649D01*
X015539Y006790D01*
X015745Y006864D01*
X015963Y006864D01*
X016169Y006790D01*
X016337Y006649D01*
X016446Y006459D01*
X016484Y006244D01*
X016446Y006029D01*
X016337Y005839D01*
X016169Y005698D01*
X015963Y005624D01*
X015745Y005624D01*
X015539Y005698D01*
X015371Y005839D01*
X015262Y006029D01*
X015224Y006244D01*
X015224Y005994D02*
X015262Y006209D01*
X015371Y006399D01*
X015539Y006540D01*
X015745Y006614D01*
X015963Y006614D01*
X016169Y006540D01*
X016337Y006399D01*
X016446Y006209D01*
X016484Y005994D01*
X016446Y005779D01*
X016337Y005589D01*
X016169Y005448D01*
X015963Y005374D01*
X015745Y005374D01*
X015539Y005448D01*
X015371Y005589D01*
X015262Y005779D01*
X015224Y005994D01*
X015224Y005744D02*
X015262Y005959D01*
X015371Y006149D01*
X015539Y006290D01*
X015745Y006364D01*
X015963Y006364D01*
X016169Y006290D01*
X016337Y006149D01*
X016446Y005959D01*
X016484Y005744D01*
X016446Y005529D01*
X016337Y005339D01*
X016169Y005198D01*
X015963Y005124D01*
X015745Y005124D01*
X015539Y005198D01*
X015371Y005339D01*
X015262Y005529D01*
X015224Y005744D01*
X015224Y005494D02*
X015262Y005709D01*
X015371Y005899D01*
X015539Y006040D01*
X015745Y006114D01*
X015963Y006114D01*
X016169Y006040D01*
X016337Y005899D01*
X016446Y005709D01*
X016484Y005494D01*
X016446Y005279D01*
X016337Y005089D01*
X016169Y004948D01*
X015963Y004874D01*
X015745Y004874D01*
X015539Y004948D01*
X015371Y005089D01*
X015262Y005279D01*
X015224Y005494D01*
X015224Y005244D02*
X015262Y005459D01*
X015371Y005649D01*
X015539Y005790D01*
X015745Y005864D01*
X015963Y005864D01*
X016169Y005790D01*
X016337Y005649D01*
X016446Y005459D01*
X016484Y005244D01*
X016446Y005029D01*
X016337Y004839D01*
X016169Y004698D01*
X015963Y004624D01*
X015745Y004624D01*
X015539Y004698D01*
X015371Y004839D01*
X015262Y005029D01*
X015224Y005244D01*
X015224Y004994D02*
X015262Y005209D01*
X015371Y005399D01*
X015539Y005540D01*
X015745Y005614D01*
X015963Y005614D01*
X016169Y005540D01*
X016337Y005399D01*
X016446Y005209D01*
X016484Y004994D01*
X016446Y004779D01*
X016337Y004589D01*
X016169Y004448D01*
X015963Y004374D01*
X015745Y004374D01*
X015539Y004448D01*
X015371Y004589D01*
X015262Y004779D01*
X015224Y004994D01*
X015224Y004744D02*
X015262Y004959D01*
X015371Y005149D01*
X015539Y005290D01*
X015745Y005364D01*
X015963Y005364D01*
X016169Y005290D01*
X016337Y005149D01*
X016446Y004959D01*
X016484Y004744D01*
X016446Y004529D01*
X016337Y004339D01*
X016169Y004198D01*
X015963Y004124D01*
X015745Y004124D01*
X015539Y004198D01*
X015371Y004339D01*
X015262Y004529D01*
X015224Y004744D01*
X015224Y004494D02*
X015262Y004709D01*
X015371Y004899D01*
X015539Y005040D01*
X015745Y005114D01*
X015963Y005114D01*
X016169Y005040D01*
X016337Y004899D01*
X016446Y004709D01*
X016484Y004494D01*
X016446Y004279D01*
X016337Y004089D01*
X016169Y003948D01*
X015963Y003874D01*
X015745Y003874D01*
X015539Y003948D01*
X015371Y004089D01*
X015262Y004279D01*
X015224Y004494D01*
X015224Y004244D02*
X015262Y004459D01*
X015371Y004649D01*
X015539Y004790D01*
X015745Y004864D01*
X015963Y004864D01*
X016169Y004790D01*
X016337Y004649D01*
X016446Y004459D01*
X016484Y004244D01*
X016446Y004029D01*
X016337Y003839D01*
X016169Y003698D01*
X015963Y003624D01*
X015745Y003624D01*
X015539Y003698D01*
X015371Y003839D01*
X015262Y004029D01*
X015224Y004244D01*
X015224Y003994D02*
X015262Y004209D01*
X015371Y004399D01*
X015539Y004540D01*
X015745Y004614D01*
X015963Y004614D01*
X016169Y004540D01*
X016337Y004399D01*
X016446Y004209D01*
X016484Y003994D01*
X016446Y003779D01*
X016337Y003589D01*
X016169Y003448D01*
X015963Y003374D01*
X015745Y003374D01*
X015539Y003448D01*
X015371Y003589D01*
X015262Y003779D01*
X015224Y003994D01*
X015224Y003744D02*
X015262Y003959D01*
X015371Y004149D01*
X015539Y004290D01*
X015745Y004364D01*
X015963Y004364D01*
X016169Y004290D01*
X016337Y004149D01*
X016446Y003959D01*
X016484Y003744D01*
X016446Y003529D01*
X016337Y003339D01*
X016169Y003198D01*
X015963Y003124D01*
X015745Y003124D01*
X015539Y003198D01*
X015371Y003339D01*
X015262Y003529D01*
X015224Y003744D01*
X015224Y003494D02*
X015262Y003709D01*
X015371Y003899D01*
X015539Y004040D01*
X015745Y004114D01*
X015963Y004114D01*
X016169Y004040D01*
X016337Y003899D01*
X016446Y003709D01*
X016484Y003494D01*
X016446Y003279D01*
X016337Y003089D01*
X016169Y002948D01*
X015963Y002874D01*
X015745Y002874D01*
X015539Y002948D01*
X015371Y003089D01*
X015262Y003279D01*
X015224Y003494D01*
X015224Y003244D02*
X015262Y003459D01*
X015371Y003649D01*
X015539Y003790D01*
X015745Y003864D01*
X015963Y003864D01*
X016169Y003790D01*
X016337Y003649D01*
X016446Y003459D01*
X016484Y003244D01*
X016446Y003029D01*
X016337Y002839D01*
X016169Y002698D01*
X015963Y002624D01*
X015745Y002624D01*
X015539Y002698D01*
X015371Y002839D01*
X015262Y003029D01*
X015224Y003244D01*
X015224Y002994D02*
X015262Y003209D01*
X015371Y003399D01*
X015539Y003540D01*
X015745Y003614D01*
X015963Y003614D01*
X016169Y003540D01*
X016337Y003399D01*
X016446Y003209D01*
X016484Y002994D01*
X016446Y002779D01*
X016337Y002589D01*
X016169Y002448D01*
X015963Y002374D01*
X015745Y002374D01*
X015539Y002448D01*
X015371Y002589D01*
X015262Y002779D01*
X015224Y002994D01*
X015224Y002744D02*
X015262Y002959D01*
X015371Y003149D01*
X015539Y003290D01*
X015745Y003364D01*
X015963Y003364D01*
X016169Y003290D01*
X016337Y003149D01*
X016446Y002959D01*
X016484Y002744D01*
X016446Y002529D01*
X016337Y002339D01*
X016169Y002198D01*
X015963Y002124D01*
X015745Y002124D01*
X015539Y002198D01*
X015371Y002339D01*
X015262Y002529D01*
X015224Y002744D01*
X015224Y002494D02*
X015262Y002709D01*
X015371Y002899D01*
X015539Y003040D01*
X015745Y003114D01*
X015963Y003114D01*
X016169Y003040D01*
X016337Y002899D01*
X016446Y002709D01*
X016484Y002494D01*
X016446Y002279D01*
X016337Y002089D01*
X016169Y001948D01*
X015963Y001874D01*
X015745Y001874D01*
X015539Y001948D01*
X015371Y002089D01*
X015262Y002279D01*
X015224Y002494D01*
G36*
X011354Y003965D02*
X011049Y004270D01*
X011328Y004549D01*
X011633Y004244D01*
X011354Y003965D01*
G37*
G36*
X010881Y004438D02*
X010576Y004743D01*
X010855Y005022D01*
X011160Y004717D01*
X010881Y004438D01*
G37*
G36*
X010881Y004438D02*
X010576Y004743D01*
X010855Y005022D01*
X011160Y004717D01*
X010881Y004438D01*
G37*
G36*
X011354Y003965D02*
X011049Y004270D01*
X011328Y004549D01*
X011633Y004244D01*
X011354Y003965D01*
G37*
D11*
X013280Y003494D03*
X013280Y002494D03*
X013280Y001494D03*
X013280Y004494D03*
X013280Y005494D03*
X013280Y006494D03*
X013280Y007494D03*
X013280Y008494D03*
X013280Y009494D03*
X013280Y010494D03*
X013280Y011494D03*
X013280Y012494D03*
G36*
X011633Y009743D02*
X011328Y009438D01*
X011049Y009717D01*
X011354Y010022D01*
X011633Y009743D01*
G37*
G36*
X011160Y009270D02*
X010855Y008965D01*
X010576Y009244D01*
X010881Y009549D01*
X011160Y009270D01*
G37*
X003854Y009494D03*
X003854Y008494D03*
X003854Y007494D03*
X003854Y006494D03*
X003854Y005494D03*
X003854Y004494D03*
X003854Y003494D03*
X003854Y002494D03*
X003854Y001494D03*
X003854Y010494D03*
X003854Y011494D03*
X003854Y012494D03*
D12*
X006321Y008569D03*
X006321Y008254D03*
X006321Y007939D03*
X006321Y007624D03*
X006321Y007309D03*
X006321Y006994D03*
X006321Y006679D03*
X006321Y006364D03*
X006321Y006049D03*
X006321Y005734D03*
X006321Y005419D03*
X010888Y005419D03*
X010888Y005734D03*
X010888Y006049D03*
X010888Y006364D03*
X010888Y006679D03*
X010888Y006994D03*
X010888Y007309D03*
X010888Y007624D03*
X010888Y007939D03*
X010888Y008254D03*
X010888Y008569D03*
G36*
X011160Y009270D02*
X010855Y008965D01*
X010576Y009244D01*
X010881Y009549D01*
X011160Y009270D01*
G37*
G36*
X011633Y009743D02*
X011328Y009438D01*
X011049Y009717D01*
X011354Y010022D01*
X011633Y009743D01*
G37*
G36*
X010881Y004438D02*
X010576Y004743D01*
X010855Y005022D01*
X011160Y004717D01*
X010881Y004438D01*
G37*
G36*
X011354Y003965D02*
X011049Y004270D01*
X011328Y004549D01*
X011633Y004244D01*
X011354Y003965D01*
G37*
G36*
X011354Y003965D02*
X011049Y004270D01*
X011328Y004549D01*
X011633Y004244D01*
X011354Y003965D01*
G37*
G36*
X010881Y004438D02*
X010576Y004743D01*
X010855Y005022D01*
X011160Y004717D01*
X010881Y004438D01*
G37*
D13*
X010179Y004710D03*
X009864Y004710D03*
X009549Y004710D03*
X009234Y004710D03*
X008919Y004710D03*
X008604Y004710D03*
X008290Y004710D03*
X007975Y004710D03*
X007660Y004710D03*
X007345Y004710D03*
X007030Y004710D03*
X007030Y009277D03*
X007345Y009277D03*
X007660Y009277D03*
X007975Y009277D03*
X008290Y009277D03*
X008604Y009277D03*
X008919Y009277D03*
X009234Y009277D03*
X009549Y009277D03*
X009864Y009277D03*
X010179Y009277D03*
G36*
X011160Y009270D02*
X010855Y008965D01*
X010576Y009244D01*
X010881Y009549D01*
X011160Y009270D01*
G37*
G36*
X011633Y009743D02*
X011328Y009438D01*
X011049Y009717D01*
X011354Y010022D01*
X011633Y009743D01*
G37*
G36*
X011633Y009743D02*
X011328Y009438D01*
X011049Y009717D01*
X011354Y010022D01*
X011633Y009743D01*
G37*
G36*
X011160Y009270D02*
X010855Y008965D01*
X010576Y009244D01*
X010881Y009549D01*
X011160Y009270D01*
G37*
G36*
X010881Y004438D02*
X010576Y004743D01*
X010855Y005022D01*
X011160Y004717D01*
X010881Y004438D01*
G37*
G36*
X011354Y003965D02*
X011049Y004270D01*
X011328Y004549D01*
X011633Y004244D01*
X011354Y003965D01*
G37*
G36*
X011354Y003965D02*
X011049Y004270D01*
X011328Y004549D01*
X011633Y004244D01*
X011354Y003965D01*
G37*
G36*
X010881Y004438D02*
X010576Y004743D01*
X010855Y005022D01*
X011160Y004717D01*
X010881Y004438D01*
G37*
G36*
X011160Y009270D02*
X010855Y008965D01*
X010576Y009244D01*
X010881Y009549D01*
X011160Y009270D01*
G37*
G36*
X011633Y009743D02*
X011328Y009438D01*
X011049Y009717D01*
X011354Y010022D01*
X011633Y009743D01*
G37*
D15*
X008304Y010109D03*
X008304Y010779D03*
D16*
X008104Y012174D02*
X008104Y012814D01*
X009104Y012814D02*
X009104Y012174D01*
X010104Y012174D02*
X010104Y012814D01*
X011104Y012814D02*
X011104Y012174D01*
G36*
X011633Y009743D02*
X011328Y009438D01*
X011049Y009717D01*
X011354Y010022D01*
X011633Y009743D01*
G37*
G36*
X011160Y009270D02*
X010855Y008965D01*
X010576Y009244D01*
X010881Y009549D01*
X011160Y009270D01*
G37*
X007104Y012174D02*
X007104Y012814D01*
X006104Y012814D02*
X006104Y012174D01*
G36*
X010881Y004438D02*
X010576Y004743D01*
X010855Y005022D01*
X011160Y004717D01*
X010881Y004438D01*
G37*
G36*
X011354Y003965D02*
X011049Y004270D01*
X011328Y004549D01*
X011633Y004244D01*
X011354Y003965D01*
G37*
X011104Y001814D02*
X011104Y001174D01*
X010104Y001174D02*
X010104Y001814D01*
X009104Y001814D02*
X009104Y001174D01*
X008104Y001174D02*
X008104Y001814D01*
X007104Y001814D02*
X007104Y001174D01*
X006104Y001174D02*
X006104Y001814D01*
D17*
X006054Y001794D02*
X006104Y001494D01*
X006054Y001794D02*
X006054Y002194D01*
X007354Y003494D01*
X007354Y004494D01*
X007345Y004710D01*
X007660Y004710D02*
X007654Y004494D01*
X007654Y002794D01*
X007054Y002194D01*
X007054Y001794D01*
X007104Y001494D01*
X007954Y001994D02*
X008104Y001494D01*
X007954Y001994D02*
X007954Y004494D01*
X007975Y004710D01*
X008290Y004710D02*
X008354Y004494D01*
X008354Y002994D01*
X009054Y002294D01*
X009054Y001894D01*
X009104Y001494D01*
X010054Y001644D02*
X010104Y001494D01*
X010054Y001644D02*
X010054Y001794D01*
X008654Y003194D01*
X008654Y004494D01*
X008604Y004710D01*
X008919Y004710D02*
X008954Y004494D01*
X008954Y003344D01*
X009854Y002394D01*
X010654Y002394D01*
X011054Y001994D01*
X011054Y001594D01*
X011104Y001494D01*
X011704Y001944D02*
X013854Y001944D01*
X014154Y002244D01*
X014154Y012244D01*
X013904Y012494D01*
X013280Y012494D01*
X013280Y011494D02*
X013154Y011494D01*
X012554Y010894D01*
X012554Y007894D01*
X012354Y007294D02*
X012354Y006144D01*
X012704Y005794D01*
X013004Y005794D01*
X013280Y005494D01*
X012554Y005444D02*
X012554Y003094D01*
X012204Y002944D02*
X012654Y002494D01*
X013280Y002494D01*
X012204Y002944D02*
X012204Y004444D01*
X012154Y004494D01*
X012154Y005844D01*
X011954Y005494D02*
X011754Y005694D01*
X011754Y006694D01*
X011454Y006994D01*
X010888Y006994D01*
X010504Y006994D01*
X010154Y007344D01*
X010154Y008994D01*
X010179Y009277D01*
X010204Y009494D01*
X010204Y010294D01*
X011054Y011144D01*
X011054Y012444D01*
X011104Y012494D01*
X010204Y010294D02*
X009104Y010294D01*
X008904Y010094D01*
X008454Y010094D01*
X008454Y010009D01*
X008304Y010109D01*
X008304Y009494D01*
X008290Y009277D01*
X008919Y009277D02*
X008904Y009494D01*
X008904Y010094D01*
X009254Y009894D02*
X009254Y009494D01*
X009234Y009277D01*
X009549Y009277D02*
X009554Y008994D01*
X009554Y008594D01*
X007104Y006144D01*
X006321Y006049D02*
X006054Y005994D01*
X005354Y005994D01*
X003854Y004494D01*
X004754Y004994D02*
X005454Y005694D01*
X006054Y005694D01*
X006321Y005734D01*
X006321Y006364D02*
X006104Y006344D01*
X004654Y006344D01*
X003854Y007144D01*
X003854Y007494D01*
X004404Y007244D02*
X004404Y009844D01*
X003854Y010494D01*
X004954Y011394D02*
X003854Y012494D01*
X004954Y011394D02*
X004954Y008994D01*
X005654Y008294D01*
X006321Y008254D02*
X006454Y008244D01*
X008604Y008244D01*
X007704Y007844D02*
X007604Y007944D01*
X006404Y007944D01*
X006321Y007939D01*
X006321Y007624D02*
X006554Y007594D01*
X006754Y007594D01*
X007354Y006994D01*
X008304Y006794D02*
X008304Y006494D01*
X008304Y006794D02*
X008854Y007344D01*
X008954Y006894D02*
X008954Y005994D01*
X008354Y005394D01*
X009204Y005844D02*
X009204Y006544D01*
X009604Y006944D01*
X009354Y007294D02*
X008954Y006894D01*
X009354Y007294D02*
X009854Y007294D01*
X010454Y006694D01*
X010804Y006694D01*
X010888Y006679D01*
X010888Y006364D02*
X010325Y006364D01*
X010254Y006294D01*
X010254Y005694D02*
X009604Y006344D01*
X009204Y005844D02*
X009354Y005694D01*
X009604Y005694D01*
X009864Y005434D01*
X009864Y004710D01*
X009549Y004710D02*
X009554Y004994D01*
X009554Y005194D01*
X009454Y005344D01*
X009234Y004710D02*
X009254Y004494D01*
X009254Y003394D01*
X010054Y002594D01*
X011054Y002594D01*
X011704Y001944D01*
G36*
X011354Y003965D02*
X011049Y004270D01*
X011328Y004549D01*
X011633Y004244D01*
X011354Y003965D01*
G37*
X011054Y004794D02*
X010868Y004730D01*
G36*
X010881Y004438D02*
X010576Y004743D01*
X010855Y005022D01*
X011160Y004717D01*
X010881Y004438D01*
G37*
X010868Y004730D02*
X010654Y004794D01*
X010254Y004794D01*
X010179Y004710D01*
X010254Y005344D02*
X010304Y005394D01*
X010654Y005394D01*
X010888Y005419D01*
X010888Y005734D02*
X010654Y005694D01*
X010254Y005694D01*
X010854Y006044D02*
X010888Y006049D01*
X010854Y006044D02*
X011354Y006044D01*
X011554Y005844D01*
X011554Y005394D01*
X011954Y005494D02*
X011954Y004794D01*
X011054Y004794D01*
X012754Y006244D02*
X012754Y007194D01*
X011754Y008194D01*
X011154Y008194D01*
X010888Y008254D01*
X010888Y008569D02*
X011154Y008594D01*
X011304Y008594D01*
X011404Y008694D01*
X011404Y008944D01*
G36*
X011160Y009270D02*
X010855Y008965D01*
X010576Y009244D01*
X010881Y009549D01*
X011160Y009270D01*
G37*
X010868Y009257D02*
X010654Y009294D01*
X010254Y009294D01*
X010179Y009277D01*
X009864Y009277D02*
X009854Y009494D01*
X009854Y009894D01*
G36*
X011633Y009743D02*
X011328Y009438D01*
X011049Y009717D01*
X011354Y010022D01*
X011633Y009743D01*
G37*
X011654Y007994D02*
X011154Y007994D01*
X010888Y007939D01*
X010904Y007644D02*
X010954Y007594D01*
X011554Y007594D01*
X011354Y007294D02*
X011454Y007194D01*
X011904Y007194D01*
X012354Y007294D02*
X011654Y007994D01*
X010904Y007644D02*
X010888Y007624D01*
X010888Y007309D02*
X011154Y007294D01*
X011354Y007294D01*
X013604Y006994D02*
X013854Y006744D01*
X013854Y004794D01*
X013554Y004494D01*
X013280Y004494D01*
X006321Y006679D02*
X006306Y006694D01*
X006054Y006694D01*
X004954Y006694D01*
X004404Y007244D01*
X005654Y007344D02*
X006054Y007344D01*
X006321Y007309D01*
X003854Y009344D02*
X003854Y009394D01*
X003854Y009494D01*
X003854Y009394D02*
X003254Y008794D01*
X003254Y003194D01*
X003404Y003044D01*
X002954Y002894D02*
X003354Y002494D01*
X003854Y002494D01*
X004754Y002394D02*
X003854Y001494D01*
X004754Y002394D02*
X004754Y004994D01*
X002954Y002894D02*
X002954Y009294D01*
X003154Y009494D01*
D18*
X003154Y009494D03*
X005654Y008294D03*
X005654Y007344D03*
X007104Y006144D03*
X007354Y006994D03*
X008304Y006494D03*
X008854Y007344D03*
X008604Y008244D03*
X007704Y007844D03*
X009604Y006344D03*
X009454Y005344D03*
X010254Y005344D03*
G36*
X010881Y004438D02*
X010576Y004743D01*
X010855Y005022D01*
X011160Y004717D01*
X010881Y004438D01*
G37*
G36*
X011354Y003965D02*
X011049Y004270D01*
X011328Y004549D01*
X011633Y004244D01*
X011354Y003965D01*
G37*
X012554Y003094D03*
X012554Y005444D03*
X012154Y005844D03*
X011554Y005394D03*
X012754Y006244D03*
X013604Y006994D03*
X012554Y007894D03*
X011904Y007194D03*
X011554Y007594D03*
X011404Y008944D03*
G36*
X011160Y009270D02*
X010855Y008965D01*
X010576Y009244D01*
X010881Y009549D01*
X011160Y009270D01*
G37*
G36*
X011633Y009743D02*
X011328Y009438D01*
X011049Y009717D01*
X011354Y010022D01*
X011633Y009743D01*
G37*
X009854Y009894D03*
X009254Y009894D03*
X008354Y005394D03*
X003404Y003044D03*
D19*
X005854Y003494D03*
X007554Y005594D03*
X009604Y006944D03*
X010254Y006294D03*
G36*
X010881Y004438D02*
X010576Y004743D01*
X010855Y005022D01*
X011160Y004717D01*
X010881Y004438D01*
G37*
G36*
X011354Y003965D02*
X011049Y004270D01*
X011328Y004549D01*
X011633Y004244D01*
X011354Y003965D01*
G37*
X011854Y003994D03*
X010354Y003394D03*
G36*
X011160Y009270D02*
X010855Y008965D01*
X010576Y009244D01*
X010881Y009549D01*
X011160Y009270D01*
G37*
G36*
X011633Y009743D02*
X011328Y009438D01*
X011049Y009717D01*
X011354Y010022D01*
X011633Y009743D01*
G37*
X011604Y010994D03*
X006104Y010494D03*
X003104Y010994D03*
D20*
X003484Y011246D02*
X003607Y011123D01*
X003767Y011056D01*
X003941Y011056D01*
X004102Y011123D01*
X004225Y011246D01*
X004292Y011407D01*
X004292Y011581D01*
X004225Y011742D01*
X004102Y011865D01*
X003941Y011931D01*
X003767Y011931D01*
X003607Y011865D01*
X003484Y011742D01*
X003417Y011581D01*
X003417Y011407D01*
X003484Y011246D01*
X003472Y011275D02*
X002354Y011275D01*
X002354Y011433D02*
X003417Y011433D01*
X003422Y011592D02*
X002354Y011592D01*
X002354Y011750D02*
X003492Y011750D01*
X003714Y011909D02*
X002354Y011909D01*
X002354Y012068D02*
X003741Y012068D01*
X003767Y012056D02*
X003941Y012056D01*
X003979Y012072D01*
X004744Y011307D01*
X004744Y008907D01*
X004867Y008784D01*
X005277Y008375D01*
X005274Y008369D01*
X005274Y008218D01*
X005332Y008079D01*
X005439Y007972D01*
X005579Y007914D01*
X005730Y007914D01*
X005866Y007970D01*
X005866Y007788D01*
X005866Y007668D01*
X005730Y007724D01*
X005579Y007724D01*
X005439Y007666D01*
X005332Y007559D01*
X005274Y007419D01*
X005274Y007268D01*
X005332Y007129D01*
X005439Y007022D01*
X005579Y006964D01*
X005730Y006964D01*
X005846Y007012D01*
X005846Y006994D01*
X006321Y006994D01*
X006321Y006994D01*
X006796Y006994D01*
X006796Y007167D01*
X006776Y007187D01*
X006776Y007275D01*
X006977Y007075D01*
X006974Y007069D01*
X006974Y006918D01*
X007032Y006779D01*
X007139Y006672D01*
X007278Y006614D01*
X007185Y006522D01*
X007180Y006524D01*
X007029Y006524D01*
X006889Y006466D01*
X006782Y006359D01*
X006776Y006344D01*
X006776Y006529D01*
X006776Y006801D01*
X006796Y006821D01*
X006796Y006994D01*
X006974Y006994D01*
X007009Y006836D02*
X006796Y006836D01*
X006796Y006994D02*
X006321Y006994D01*
X006321Y006994D01*
X005846Y006994D01*
X005803Y006994D01*
X005846Y006994D02*
X005846Y006904D01*
X005041Y006904D01*
X004614Y007331D01*
X004614Y009835D01*
X004621Y009913D01*
X004614Y009921D01*
X004614Y009931D01*
X004559Y009986D01*
X004263Y010336D01*
X004292Y010407D01*
X004292Y010581D01*
X004225Y010742D01*
X004102Y010865D01*
X003941Y010931D01*
X003767Y010931D01*
X003607Y010865D01*
X003484Y010742D01*
X003417Y010581D01*
X003417Y010407D01*
X003484Y010246D01*
X003607Y010123D01*
X003767Y010056D01*
X003941Y010056D01*
X003947Y010059D01*
X004164Y009803D01*
X004102Y009865D01*
X003941Y009931D01*
X003767Y009931D01*
X003607Y009865D01*
X003484Y009742D01*
X003472Y009714D01*
X003370Y009816D01*
X003230Y009874D01*
X003079Y009874D01*
X002939Y009816D01*
X002832Y009709D01*
X002774Y009569D01*
X002774Y009418D01*
X002777Y009413D01*
X002744Y009381D01*
X002744Y009207D01*
X002744Y002807D01*
X002867Y002684D01*
X002868Y002684D01*
X003144Y002407D01*
X003267Y002284D01*
X003468Y002284D01*
X003484Y002246D01*
X003607Y002123D01*
X003767Y002056D01*
X003941Y002056D01*
X004102Y002123D01*
X004225Y002246D01*
X004292Y002407D01*
X004292Y002581D01*
X004225Y002742D01*
X004102Y002865D01*
X003941Y002931D01*
X003769Y002931D01*
X003784Y002968D01*
X003784Y003056D01*
X003941Y003056D01*
X004102Y003123D01*
X004225Y003246D01*
X004292Y003407D01*
X004292Y003581D01*
X004225Y003742D01*
X004102Y003865D01*
X003941Y003931D01*
X003767Y003931D01*
X003607Y003865D01*
X003484Y003742D01*
X003464Y003695D01*
X003464Y004292D01*
X003484Y004246D01*
X003607Y004123D01*
X003767Y004056D01*
X003941Y004056D01*
X004102Y004123D01*
X004225Y004246D01*
X004292Y004407D01*
X004292Y004581D01*
X004276Y004619D01*
X004544Y004887D01*
X004544Y002481D01*
X003979Y001916D01*
X003941Y001931D01*
X003767Y001931D01*
X003607Y001865D01*
X003484Y001742D01*
X003417Y001581D01*
X003417Y001407D01*
X003484Y001246D01*
X003607Y001123D01*
X003767Y001056D01*
X003941Y001056D01*
X004102Y001123D01*
X004225Y001246D01*
X004292Y001407D01*
X004292Y001581D01*
X004276Y001619D01*
X004964Y002307D01*
X004964Y002481D01*
X004964Y004907D01*
X005541Y005484D01*
X005846Y005484D01*
X005846Y005419D01*
X005846Y005246D01*
X005951Y005141D01*
X006321Y005141D01*
X006691Y005141D01*
X006796Y005246D01*
X006796Y005419D01*
X006796Y005592D01*
X006776Y005612D01*
X006776Y005899D01*
X006776Y005943D01*
X006782Y005929D01*
X006889Y005822D01*
X007029Y005764D01*
X007180Y005764D01*
X007320Y005822D01*
X007427Y005929D01*
X007484Y006068D01*
X007484Y006219D01*
X007482Y006225D01*
X008094Y006837D01*
X008094Y006818D01*
X008089Y006816D01*
X007982Y006709D01*
X007924Y006569D01*
X007924Y006418D01*
X007982Y006279D01*
X008089Y006172D01*
X008229Y006114D01*
X008380Y006114D01*
X008520Y006172D01*
X008627Y006279D01*
X008684Y006418D01*
X008684Y006569D01*
X008627Y006709D01*
X008572Y006764D01*
X008744Y006937D01*
X008744Y006081D01*
X008435Y005772D01*
X008430Y005774D01*
X008279Y005774D01*
X008139Y005716D01*
X008032Y005609D01*
X007974Y005469D01*
X007974Y005318D01*
X008032Y005179D01*
X008045Y005166D01*
X007810Y005166D01*
X007495Y005166D01*
X007223Y005166D01*
X007203Y005186D01*
X007030Y005186D01*
X007030Y004711D01*
X007029Y004711D01*
X007029Y004710D01*
X006751Y004710D01*
X006751Y004341D01*
X006857Y004235D01*
X007029Y004235D01*
X007029Y004710D01*
X007030Y004710D01*
X007030Y004235D01*
X007144Y004235D01*
X007144Y003581D01*
X005967Y002404D01*
X005844Y002281D01*
X005844Y002226D01*
X005833Y002221D01*
X005698Y002086D01*
X005624Y001909D01*
X005624Y001078D01*
X005688Y000926D01*
X002354Y000926D01*
X002354Y013062D01*
X005666Y013062D01*
X005604Y012913D01*
X005604Y012514D01*
X006084Y012514D01*
X006084Y012474D01*
X005604Y012474D01*
X005604Y012074D01*
X005681Y011891D01*
X005821Y011750D01*
X006005Y011674D01*
X006084Y011674D01*
X006084Y012474D01*
X006124Y012474D01*
X006124Y011674D01*
X006204Y011674D01*
X006388Y011750D01*
X006528Y011891D01*
X006604Y012074D01*
X006604Y012474D01*
X006125Y012474D01*
X006125Y012514D01*
X006604Y012514D01*
X006604Y012913D01*
X006543Y013062D01*
X006666Y013062D01*
X006604Y012913D01*
X006604Y012514D01*
X007084Y012514D01*
X007084Y012474D01*
X006604Y012474D01*
X006604Y012074D01*
X006681Y011891D01*
X006821Y011750D01*
X007005Y011674D01*
X007084Y011674D01*
X007084Y012474D01*
X007124Y012474D01*
X007124Y011674D01*
X007204Y011674D01*
X007388Y011750D01*
X007528Y011891D01*
X007604Y012074D01*
X007604Y012474D01*
X007125Y012474D01*
X007125Y012514D01*
X007604Y012514D01*
X007604Y012913D01*
X007543Y013062D01*
X007666Y013062D01*
X007604Y012913D01*
X007604Y012514D01*
X008084Y012514D01*
X008084Y012474D01*
X007604Y012474D01*
X007604Y012074D01*
X007681Y011891D01*
X007821Y011750D01*
X008005Y011674D01*
X008084Y011674D01*
X008084Y012474D01*
X008124Y012474D01*
X008124Y011674D01*
X008204Y011674D01*
X008388Y011750D01*
X008528Y011891D01*
X008604Y012074D01*
X008604Y012474D01*
X008125Y012474D01*
X008125Y012514D01*
X008604Y012514D01*
X008604Y012913D01*
X008543Y013062D01*
X008666Y013062D01*
X008604Y012913D01*
X008604Y012514D01*
X009084Y012514D01*
X009084Y012474D01*
X008604Y012474D01*
X008604Y012074D01*
X008681Y011891D01*
X008821Y011750D01*
X009005Y011674D01*
X009084Y011674D01*
X009084Y012474D01*
X009124Y012474D01*
X009124Y011674D01*
X009204Y011674D01*
X009388Y011750D01*
X009528Y011891D01*
X009604Y012074D01*
X009604Y012474D01*
X009125Y012474D01*
X009125Y012514D01*
X009604Y012514D01*
X009604Y012913D01*
X009543Y013062D01*
X009666Y013062D01*
X009604Y012913D01*
X009604Y012514D01*
X010084Y012514D01*
X010084Y012474D01*
X009604Y012474D01*
X009604Y012074D01*
X009681Y011891D01*
X009821Y011750D01*
X010005Y011674D01*
X010084Y011674D01*
X010084Y012474D01*
X010124Y012474D01*
X010124Y011674D01*
X010204Y011674D01*
X010388Y011750D01*
X010528Y011891D01*
X010604Y012074D01*
X010604Y012474D01*
X010125Y012474D01*
X010125Y012514D01*
X010604Y012514D01*
X010604Y012913D01*
X010543Y013062D01*
X010688Y013062D01*
X010624Y012909D01*
X010624Y012078D01*
X010698Y011902D01*
X010833Y011767D01*
X010844Y011762D01*
X010844Y011231D01*
X010117Y010504D01*
X009017Y010504D01*
X008894Y010381D01*
X008817Y010304D01*
X008661Y010304D01*
X008661Y010392D01*
X008624Y010430D01*
X008681Y010487D01*
X008681Y010760D01*
X008323Y010760D01*
X008323Y010797D01*
X008286Y010797D01*
X008286Y011175D01*
X008033Y011175D01*
X007928Y011070D01*
X007928Y010797D01*
X008286Y010797D01*
X008286Y010760D01*
X007928Y010760D01*
X007928Y010487D01*
X007985Y010430D01*
X007948Y010392D01*
X007948Y009826D01*
X008041Y009733D01*
X008094Y009733D01*
X008094Y009733D01*
X007824Y009733D01*
X007509Y009733D01*
X007223Y009733D01*
X007203Y009753D01*
X007030Y009753D01*
X007030Y009278D01*
X007029Y009278D01*
X007029Y009753D01*
X006857Y009753D01*
X006751Y009647D01*
X006751Y009277D01*
X006751Y008907D01*
X006857Y008802D01*
X007029Y008802D01*
X007029Y009277D01*
X006751Y009277D01*
X007029Y009277D01*
X007029Y009277D01*
X007030Y009277D01*
X007030Y008802D01*
X007203Y008802D01*
X007223Y008822D01*
X007509Y008822D01*
X007824Y008822D01*
X008139Y008822D01*
X008454Y008822D01*
X008769Y008822D01*
X009084Y008822D01*
X009344Y008822D01*
X009344Y008681D01*
X008984Y008320D01*
X008927Y008459D01*
X008820Y008566D01*
X008680Y008624D01*
X008529Y008624D01*
X008389Y008566D01*
X008282Y008459D01*
X008280Y008454D01*
X006796Y008454D01*
X006796Y008568D01*
X006321Y008568D01*
X006321Y008569D01*
X006321Y008847D01*
X005951Y008847D01*
X005846Y008742D01*
X005846Y008626D01*
X005730Y008674D01*
X005579Y008674D01*
X005574Y008672D01*
X005164Y009081D01*
X005164Y011307D01*
X005164Y011481D01*
X004276Y012369D01*
X004292Y012407D01*
X004292Y012581D01*
X004225Y012742D01*
X004102Y012865D01*
X003941Y012931D01*
X003767Y012931D01*
X003607Y012865D01*
X003484Y012742D01*
X003417Y012581D01*
X003417Y012407D01*
X003484Y012246D01*
X003607Y012123D01*
X003767Y012056D01*
X003504Y012226D02*
X002354Y012226D01*
X002354Y012385D02*
X003426Y012385D01*
X003417Y012543D02*
X002354Y012543D01*
X002354Y012702D02*
X003467Y012702D01*
X003602Y012860D02*
X002354Y012860D01*
X002354Y013019D02*
X005648Y013019D01*
X005604Y012860D02*
X004107Y012860D01*
X004242Y012702D02*
X005604Y012702D01*
X005604Y012543D02*
X004292Y012543D01*
X004283Y012385D02*
X005604Y012385D01*
X005604Y012226D02*
X004419Y012226D01*
X004578Y012068D02*
X005607Y012068D01*
X005673Y011909D02*
X004736Y011909D01*
X004895Y011750D02*
X005821Y011750D01*
X006084Y011750D02*
X006124Y011750D01*
X006124Y011909D02*
X006084Y011909D01*
X006084Y012068D02*
X006124Y012068D01*
X006124Y012226D02*
X006084Y012226D01*
X006084Y012385D02*
X006124Y012385D01*
X006604Y012385D02*
X006604Y012385D01*
X006604Y012543D02*
X006604Y012543D01*
X006604Y012702D02*
X006604Y012702D01*
X006604Y012860D02*
X006604Y012860D01*
X006561Y013019D02*
X006648Y013019D01*
X007084Y012385D02*
X007124Y012385D01*
X007124Y012226D02*
X007084Y012226D01*
X007084Y012068D02*
X007124Y012068D01*
X007124Y011909D02*
X007084Y011909D01*
X007084Y011750D02*
X007124Y011750D01*
X007388Y011750D02*
X007821Y011750D01*
X008084Y011750D02*
X008124Y011750D01*
X008388Y011750D02*
X008821Y011750D01*
X009084Y011750D02*
X009124Y011750D01*
X009388Y011750D02*
X009821Y011750D01*
X010084Y011750D02*
X010124Y011750D01*
X010124Y011909D02*
X010084Y011909D01*
X010084Y012068D02*
X010124Y012068D01*
X010124Y012226D02*
X010084Y012226D01*
X010084Y012385D02*
X010124Y012385D01*
X010604Y012385D02*
X010624Y012385D01*
X010624Y012543D02*
X010604Y012543D01*
X010604Y012702D02*
X010624Y012702D01*
X010624Y012860D02*
X010604Y012860D01*
X010561Y013019D02*
X010670Y013019D01*
X011521Y013062D02*
X014854Y013062D01*
X014854Y000926D01*
X011521Y000926D01*
X011584Y001078D01*
X011584Y001767D01*
X011617Y001734D01*
X012906Y001734D01*
X012842Y001581D01*
X012842Y001407D01*
X012909Y001246D01*
X013032Y001123D01*
X013193Y001056D01*
X013367Y001056D01*
X013527Y001123D01*
X013651Y001246D01*
X013717Y001407D01*
X013717Y001581D01*
X013654Y001734D01*
X013767Y001734D01*
X013941Y001734D01*
X014241Y002034D01*
X014364Y002157D01*
X014364Y012157D01*
X014364Y012331D01*
X014114Y012581D01*
X013991Y012704D01*
X013666Y012704D01*
X013651Y012742D01*
X013527Y012865D01*
X013367Y012931D01*
X013193Y012931D01*
X013032Y012865D01*
X012909Y012742D01*
X012842Y012581D01*
X012842Y012407D01*
X012909Y012246D01*
X013032Y012123D01*
X013193Y012056D01*
X013367Y012056D01*
X013527Y012123D01*
X013651Y012246D01*
X013666Y012284D01*
X013817Y012284D01*
X013944Y012157D01*
X013944Y007166D01*
X013927Y007209D01*
X013820Y007316D01*
X013700Y007366D01*
X013717Y007407D01*
X013717Y007581D01*
X013651Y007742D01*
X013527Y007865D01*
X013367Y007931D01*
X013193Y007931D01*
X013032Y007865D01*
X012909Y007742D01*
X012842Y007581D01*
X012842Y007407D01*
X012845Y007400D01*
X012841Y007404D01*
X012702Y007544D01*
X012770Y007572D01*
X012877Y007679D01*
X012934Y007818D01*
X012934Y007969D01*
X012877Y008109D01*
X012770Y008216D01*
X012764Y008218D01*
X012764Y010807D01*
X013066Y011109D01*
X013193Y011056D01*
X013367Y011056D01*
X013527Y011123D01*
X013651Y011246D01*
X013717Y011407D01*
X013717Y011581D01*
X013651Y011742D01*
X013527Y011865D01*
X013367Y011931D01*
X013193Y011931D01*
X013032Y011865D01*
X012909Y011742D01*
X012842Y011581D01*
X012842Y011479D01*
X012344Y010981D01*
X012344Y010807D01*
X012344Y008218D01*
X012339Y008216D01*
X012232Y008109D01*
X012204Y008041D01*
X011841Y008404D01*
X011667Y008404D01*
X011411Y008404D01*
X011491Y008484D01*
X011614Y008607D01*
X011614Y008620D01*
X011620Y008622D01*
X011727Y008729D01*
X011784Y008868D01*
X011784Y009019D01*
X011727Y009159D01*
X011620Y009266D01*
X011480Y009324D01*
X011467Y009324D01*
X011594Y009451D01*
X011341Y009704D01*
X011367Y009730D01*
X011621Y009477D01*
X011813Y009670D01*
X011813Y009819D01*
X011634Y009998D01*
X011367Y009731D01*
X011341Y009757D01*
X011315Y009731D01*
X011062Y009984D01*
X010869Y009791D01*
X010869Y009709D01*
X010815Y009709D01*
X010619Y009513D01*
X010604Y009516D01*
X010588Y009504D01*
X010438Y009504D01*
X010438Y009639D01*
X010414Y009662D01*
X010414Y010207D01*
X011264Y011057D01*
X011264Y011231D01*
X011264Y011721D01*
X011376Y011767D01*
X011511Y011902D01*
X011584Y012078D01*
X011584Y012909D01*
X011521Y013062D01*
X011539Y013019D02*
X014854Y013019D01*
X014854Y012860D02*
X013532Y012860D01*
X013994Y012702D02*
X014854Y012702D01*
X014854Y012543D02*
X014152Y012543D01*
X014311Y012385D02*
X014854Y012385D01*
X014854Y012226D02*
X014364Y012226D01*
X014364Y012068D02*
X014854Y012068D01*
X014854Y011909D02*
X014364Y011909D01*
X014364Y011750D02*
X014854Y011750D01*
X014854Y011592D02*
X014364Y011592D01*
X014364Y011433D02*
X014854Y011433D01*
X014854Y011275D02*
X014364Y011275D01*
X014364Y011116D02*
X014854Y011116D01*
X014854Y010958D02*
X014364Y010958D01*
X014364Y010799D02*
X014854Y010799D01*
X014854Y010641D02*
X014364Y010641D01*
X014364Y010482D02*
X014854Y010482D01*
X014854Y010324D02*
X014364Y010324D01*
X014364Y010165D02*
X014854Y010165D01*
X014854Y010006D02*
X014364Y010006D01*
X014364Y009848D02*
X014854Y009848D01*
X014854Y009689D02*
X014364Y009689D01*
X014364Y009531D02*
X014854Y009531D01*
X014854Y009372D02*
X014364Y009372D01*
X014364Y009214D02*
X014854Y009214D01*
X014854Y009055D02*
X014364Y009055D01*
X014364Y008897D02*
X014854Y008897D01*
X014854Y008738D02*
X014364Y008738D01*
X014364Y008580D02*
X014854Y008580D01*
X014854Y008421D02*
X014364Y008421D01*
X014364Y008262D02*
X014854Y008262D01*
X014854Y008104D02*
X014364Y008104D01*
X014364Y007945D02*
X014854Y007945D01*
X014854Y007787D02*
X014364Y007787D01*
X014364Y007628D02*
X014854Y007628D01*
X014854Y007470D02*
X014364Y007470D01*
X014364Y007311D02*
X014854Y007311D01*
X014854Y007153D02*
X014364Y007153D01*
X014364Y006994D02*
X014854Y006994D01*
X014854Y006836D02*
X014364Y006836D01*
X014364Y006677D02*
X014854Y006677D01*
X014854Y006519D02*
X014364Y006519D01*
X014364Y006360D02*
X014854Y006360D01*
X014854Y006201D02*
X014364Y006201D01*
X014364Y006043D02*
X014854Y006043D01*
X014854Y005884D02*
X014364Y005884D01*
X014364Y005726D02*
X014854Y005726D01*
X014854Y005567D02*
X014364Y005567D01*
X014364Y005409D02*
X014854Y005409D01*
X014854Y005250D02*
X014364Y005250D01*
X014364Y005092D02*
X014854Y005092D01*
X014854Y004933D02*
X014364Y004933D01*
X014364Y004775D02*
X014854Y004775D01*
X014854Y004616D02*
X014364Y004616D01*
X014364Y004457D02*
X014854Y004457D01*
X014854Y004299D02*
X014364Y004299D01*
X014364Y004140D02*
X014854Y004140D01*
X014854Y003982D02*
X014364Y003982D01*
X014364Y003823D02*
X014854Y003823D01*
X014854Y003665D02*
X014364Y003665D01*
X014364Y003506D02*
X014854Y003506D01*
X014854Y003348D02*
X014364Y003348D01*
X014364Y003189D02*
X014854Y003189D01*
X014854Y003031D02*
X014364Y003031D01*
X014364Y002872D02*
X014854Y002872D01*
X014854Y002713D02*
X014364Y002713D01*
X014364Y002555D02*
X014854Y002555D01*
X014854Y002396D02*
X014364Y002396D01*
X014364Y002238D02*
X014854Y002238D01*
X014854Y002079D02*
X014287Y002079D01*
X014128Y001921D02*
X014854Y001921D01*
X014854Y001762D02*
X013970Y001762D01*
X013708Y001604D02*
X014854Y001604D01*
X014854Y001445D02*
X013717Y001445D01*
X013667Y001287D02*
X014854Y001287D01*
X014854Y001128D02*
X013533Y001128D01*
X013027Y001128D02*
X011584Y001128D01*
X011584Y001287D02*
X012892Y001287D01*
X012842Y001445D02*
X011584Y001445D01*
X011584Y001604D02*
X012852Y001604D01*
X013001Y002154D02*
X011791Y002154D01*
X011141Y002804D01*
X010967Y002804D01*
X010141Y002804D01*
X009464Y003481D01*
X009464Y004255D01*
X009700Y004255D01*
X010015Y004255D01*
X010344Y004255D01*
X010438Y004349D01*
X010438Y004584D01*
X010510Y004584D01*
X010815Y004278D01*
X010869Y004278D01*
X010869Y004197D01*
X011062Y004004D01*
X011315Y004257D01*
X011341Y004231D01*
X011088Y003978D01*
X011280Y003785D01*
X011430Y003785D01*
X011608Y003964D01*
X011341Y004231D01*
X011367Y004257D01*
X011634Y003990D01*
X011813Y004169D01*
X011813Y004318D01*
X011621Y004511D01*
X011367Y004257D01*
X011341Y004283D01*
X011594Y004537D01*
X011547Y004584D01*
X011867Y004584D01*
X011944Y004584D01*
X011944Y004407D01*
X011994Y004357D01*
X011994Y003031D01*
X011994Y002857D01*
X012444Y002407D01*
X012567Y002284D01*
X012893Y002284D01*
X012909Y002246D01*
X013001Y002154D01*
X012917Y002238D02*
X011707Y002238D01*
X011549Y002396D02*
X012455Y002396D01*
X012296Y002555D02*
X011390Y002555D01*
X011232Y002713D02*
X012138Y002713D01*
X011994Y002872D02*
X010073Y002872D01*
X009915Y003031D02*
X011994Y003031D01*
X011994Y003189D02*
X009756Y003189D01*
X009598Y003348D02*
X011994Y003348D01*
X011994Y003506D02*
X009464Y003506D01*
X009464Y003665D02*
X011994Y003665D01*
X011994Y003823D02*
X011468Y003823D01*
X011590Y003982D02*
X011994Y003982D01*
X011994Y004140D02*
X011785Y004140D01*
X011813Y004299D02*
X011994Y004299D01*
X011944Y004457D02*
X011674Y004457D01*
X011567Y004457D02*
X011515Y004457D01*
X011409Y004299D02*
X011357Y004299D01*
G36*
X011354Y003965D02*
X011049Y004270D01*
X011328Y004549D01*
X011633Y004244D01*
X011354Y003965D01*
G37*
X011242Y003823D02*
X009464Y003823D01*
X009464Y003982D02*
X011092Y003982D01*
X011198Y004140D02*
X011250Y004140D01*
X011432Y004140D02*
X011484Y004140D01*
X010925Y004140D02*
X009464Y004140D01*
X010388Y004299D02*
X010795Y004299D01*
X010636Y004457D02*
X010438Y004457D01*
G36*
X010881Y004438D02*
X010576Y004743D01*
X010855Y005022D01*
X011160Y004717D01*
X010881Y004438D01*
G37*
X008707Y006043D02*
X007474Y006043D01*
X007484Y006201D02*
X008059Y006201D01*
X007949Y006360D02*
X007618Y006360D01*
X007776Y006519D02*
X007924Y006519D01*
X007935Y006677D02*
X007969Y006677D01*
X008093Y006836D02*
X008094Y006836D01*
X008643Y006836D02*
X008744Y006836D01*
X008744Y006677D02*
X008640Y006677D01*
X008684Y006519D02*
X008744Y006519D01*
X008744Y006360D02*
X008660Y006360D01*
X008744Y006201D02*
X008549Y006201D01*
X008548Y005884D02*
X007382Y005884D01*
X006827Y005884D02*
X006776Y005884D01*
X006776Y005726D02*
X008163Y005726D01*
X008015Y005567D02*
X006796Y005567D01*
X006796Y005419D02*
X006321Y005419D01*
X006321Y005141D01*
X006321Y005419D01*
X006321Y005419D01*
X005846Y005419D01*
X006321Y005419D01*
X006321Y005419D01*
X006321Y005419D01*
X006796Y005419D01*
X006796Y005409D02*
X007974Y005409D01*
X008003Y005250D02*
X006796Y005250D01*
X006857Y005186D02*
X006751Y005080D01*
X006751Y004711D01*
X007029Y004711D01*
X007029Y005186D01*
X006857Y005186D01*
X006763Y005092D02*
X005149Y005092D01*
X005308Y005250D02*
X005846Y005250D01*
X005846Y005409D02*
X005466Y005409D01*
X004991Y004933D02*
X006751Y004933D01*
X006751Y004775D02*
X004964Y004775D01*
X004964Y004616D02*
X006751Y004616D01*
X006751Y004457D02*
X004964Y004457D01*
X004964Y004299D02*
X006793Y004299D01*
X007029Y004299D02*
X007030Y004299D01*
X007029Y004457D02*
X007030Y004457D01*
X007029Y004616D02*
X007030Y004616D01*
X007029Y004775D02*
X007030Y004775D01*
X007029Y004933D02*
X007030Y004933D01*
X007029Y005092D02*
X007030Y005092D01*
X006321Y005250D02*
X006321Y005250D01*
X006321Y005409D02*
X006321Y005409D01*
X006776Y006360D02*
X006783Y006360D01*
X006776Y006519D02*
X007016Y006519D01*
X007134Y006677D02*
X006776Y006677D01*
X006796Y007153D02*
X006899Y007153D01*
X005866Y007787D02*
X004614Y007787D01*
X004614Y007945D02*
X005503Y007945D01*
X005322Y008104D02*
X004614Y008104D01*
X004614Y008262D02*
X005274Y008262D01*
X005230Y008421D02*
X004614Y008421D01*
X004614Y008580D02*
X005072Y008580D01*
X004913Y008738D02*
X004614Y008738D01*
X004614Y008897D02*
X004755Y008897D01*
X004744Y009055D02*
X004614Y009055D01*
X004614Y009214D02*
X004744Y009214D01*
X004744Y009372D02*
X004614Y009372D01*
X004614Y009531D02*
X004744Y009531D01*
X004744Y009689D02*
X004614Y009689D01*
X004616Y009848D02*
X004744Y009848D01*
X004744Y010006D02*
X004542Y010006D01*
X004408Y010165D02*
X004744Y010165D01*
X004744Y010324D02*
X004274Y010324D01*
X004292Y010482D02*
X004744Y010482D01*
X004744Y010641D02*
X004267Y010641D01*
X004168Y010799D02*
X004744Y010799D01*
X004744Y010958D02*
X002354Y010958D01*
X002354Y011116D02*
X003623Y011116D01*
X003541Y010799D02*
X002354Y010799D01*
X002354Y010641D02*
X003442Y010641D01*
X003417Y010482D02*
X002354Y010482D01*
X002354Y010324D02*
X003451Y010324D01*
X003565Y010165D02*
X002354Y010165D01*
X002354Y010006D02*
X003992Y010006D01*
X004119Y009848D02*
X004126Y009848D01*
X003590Y009848D02*
X003293Y009848D01*
X003016Y009848D02*
X002354Y009848D01*
X002354Y009689D02*
X002824Y009689D01*
X002774Y009531D02*
X002354Y009531D01*
X002354Y009372D02*
X002744Y009372D01*
X002744Y009214D02*
X002354Y009214D01*
X002354Y009055D02*
X002744Y009055D01*
X002744Y008897D02*
X002354Y008897D01*
X002354Y008738D02*
X002744Y008738D01*
X002744Y008580D02*
X002354Y008580D01*
X002354Y008421D02*
X002744Y008421D01*
X002744Y008262D02*
X002354Y008262D01*
X002354Y008104D02*
X002744Y008104D01*
X002744Y007945D02*
X002354Y007945D01*
X002354Y007787D02*
X002744Y007787D01*
X002744Y007628D02*
X002354Y007628D01*
X002354Y007470D02*
X002744Y007470D01*
X002744Y007311D02*
X002354Y007311D01*
X002354Y007153D02*
X002744Y007153D01*
X002744Y006994D02*
X002354Y006994D01*
X002354Y006836D02*
X002744Y006836D01*
X002744Y006677D02*
X002354Y006677D01*
X002354Y006519D02*
X002744Y006519D01*
X002744Y006360D02*
X002354Y006360D01*
X002354Y006201D02*
X002744Y006201D01*
X002744Y006043D02*
X002354Y006043D01*
X002354Y005884D02*
X002744Y005884D01*
X002744Y005726D02*
X002354Y005726D01*
X002354Y005567D02*
X002744Y005567D01*
X002744Y005409D02*
X002354Y005409D01*
X002354Y005250D02*
X002744Y005250D01*
X002744Y005092D02*
X002354Y005092D01*
X002354Y004933D02*
X002744Y004933D01*
X002744Y004775D02*
X002354Y004775D01*
X002354Y004616D02*
X002744Y004616D01*
X002744Y004457D02*
X002354Y004457D01*
X002354Y004299D02*
X002744Y004299D01*
X002744Y004140D02*
X002354Y004140D01*
X002354Y003982D02*
X002744Y003982D01*
X002744Y003823D02*
X002354Y003823D01*
X002354Y003665D02*
X002744Y003665D01*
X002744Y003506D02*
X002354Y003506D01*
X002354Y003348D02*
X002744Y003348D01*
X002744Y003189D02*
X002354Y003189D01*
X002354Y003031D02*
X002744Y003031D01*
X002744Y002872D02*
X002354Y002872D01*
X002354Y002713D02*
X002838Y002713D01*
X002996Y002555D02*
X002354Y002555D01*
X002354Y002396D02*
X003155Y002396D01*
X003144Y002407D02*
X003144Y002407D01*
X003492Y002238D02*
X002354Y002238D01*
X002354Y002079D02*
X003712Y002079D01*
X003742Y001921D02*
X002354Y001921D01*
X002354Y001762D02*
X003504Y001762D01*
X003426Y001604D02*
X002354Y001604D01*
X002354Y001445D02*
X003417Y001445D01*
X003467Y001287D02*
X002354Y001287D01*
X002354Y001128D02*
X003602Y001128D01*
X004107Y001128D02*
X005624Y001128D01*
X005624Y001287D02*
X004242Y001287D01*
X004292Y001445D02*
X005624Y001445D01*
X005624Y001604D02*
X004282Y001604D01*
X004420Y001762D02*
X005624Y001762D01*
X005629Y001921D02*
X004578Y001921D01*
X004737Y002079D02*
X005695Y002079D01*
X005844Y002238D02*
X004895Y002238D01*
X004964Y002396D02*
X005960Y002396D01*
X006119Y002555D02*
X004964Y002555D01*
X004964Y002713D02*
X006277Y002713D01*
X006436Y002872D02*
X004964Y002872D01*
X004964Y003031D02*
X006594Y003031D01*
X006753Y003189D02*
X004964Y003189D01*
X004964Y003348D02*
X006911Y003348D01*
X007070Y003506D02*
X004964Y003506D01*
X004964Y003665D02*
X007144Y003665D01*
X007144Y003823D02*
X004964Y003823D01*
X004964Y003982D02*
X007144Y003982D01*
X007144Y004140D02*
X004964Y004140D01*
X004544Y004140D02*
X004120Y004140D01*
X004247Y004299D02*
X004544Y004299D01*
X004544Y004457D02*
X004292Y004457D01*
X004277Y004616D02*
X004544Y004616D01*
X004544Y004775D02*
X004432Y004775D01*
X003589Y004140D02*
X003464Y004140D01*
X003464Y003982D02*
X004544Y003982D01*
X004544Y003823D02*
X004144Y003823D01*
X004257Y003665D02*
X004544Y003665D01*
X004544Y003506D02*
X004292Y003506D01*
X004267Y003348D02*
X004544Y003348D01*
X004544Y003189D02*
X004168Y003189D01*
X004085Y002872D02*
X004544Y002872D01*
X004544Y002713D02*
X004237Y002713D01*
X004292Y002555D02*
X004544Y002555D01*
X004460Y002396D02*
X004288Y002396D01*
X004301Y002238D02*
X004217Y002238D01*
X004143Y002079D02*
X003997Y002079D01*
X003984Y001921D02*
X003967Y001921D01*
X003784Y003031D02*
X004544Y003031D01*
X003565Y003823D02*
X003464Y003823D01*
X002354Y000969D02*
X005670Y000969D01*
X011539Y000969D02*
X014854Y000969D01*
X011589Y001762D02*
X011584Y001762D01*
X005506Y006994D02*
X004951Y006994D01*
X004793Y007153D02*
X005322Y007153D01*
X005274Y007311D02*
X004634Y007311D01*
X004614Y007470D02*
X005295Y007470D01*
X005402Y007628D02*
X004614Y007628D01*
X005806Y007945D02*
X005866Y007945D01*
X006321Y008569D02*
X006321Y008569D01*
X006321Y008847D01*
X006691Y008847D01*
X006796Y008742D01*
X006796Y008569D01*
X006321Y008569D01*
X006321Y008580D02*
X006321Y008580D01*
X006321Y008738D02*
X006321Y008738D01*
X006762Y008897D02*
X005349Y008897D01*
X005507Y008738D02*
X005846Y008738D01*
X005190Y009055D02*
X006751Y009055D01*
X006751Y009214D02*
X005164Y009214D01*
X005164Y009372D02*
X006751Y009372D01*
X007029Y009372D02*
X007030Y009372D01*
X007029Y009214D02*
X007030Y009214D01*
X007029Y009055D02*
X007030Y009055D01*
X007029Y008897D02*
X007030Y008897D01*
X006796Y008738D02*
X009344Y008738D01*
X009243Y008580D02*
X008787Y008580D01*
X008942Y008421D02*
X009085Y008421D01*
X008422Y008580D02*
X006796Y008580D01*
X006751Y009531D02*
X005164Y009531D01*
X005164Y009689D02*
X006794Y009689D01*
X007029Y009689D02*
X007030Y009689D01*
X007029Y009531D02*
X007030Y009531D01*
X007948Y009848D02*
X005164Y009848D01*
X005164Y010006D02*
X007948Y010006D01*
X007948Y010165D02*
X005164Y010165D01*
X005164Y010324D02*
X007948Y010324D01*
X007933Y010482D02*
X005164Y010482D01*
X005164Y010641D02*
X007928Y010641D01*
X007928Y010799D02*
X005164Y010799D01*
X005164Y010958D02*
X007928Y010958D01*
X007974Y011116D02*
X005164Y011116D01*
X005164Y011275D02*
X010844Y011275D01*
X010844Y011433D02*
X005164Y011433D01*
X005053Y011592D02*
X010844Y011592D01*
X010844Y011750D02*
X010388Y011750D01*
X010536Y011909D02*
X010695Y011909D01*
X010629Y012068D02*
X010602Y012068D01*
X010604Y012226D02*
X010624Y012226D01*
X011336Y011750D02*
X012918Y011750D01*
X012847Y011592D02*
X011264Y011592D01*
X011264Y011433D02*
X012797Y011433D01*
X012638Y011275D02*
X011264Y011275D01*
X011264Y011116D02*
X012480Y011116D01*
X012344Y010958D02*
X011165Y010958D01*
X011007Y010799D02*
X012344Y010799D01*
X012344Y010641D02*
X010848Y010641D01*
X010690Y010482D02*
X012344Y010482D01*
X012344Y010324D02*
X010531Y010324D01*
X010414Y010165D02*
X011243Y010165D01*
X011280Y010203D02*
X011088Y010010D01*
X011341Y009757D01*
X011608Y010024D01*
X011430Y010203D01*
X011280Y010203D01*
X011467Y010165D02*
X012344Y010165D01*
X012344Y010006D02*
X011591Y010006D01*
X011485Y009848D02*
X011432Y009848D01*
G36*
X011633Y009743D02*
X011328Y009438D01*
X011049Y009717D01*
X011354Y010022D01*
X011633Y009743D01*
G37*
X011784Y009848D02*
X012344Y009848D01*
X012344Y009689D02*
X011813Y009689D01*
X011674Y009531D02*
X012344Y009531D01*
X012344Y009372D02*
X011516Y009372D01*
X011672Y009214D02*
X012344Y009214D01*
X012344Y009055D02*
X011770Y009055D01*
X011784Y008897D02*
X012344Y008897D01*
X012344Y008738D02*
X011731Y008738D01*
X011587Y008580D02*
X012344Y008580D01*
X012344Y008421D02*
X011429Y008421D01*
X011983Y008262D02*
X012344Y008262D01*
X012230Y008104D02*
X012141Y008104D01*
X012764Y008262D02*
X012902Y008262D01*
X012909Y008246D02*
X013032Y008123D01*
X013193Y008056D01*
X013367Y008056D01*
X013527Y008123D01*
X013651Y008246D01*
X013717Y008407D01*
X013717Y008581D01*
X013651Y008742D01*
X013527Y008865D01*
X013367Y008931D01*
X013193Y008931D01*
X013032Y008865D01*
X012909Y008742D01*
X012842Y008581D01*
X012842Y008407D01*
X012909Y008246D01*
X012879Y008104D02*
X013078Y008104D01*
X012934Y007945D02*
X013944Y007945D01*
X013944Y007787D02*
X013605Y007787D01*
X013697Y007628D02*
X013944Y007628D01*
X013944Y007470D02*
X013717Y007470D01*
X013824Y007311D02*
X013944Y007311D01*
X013944Y008104D02*
X013481Y008104D01*
X013657Y008262D02*
X013944Y008262D01*
X013944Y008421D02*
X013717Y008421D01*
X013717Y008580D02*
X013944Y008580D01*
X013944Y008738D02*
X013652Y008738D01*
X013450Y008897D02*
X013944Y008897D01*
X013944Y009055D02*
X012764Y009055D01*
X012764Y008897D02*
X013109Y008897D01*
X013193Y009056D02*
X013367Y009056D01*
X013527Y009123D01*
X013651Y009246D01*
X013717Y009407D01*
X013717Y009581D01*
X013651Y009742D01*
X013527Y009865D01*
X013367Y009931D01*
X013193Y009931D01*
X013032Y009865D01*
X012909Y009742D01*
X012842Y009581D01*
X012842Y009407D01*
X012909Y009246D01*
X013032Y009123D01*
X013193Y009056D01*
X012941Y009214D02*
X012764Y009214D01*
X012764Y009372D02*
X012856Y009372D01*
X012842Y009531D02*
X012764Y009531D01*
X012764Y009689D02*
X012887Y009689D01*
X012764Y009848D02*
X013015Y009848D01*
X013193Y010056D02*
X013367Y010056D01*
X013527Y010123D01*
X013651Y010246D01*
X013717Y010407D01*
X013717Y010581D01*
X013651Y010742D01*
X013527Y010865D01*
X013367Y010931D01*
X013193Y010931D01*
X013032Y010865D01*
X012909Y010742D01*
X012842Y010581D01*
X012842Y010407D01*
X012909Y010246D01*
X013032Y010123D01*
X013193Y010056D01*
X012990Y010165D02*
X012764Y010165D01*
X012764Y010006D02*
X013944Y010006D01*
X013944Y009848D02*
X013544Y009848D01*
X013672Y009689D02*
X013944Y009689D01*
X013944Y009531D02*
X013717Y009531D01*
X013703Y009372D02*
X013944Y009372D01*
X013944Y009214D02*
X013618Y009214D01*
X012907Y008738D02*
X012764Y008738D01*
X012764Y008580D02*
X012842Y008580D01*
X012842Y008421D02*
X012764Y008421D01*
X012921Y007787D02*
X012954Y007787D01*
X012862Y007628D02*
X012826Y007628D01*
X012842Y007470D02*
X012776Y007470D01*
G36*
X011160Y009270D02*
X010855Y008965D01*
X010576Y009244D01*
X010881Y009549D01*
X011160Y009270D01*
G37*
X011515Y009531D02*
X011567Y009531D01*
X011408Y009689D02*
X011356Y009689D01*
X011250Y009848D02*
X011197Y009848D01*
X011091Y010006D02*
X010414Y010006D01*
X010414Y009848D02*
X010926Y009848D01*
X010795Y009689D02*
X010414Y009689D01*
X010438Y009531D02*
X010637Y009531D01*
X010254Y010641D02*
X008681Y010641D01*
X008681Y010797D02*
X008681Y011070D01*
X008576Y011175D01*
X008323Y011175D01*
X008323Y010797D01*
X008681Y010797D01*
X008681Y010799D02*
X010413Y010799D01*
X010571Y010958D02*
X008681Y010958D01*
X008635Y011116D02*
X010730Y011116D01*
X011514Y011909D02*
X013139Y011909D01*
X013166Y012068D02*
X011580Y012068D01*
X011584Y012226D02*
X012929Y012226D01*
X012851Y012385D02*
X011584Y012385D01*
X011584Y012543D02*
X012842Y012543D01*
X012892Y012702D02*
X011584Y012702D01*
X011584Y012860D02*
X013027Y012860D01*
X013631Y012226D02*
X013875Y012226D01*
X013944Y012068D02*
X013394Y012068D01*
X013421Y011909D02*
X013944Y011909D01*
X013944Y011750D02*
X013642Y011750D01*
X013713Y011592D02*
X013944Y011592D01*
X013944Y011433D02*
X013717Y011433D01*
X013662Y011275D02*
X013944Y011275D01*
X013944Y011116D02*
X013511Y011116D01*
X013593Y010799D02*
X013944Y010799D01*
X013944Y010641D02*
X013692Y010641D01*
X013717Y010482D02*
X013944Y010482D01*
X013944Y010324D02*
X013683Y010324D01*
X013569Y010165D02*
X013944Y010165D01*
X013944Y010958D02*
X012915Y010958D01*
X012966Y010799D02*
X012764Y010799D01*
X012764Y010641D02*
X012867Y010641D01*
X012842Y010482D02*
X012764Y010482D01*
X012764Y010324D02*
X012877Y010324D01*
X009673Y011909D02*
X009536Y011909D01*
X009602Y012068D02*
X009607Y012068D01*
X009604Y012226D02*
X009604Y012226D01*
X009604Y012385D02*
X009604Y012385D01*
X009604Y012543D02*
X009604Y012543D01*
X009604Y012702D02*
X009604Y012702D01*
X009604Y012860D02*
X009604Y012860D01*
X009561Y013019D02*
X009648Y013019D01*
X009124Y012385D02*
X009084Y012385D01*
X009084Y012226D02*
X009124Y012226D01*
X009124Y012068D02*
X009084Y012068D01*
X009084Y011909D02*
X009124Y011909D01*
X008673Y011909D02*
X008536Y011909D01*
X008602Y012068D02*
X008607Y012068D01*
X008604Y012226D02*
X008604Y012226D01*
X008604Y012385D02*
X008604Y012385D01*
X008604Y012543D02*
X008604Y012543D01*
X008604Y012702D02*
X008604Y012702D01*
X008604Y012860D02*
X008604Y012860D01*
X008561Y013019D02*
X008648Y013019D01*
X008124Y012385D02*
X008084Y012385D01*
X008084Y012226D02*
X008124Y012226D01*
X008124Y012068D02*
X008084Y012068D01*
X008084Y011909D02*
X008124Y011909D01*
X007673Y011909D02*
X007536Y011909D01*
X007602Y012068D02*
X007607Y012068D01*
X007604Y012226D02*
X007604Y012226D01*
X007604Y012385D02*
X007604Y012385D01*
X007604Y012543D02*
X007604Y012543D01*
X007604Y012702D02*
X007604Y012702D01*
X007604Y012860D02*
X007604Y012860D01*
X007561Y013019D02*
X007648Y013019D01*
X006604Y012226D02*
X006604Y012226D01*
X006602Y012068D02*
X006607Y012068D01*
X006673Y011909D02*
X006536Y011909D01*
X006388Y011750D02*
X006821Y011750D01*
X008286Y011116D02*
X008323Y011116D01*
X008323Y010958D02*
X008286Y010958D01*
X008286Y010799D02*
X008323Y010799D01*
X008676Y010482D02*
X008996Y010482D01*
X008837Y010324D02*
X008661Y010324D01*
X004744Y011116D02*
X004086Y011116D01*
X004237Y011275D02*
X004744Y011275D01*
X004618Y011433D02*
X004292Y011433D01*
X004287Y011592D02*
X004459Y011592D01*
X004301Y011750D02*
X004217Y011750D01*
X004142Y011909D02*
X003995Y011909D01*
X003984Y012068D02*
X003968Y012068D01*
M02*
