G75*
G70*
%OFA0B0*%
%FSLAX24Y24*%
%IPPOS*%
%LPD*%
%AMOC8*
5,1,8,0,0,1.08239X$1,22.5*
%
%ADD10C,0.0050*%
%ADD11C,0.0100*%
%ADD12C,0.0080*%
%ADD13C,0.0060*%
D10*
X002280Y000683D02*
X002280Y013281D01*
X014878Y013281D01*
X014878Y000683D01*
X002280Y000683D01*
D11*
X006919Y008569D02*
X006952Y008647D01*
X007030Y008680D01*
X007108Y008647D01*
X007141Y008569D01*
X007108Y008491D01*
X007030Y008458D01*
X006952Y008491D01*
X006919Y008569D01*
D12*
X006715Y008726D02*
X006715Y005262D01*
X006872Y005104D01*
X010337Y005104D01*
X010494Y005262D01*
X010494Y008726D01*
X010337Y008884D01*
X006872Y008884D01*
X006715Y008726D01*
D13*
X006854Y011994D02*
X006604Y012244D01*
X006354Y011994D01*
X005854Y011994D01*
X005604Y012244D01*
X005604Y012744D01*
X005854Y012994D01*
X006354Y012994D01*
X006604Y012744D01*
X006854Y012994D01*
X007354Y012994D01*
X007604Y012744D01*
X007604Y012244D01*
X007354Y011994D01*
X006854Y011994D01*
X006604Y012244D02*
X006604Y012744D01*
X007604Y012744D02*
X007854Y012994D01*
X008354Y012994D01*
X008604Y012744D01*
X008854Y012994D01*
X009354Y012994D01*
X009604Y012744D01*
X009854Y012994D01*
X010354Y012994D01*
X010604Y012744D01*
X010854Y012994D01*
X011354Y012994D01*
X011604Y012744D01*
X011604Y012244D01*
X011354Y011994D01*
X010854Y011994D01*
X010604Y012244D01*
X010354Y011994D01*
X009854Y011994D01*
X009604Y012244D01*
X009354Y011994D01*
X008854Y011994D01*
X008604Y012244D01*
X008354Y011994D01*
X007854Y011994D01*
X007604Y012244D01*
X008604Y012244D02*
X008604Y012744D01*
X009604Y012744D02*
X009604Y012244D01*
X010604Y012244D02*
X010604Y012744D01*
X010354Y001994D02*
X009854Y001994D01*
X009604Y001744D01*
X009604Y001244D01*
X009854Y000994D01*
X010354Y000994D01*
X010604Y001244D01*
X010604Y001744D01*
X010354Y001994D01*
X010604Y001744D02*
X010854Y001994D01*
X011354Y001994D01*
X011604Y001744D01*
X011604Y001244D01*
X011354Y000994D01*
X010854Y000994D01*
X010604Y001244D01*
X009604Y001244D02*
X009354Y000994D01*
X008854Y000994D01*
X008604Y001244D01*
X008354Y000994D01*
X007854Y000994D01*
X007604Y001244D01*
X007354Y000994D01*
X006854Y000994D01*
X006604Y001244D01*
X006354Y000994D01*
X005854Y000994D01*
X005604Y001244D01*
X005604Y001744D01*
X005854Y001994D01*
X006354Y001994D01*
X006604Y001744D01*
X006854Y001994D01*
X007354Y001994D01*
X007604Y001744D01*
X007854Y001994D01*
X008354Y001994D01*
X008604Y001744D01*
X008854Y001994D01*
X009354Y001994D01*
X009604Y001744D01*
X008604Y001744D02*
X008604Y001244D01*
X007604Y001244D02*
X007604Y001744D01*
X006604Y001744D02*
X006604Y001244D01*
M02*
