G75*
G70*
%OFA0B0*%
%FSLAX24Y24*%
%IPPOS*%
%LPD*%
%AMOC8*
5,1,8,0,0,1.08239X$1,22.5*
%
%ADD10C,0.0555*%
%ADD11C,0.0640*%
%ADD12C,0.0100*%
%ADD13C,0.0440*%
%ADD14C,0.0436*%
%ADD15C,0.0160*%
D10*
X003854Y001494D03*
X003854Y002494D03*
X003854Y003494D03*
X003854Y004494D03*
X003854Y005494D03*
X003854Y006494D03*
X003854Y007494D03*
X003854Y008494D03*
X003854Y009494D03*
X003854Y010494D03*
X003854Y011494D03*
X003854Y012494D03*
X013280Y012494D03*
X013280Y011494D03*
X013280Y010494D03*
X013280Y009494D03*
X013280Y008494D03*
X013280Y007494D03*
X013280Y006494D03*
X013280Y005494D03*
X013280Y004494D03*
X013280Y003494D03*
X013280Y002494D03*
X013280Y001494D03*
D11*
X011104Y001814D02*
X011104Y001174D01*
X010104Y001174D02*
X010104Y001814D01*
X009104Y001814D02*
X009104Y001174D01*
X008104Y001174D02*
X008104Y001814D01*
X007104Y001814D02*
X007104Y001174D01*
X006104Y001174D02*
X006104Y001814D01*
X006104Y012174D02*
X006104Y012814D01*
X007104Y012814D02*
X007104Y012174D01*
X008104Y012174D02*
X008104Y012814D01*
X009104Y012814D02*
X009104Y012174D01*
X010104Y012174D02*
X010104Y012814D01*
X011104Y012814D02*
X011104Y012174D01*
D12*
X008804Y011494D02*
X003854Y011494D01*
X003154Y009494D02*
X003604Y009044D01*
X008404Y009044D01*
X009254Y009894D01*
X009854Y009894D02*
X008654Y008694D01*
X004054Y008694D01*
X003854Y008494D01*
X005654Y008294D02*
X006554Y007394D01*
X008754Y007394D01*
X008854Y007344D01*
X008954Y006894D02*
X009354Y007294D01*
X010854Y007294D01*
X011254Y006894D01*
X011604Y006494D01*
X012104Y006494D01*
X012604Y006994D01*
X013604Y006994D01*
X013154Y006644D02*
X013304Y006494D01*
X013280Y006494D01*
X013154Y006644D02*
X012604Y006644D01*
X012154Y006194D01*
X011504Y006194D01*
X010754Y006944D01*
X009604Y006944D01*
X008954Y006894D02*
X007454Y006894D01*
X007354Y006994D01*
X007654Y006494D02*
X003854Y006494D01*
X003354Y006944D02*
X002954Y006544D01*
X002954Y002394D01*
X003354Y001994D01*
X004854Y001994D01*
X005354Y002494D01*
X011354Y002494D01*
X012404Y001494D01*
X013280Y001494D01*
X012554Y003094D02*
X011654Y003094D01*
X009454Y005344D01*
X009254Y005694D02*
X008054Y004494D01*
X005754Y004494D01*
X004304Y003044D01*
X003404Y003044D01*
X003854Y003494D02*
X004454Y003494D01*
X005654Y004694D01*
X007654Y004694D01*
X008354Y005394D01*
X008204Y005944D02*
X007654Y006494D01*
X007104Y006144D02*
X006454Y005494D01*
X003854Y005494D01*
X003354Y006944D02*
X005304Y006944D01*
X005654Y007344D01*
X007704Y007844D02*
X010654Y007844D01*
X011704Y006794D01*
X012104Y006794D01*
X012804Y007494D01*
X013280Y007494D01*
X012554Y007844D02*
X012554Y007894D01*
X012554Y007844D02*
X011904Y007194D01*
X011554Y007594D02*
X012404Y008494D01*
X013280Y008494D01*
X013280Y009494D02*
X013854Y009494D01*
X013954Y009394D01*
X013954Y006194D01*
X013704Y005944D01*
X013054Y005944D01*
X012554Y005444D01*
X012354Y005844D02*
X012154Y005844D01*
X012354Y005844D02*
X012754Y006244D01*
X011554Y005394D02*
X011254Y005694D01*
X009254Y005694D01*
X009904Y005944D02*
X008204Y005944D01*
X008454Y006344D02*
X009604Y006344D01*
X009904Y005944D02*
X010254Y006294D01*
X010254Y005344D02*
X010254Y004944D01*
X011754Y003494D01*
X013280Y003494D01*
X008454Y006344D02*
X008304Y006494D01*
X008604Y008244D02*
X008854Y008494D01*
X011454Y008494D01*
X013254Y010294D01*
X013254Y010444D01*
X013280Y010494D01*
X011404Y008944D02*
X008804Y011494D01*
D13*
X009254Y009894D03*
X009854Y009894D03*
X011404Y008944D03*
X012554Y007894D03*
X011904Y007194D03*
X011554Y007594D03*
X012754Y006244D03*
X012154Y005844D03*
X012554Y005444D03*
X011554Y005394D03*
X010254Y005344D03*
X009454Y005344D03*
X008354Y005394D03*
X007104Y006144D03*
X007354Y006994D03*
X008304Y006494D03*
X008854Y007344D03*
X008604Y008244D03*
X007704Y007844D03*
X009604Y006344D03*
X005654Y007344D03*
X005654Y008294D03*
X003154Y009494D03*
X003404Y003044D03*
X012554Y003094D03*
X013604Y006994D03*
D14*
X010254Y006294D03*
X009604Y006944D03*
X007554Y005594D03*
X005854Y003494D03*
X010354Y003394D03*
X011854Y003994D03*
X006104Y010494D03*
X003104Y010994D03*
X011604Y010994D03*
D15*
X002354Y013062D02*
X002354Y000926D01*
X005688Y000926D01*
X005624Y001078D01*
X005624Y001909D01*
X005698Y002086D01*
X005833Y002221D01*
X005985Y002284D01*
X005441Y002284D01*
X004941Y001784D01*
X004767Y001784D01*
X004183Y001784D01*
X004225Y001742D01*
X004292Y001581D01*
X004292Y001407D01*
X004225Y001246D01*
X004102Y001123D01*
X003941Y001056D01*
X003767Y001056D01*
X003607Y001123D01*
X003484Y001246D01*
X003417Y001407D01*
X003417Y001581D01*
X003484Y001742D01*
X003526Y001784D01*
X003267Y001784D01*
X003144Y001907D01*
X002744Y002307D01*
X002744Y002481D01*
X002744Y006631D01*
X002867Y006754D01*
X003267Y007154D01*
X003441Y007154D01*
X003576Y007154D01*
X003484Y007246D01*
X003417Y007407D01*
X003417Y007581D01*
X003484Y007742D01*
X003607Y007865D01*
X003767Y007931D01*
X003941Y007931D01*
X004102Y007865D01*
X004225Y007742D01*
X004292Y007581D01*
X004292Y007407D01*
X004225Y007246D01*
X004133Y007154D01*
X005209Y007154D01*
X005286Y007241D01*
X005274Y007268D01*
X005274Y007419D01*
X005332Y007559D01*
X005439Y007666D01*
X005579Y007724D01*
X005730Y007724D01*
X005870Y007666D01*
X005977Y007559D01*
X006034Y007419D01*
X006034Y007268D01*
X005977Y007129D01*
X005870Y007022D01*
X005730Y006964D01*
X005601Y006964D01*
X005514Y006865D01*
X005514Y006857D01*
X005458Y006800D01*
X005405Y006740D01*
X005397Y006740D01*
X005391Y006734D01*
X005311Y006734D01*
X005232Y006729D01*
X005226Y006734D01*
X004229Y006734D01*
X004241Y006704D01*
X007107Y006704D01*
X007032Y006779D01*
X006974Y006918D01*
X006974Y007069D01*
X007022Y007184D01*
X006641Y007184D01*
X006467Y007184D01*
X005735Y007916D01*
X005730Y007914D01*
X005579Y007914D01*
X005439Y007972D01*
X005332Y008079D01*
X005274Y008218D01*
X005274Y008369D01*
X005322Y008484D01*
X004292Y008484D01*
X004292Y008407D01*
X004225Y008246D01*
X004102Y008123D01*
X003941Y008056D01*
X003767Y008056D01*
X003607Y008123D01*
X003484Y008246D01*
X003417Y008407D01*
X003417Y008581D01*
X003484Y008742D01*
X003576Y008834D01*
X003517Y008834D01*
X003394Y008957D01*
X003235Y009116D01*
X003230Y009114D01*
X003079Y009114D01*
X002939Y009172D01*
X002832Y009279D01*
X002774Y009418D01*
X002774Y009569D01*
X002832Y009709D01*
X002939Y009816D01*
X003079Y009874D01*
X003230Y009874D01*
X003370Y009816D01*
X003472Y009714D01*
X003484Y009742D01*
X003607Y009865D01*
X003767Y009931D01*
X003941Y009931D01*
X004102Y009865D01*
X004225Y009742D01*
X004292Y009581D01*
X004292Y009407D01*
X004229Y009254D01*
X008317Y009254D01*
X008877Y009813D01*
X008874Y009818D01*
X008874Y009969D01*
X008932Y010109D01*
X009039Y010216D01*
X009179Y010274D01*
X009330Y010274D01*
X009470Y010216D01*
X009554Y010131D01*
X009639Y010216D01*
X009758Y010265D01*
X008719Y011284D01*
X004241Y011284D01*
X004225Y011246D01*
X004102Y011123D01*
X003941Y011056D01*
X003767Y011056D01*
X003607Y011123D01*
X003484Y011246D01*
X003417Y011407D01*
X003417Y011581D01*
X003484Y011742D01*
X003607Y011865D01*
X003767Y011931D01*
X003941Y011931D01*
X004102Y011865D01*
X004225Y011742D01*
X004241Y011704D01*
X005933Y011704D01*
X005821Y011750D01*
X005681Y011891D01*
X005604Y012074D01*
X005604Y012474D01*
X006084Y012474D01*
X006084Y012514D01*
X005604Y012514D01*
X005604Y012913D01*
X005666Y013062D01*
X002354Y013062D01*
X002354Y013019D02*
X005648Y013019D01*
X005604Y012860D02*
X004107Y012860D01*
X004102Y012865D02*
X003941Y012931D01*
X003767Y012931D01*
X003607Y012865D01*
X003484Y012742D01*
X003417Y012581D01*
X003417Y012407D01*
X003484Y012246D01*
X003607Y012123D01*
X003767Y012056D01*
X003941Y012056D01*
X004102Y012123D01*
X004225Y012246D01*
X004292Y012407D01*
X004292Y012581D01*
X004225Y012742D01*
X004102Y012865D01*
X004242Y012702D02*
X005604Y012702D01*
X005604Y012543D02*
X004292Y012543D01*
X004283Y012385D02*
X005604Y012385D01*
X005604Y012226D02*
X004205Y012226D01*
X003968Y012068D02*
X005607Y012068D01*
X005673Y011909D02*
X003995Y011909D01*
X004217Y011750D02*
X005821Y011750D01*
X006276Y011704D02*
X006388Y011750D01*
X006528Y011891D01*
X006604Y012074D01*
X006604Y012474D01*
X006125Y012474D01*
X006125Y012514D01*
X006604Y012514D01*
X006604Y012913D01*
X006543Y013062D01*
X006666Y013062D01*
X006604Y012913D01*
X006604Y012514D01*
X007084Y012514D01*
X007084Y012474D01*
X006604Y012474D01*
X006604Y012074D01*
X006681Y011891D01*
X006821Y011750D01*
X006933Y011704D01*
X006276Y011704D01*
X006388Y011750D02*
X006821Y011750D01*
X006673Y011909D02*
X006536Y011909D01*
X006602Y012068D02*
X006607Y012068D01*
X006604Y012226D02*
X006604Y012226D01*
X006604Y012385D02*
X006604Y012385D01*
X006604Y012543D02*
X006604Y012543D01*
X006604Y012702D02*
X006604Y012702D01*
X006604Y012860D02*
X006604Y012860D01*
X006561Y013019D02*
X006648Y013019D01*
X007125Y012514D02*
X007604Y012514D01*
X007604Y012913D01*
X007543Y013062D01*
X007666Y013062D01*
X007604Y012913D01*
X007604Y012514D01*
X008084Y012514D01*
X008084Y012474D01*
X007604Y012474D01*
X007125Y012474D01*
X007125Y012514D01*
X007604Y012543D02*
X007604Y012543D01*
X007604Y012474D02*
X007604Y012074D01*
X007604Y012474D01*
X007604Y012385D02*
X007604Y012385D01*
X007604Y012226D02*
X007604Y012226D01*
X007604Y012074D02*
X007681Y011891D01*
X007821Y011750D01*
X007933Y011704D01*
X007276Y011704D01*
X007388Y011750D01*
X007528Y011891D01*
X007604Y012074D01*
X007602Y012068D02*
X007607Y012068D01*
X007673Y011909D02*
X007536Y011909D01*
X007388Y011750D02*
X007821Y011750D01*
X008276Y011704D02*
X008388Y011750D01*
X008528Y011891D01*
X008604Y012074D01*
X008604Y012474D01*
X008125Y012474D01*
X008125Y012514D01*
X008604Y012514D01*
X008604Y012913D01*
X008543Y013062D01*
X008666Y013062D01*
X008604Y012913D01*
X008604Y012514D01*
X009084Y012514D01*
X009084Y012474D01*
X008604Y012474D01*
X008604Y012074D01*
X008681Y011891D01*
X008821Y011750D01*
X009005Y011674D01*
X009084Y011674D01*
X009084Y012474D01*
X009124Y012474D01*
X009124Y011674D01*
X009204Y011674D01*
X009388Y011750D01*
X009528Y011891D01*
X009604Y012074D01*
X009604Y012474D01*
X009125Y012474D01*
X009125Y012514D01*
X009604Y012514D01*
X009604Y012913D01*
X009543Y013062D01*
X009666Y013062D01*
X009604Y012913D01*
X009604Y012514D01*
X010084Y012514D01*
X010084Y012474D01*
X009604Y012474D01*
X009604Y012074D01*
X009681Y011891D01*
X009821Y011750D01*
X010005Y011674D01*
X010084Y011674D01*
X010084Y012474D01*
X010124Y012474D01*
X010124Y011674D01*
X010204Y011674D01*
X010388Y011750D01*
X010528Y011891D01*
X010604Y012074D01*
X010604Y012474D01*
X010125Y012474D01*
X010125Y012514D01*
X010604Y012514D01*
X010604Y012913D01*
X010543Y013062D01*
X010688Y013062D01*
X010624Y012909D01*
X010624Y012078D01*
X010698Y011902D01*
X010833Y011767D01*
X011009Y011694D01*
X011200Y011694D01*
X011376Y011767D01*
X011511Y011902D01*
X011584Y012078D01*
X011584Y012909D01*
X011521Y013062D01*
X014854Y013062D01*
X014854Y000926D01*
X011521Y000926D01*
X011584Y001078D01*
X011584Y001909D01*
X011533Y002034D01*
X012257Y001344D01*
X012317Y001284D01*
X012321Y001284D01*
X012323Y001282D01*
X012407Y001284D01*
X012893Y001284D01*
X012909Y001246D01*
X013032Y001123D01*
X013193Y001056D01*
X013367Y001056D01*
X013527Y001123D01*
X013651Y001246D01*
X013717Y001407D01*
X013717Y001581D01*
X013651Y001742D01*
X013527Y001865D01*
X013367Y001931D01*
X013193Y001931D01*
X013032Y001865D01*
X012909Y001742D01*
X012893Y001704D01*
X012488Y001704D01*
X011502Y002644D01*
X011441Y002704D01*
X011438Y002704D01*
X011436Y002706D01*
X011352Y002704D01*
X005267Y002704D01*
X005144Y002581D01*
X004767Y002204D01*
X004183Y002204D01*
X004225Y002246D01*
X004292Y002407D01*
X004292Y002581D01*
X004225Y002742D01*
X004133Y002834D01*
X004391Y002834D01*
X004514Y002957D01*
X005841Y004284D01*
X008141Y004284D01*
X008264Y004407D01*
X009090Y005232D01*
X009132Y005129D01*
X009239Y005022D01*
X009379Y004964D01*
X009530Y004964D01*
X009532Y004965D01*
X011444Y003008D01*
X011444Y003007D01*
X011505Y002947D01*
X011565Y002885D01*
X011567Y002885D01*
X011567Y002884D01*
X011654Y002884D01*
X011739Y002883D01*
X011740Y002884D01*
X012230Y002884D01*
X012232Y002879D01*
X012339Y002772D01*
X012479Y002714D01*
X012630Y002714D01*
X012770Y002772D01*
X012877Y002879D01*
X012934Y003018D01*
X012934Y003169D01*
X012887Y003284D01*
X012893Y003284D01*
X012909Y003246D01*
X013032Y003123D01*
X013193Y003056D01*
X013367Y003056D01*
X013527Y003123D01*
X013651Y003246D01*
X013717Y003407D01*
X013717Y003581D01*
X013651Y003742D01*
X013527Y003865D01*
X013367Y003931D01*
X013193Y003931D01*
X013032Y003865D01*
X012909Y003742D01*
X012893Y003704D01*
X011839Y003704D01*
X010473Y005025D01*
X010577Y005129D01*
X010634Y005268D01*
X010634Y005419D01*
X010608Y005484D01*
X011167Y005484D01*
X011177Y005475D01*
X011174Y005469D01*
X011174Y005318D01*
X011232Y005179D01*
X011339Y005072D01*
X011479Y005014D01*
X011630Y005014D01*
X011770Y005072D01*
X011877Y005179D01*
X011934Y005318D01*
X011934Y005469D01*
X011894Y005567D01*
X011939Y005522D01*
X012079Y005464D01*
X012174Y005464D01*
X012174Y005368D01*
X012232Y005229D01*
X012339Y005122D01*
X012479Y005064D01*
X012630Y005064D01*
X012770Y005122D01*
X012877Y005229D01*
X012896Y005276D01*
X012909Y005246D01*
X013032Y005123D01*
X013193Y005056D01*
X013367Y005056D01*
X013527Y005123D01*
X013651Y005246D01*
X013717Y005407D01*
X013717Y005581D01*
X013654Y005734D01*
X013791Y005734D01*
X014041Y005984D01*
X014164Y006107D01*
X014164Y009307D01*
X014164Y009481D01*
X014064Y009581D01*
X013941Y009704D01*
X013666Y009704D01*
X013651Y009742D01*
X013527Y009865D01*
X013367Y009931D01*
X013193Y009931D01*
X013186Y009929D01*
X013314Y010056D01*
X013367Y010056D01*
X013527Y010123D01*
X013651Y010246D01*
X013717Y010407D01*
X013717Y010581D01*
X013651Y010742D01*
X013527Y010865D01*
X013367Y010931D01*
X013193Y010931D01*
X013032Y010865D01*
X012909Y010742D01*
X012842Y010581D01*
X012842Y010407D01*
X012909Y010246D01*
X012909Y010246D01*
X011755Y009091D01*
X011727Y009159D01*
X011620Y009266D01*
X011480Y009324D01*
X011329Y009324D01*
X011320Y009320D01*
X008953Y011642D01*
X008891Y011704D01*
X008890Y011704D01*
X008889Y011705D01*
X008804Y011704D01*
X008276Y011704D01*
X008388Y011750D02*
X008821Y011750D01*
X009004Y011592D02*
X012847Y011592D01*
X012842Y011581D02*
X012842Y011407D01*
X012909Y011246D01*
X013032Y011123D01*
X013193Y011056D01*
X013367Y011056D01*
X013527Y011123D01*
X013651Y011246D01*
X013717Y011407D01*
X013717Y011581D01*
X013651Y011742D01*
X013527Y011865D01*
X013367Y011931D01*
X013193Y011931D01*
X013032Y011865D01*
X012909Y011742D01*
X012842Y011581D01*
X012842Y011433D02*
X009166Y011433D01*
X009328Y011275D02*
X012897Y011275D01*
X013048Y011116D02*
X009489Y011116D01*
X009651Y010958D02*
X014854Y010958D01*
X014854Y011116D02*
X013511Y011116D01*
X013662Y011275D02*
X014854Y011275D01*
X014854Y011433D02*
X013717Y011433D01*
X013713Y011592D02*
X014854Y011592D01*
X014854Y011750D02*
X013642Y011750D01*
X013421Y011909D02*
X014854Y011909D01*
X014854Y012068D02*
X013394Y012068D01*
X013367Y012056D02*
X013527Y012123D01*
X013651Y012246D01*
X013717Y012407D01*
X013717Y012581D01*
X013651Y012742D01*
X013527Y012865D01*
X013367Y012931D01*
X013193Y012931D01*
X013032Y012865D01*
X012909Y012742D01*
X012842Y012581D01*
X012842Y012407D01*
X012909Y012246D01*
X013032Y012123D01*
X013193Y012056D01*
X013367Y012056D01*
X013166Y012068D02*
X011580Y012068D01*
X011584Y012226D02*
X012929Y012226D01*
X012851Y012385D02*
X011584Y012385D01*
X011584Y012543D02*
X012842Y012543D01*
X012892Y012702D02*
X011584Y012702D01*
X011584Y012860D02*
X013027Y012860D01*
X013532Y012860D02*
X014854Y012860D01*
X014854Y012702D02*
X013667Y012702D01*
X013717Y012543D02*
X014854Y012543D01*
X014854Y012385D02*
X013708Y012385D01*
X013631Y012226D02*
X014854Y012226D01*
X014854Y013019D02*
X011539Y013019D01*
X010670Y013019D02*
X010561Y013019D01*
X010604Y012860D02*
X010624Y012860D01*
X010624Y012702D02*
X010604Y012702D01*
X010604Y012543D02*
X010624Y012543D01*
X010624Y012385D02*
X010604Y012385D01*
X010604Y012226D02*
X010624Y012226D01*
X010629Y012068D02*
X010602Y012068D01*
X010536Y011909D02*
X010695Y011909D01*
X010872Y011750D02*
X010388Y011750D01*
X010124Y011750D02*
X010084Y011750D01*
X009821Y011750D02*
X009388Y011750D01*
X009124Y011750D02*
X009084Y011750D01*
X009084Y011909D02*
X009124Y011909D01*
X009124Y012068D02*
X009084Y012068D01*
X009084Y012226D02*
X009124Y012226D01*
X009124Y012385D02*
X009084Y012385D01*
X008607Y012068D02*
X008602Y012068D01*
X008604Y012226D02*
X008604Y012226D01*
X008604Y012385D02*
X008604Y012385D01*
X008604Y012543D02*
X008604Y012543D01*
X008604Y012702D02*
X008604Y012702D01*
X008604Y012860D02*
X008604Y012860D01*
X008561Y013019D02*
X008648Y013019D01*
X009561Y013019D02*
X009648Y013019D01*
X009604Y012860D02*
X009604Y012860D01*
X009604Y012702D02*
X009604Y012702D01*
X009604Y012543D02*
X009604Y012543D01*
X009604Y012385D02*
X009604Y012385D01*
X009604Y012226D02*
X009604Y012226D01*
X009602Y012068D02*
X009607Y012068D01*
X009673Y011909D02*
X009536Y011909D01*
X010084Y011909D02*
X010124Y011909D01*
X010124Y012068D02*
X010084Y012068D01*
X010084Y012226D02*
X010124Y012226D01*
X010124Y012385D02*
X010084Y012385D01*
X011337Y011750D02*
X012918Y011750D01*
X013139Y011909D02*
X011514Y011909D01*
X012966Y010799D02*
X009813Y010799D01*
X009974Y010641D02*
X012867Y010641D01*
X012842Y010482D02*
X010136Y010482D01*
X010298Y010324D02*
X012877Y010324D01*
X012829Y010165D02*
X010459Y010165D01*
X010621Y010006D02*
X012670Y010006D01*
X012512Y009848D02*
X010783Y009848D01*
X010944Y009689D02*
X012353Y009689D01*
X012195Y009531D02*
X011106Y009531D01*
X011268Y009372D02*
X012036Y009372D01*
X011877Y009214D02*
X011672Y009214D01*
X013264Y010006D02*
X014854Y010006D01*
X014854Y009848D02*
X013544Y009848D01*
X013569Y010165D02*
X014854Y010165D01*
X014854Y010324D02*
X013683Y010324D01*
X013717Y010482D02*
X014854Y010482D01*
X014854Y010641D02*
X013692Y010641D01*
X013593Y010799D02*
X014854Y010799D01*
X014854Y009689D02*
X013956Y009689D01*
X014114Y009531D02*
X014854Y009531D01*
X014854Y009372D02*
X014164Y009372D01*
X014164Y009214D02*
X014854Y009214D01*
X014854Y009055D02*
X014164Y009055D01*
X014164Y008897D02*
X014854Y008897D01*
X014854Y008738D02*
X014164Y008738D01*
X014164Y008580D02*
X014854Y008580D01*
X014854Y008421D02*
X014164Y008421D01*
X014164Y008262D02*
X014854Y008262D01*
X014854Y008104D02*
X014164Y008104D01*
X014164Y007945D02*
X014854Y007945D01*
X014854Y007787D02*
X014164Y007787D01*
X014164Y007628D02*
X014854Y007628D01*
X014854Y007470D02*
X014164Y007470D01*
X014164Y007311D02*
X014854Y007311D01*
X014854Y007153D02*
X014164Y007153D01*
X014164Y006994D02*
X014854Y006994D01*
X014854Y006836D02*
X014164Y006836D01*
X014164Y006677D02*
X014854Y006677D01*
X014854Y006519D02*
X014164Y006519D01*
X014164Y006360D02*
X014854Y006360D01*
X014854Y006201D02*
X014164Y006201D01*
X014100Y006043D02*
X014854Y006043D01*
X014854Y005884D02*
X013942Y005884D01*
X013657Y005726D02*
X014854Y005726D01*
X014854Y005567D02*
X013717Y005567D01*
X013717Y005409D02*
X014854Y005409D01*
X014854Y005250D02*
X013652Y005250D01*
X013452Y005092D02*
X014854Y005092D01*
X014854Y004933D02*
X010568Y004933D01*
X010540Y005092D02*
X011319Y005092D01*
X011203Y005250D02*
X010627Y005250D01*
X010634Y005409D02*
X011174Y005409D01*
X011790Y005092D02*
X012412Y005092D01*
X012223Y005250D02*
X011906Y005250D01*
X011934Y005409D02*
X012174Y005409D01*
X012697Y005092D02*
X013108Y005092D01*
X013193Y004931D02*
X013032Y004865D01*
X012909Y004742D01*
X012842Y004581D01*
X012842Y004407D01*
X012909Y004246D01*
X013032Y004123D01*
X013193Y004056D01*
X013367Y004056D01*
X013527Y004123D01*
X013651Y004246D01*
X013717Y004407D01*
X013717Y004581D01*
X013651Y004742D01*
X013527Y004865D01*
X013367Y004931D01*
X013193Y004931D01*
X012942Y004775D02*
X010732Y004775D01*
X010896Y004616D02*
X012857Y004616D01*
X012842Y004457D02*
X011060Y004457D01*
X011224Y004299D02*
X012887Y004299D01*
X013014Y004140D02*
X011388Y004140D01*
X011552Y003982D02*
X014854Y003982D01*
X014854Y004140D02*
X013545Y004140D01*
X013672Y004299D02*
X014854Y004299D01*
X014854Y004457D02*
X013717Y004457D01*
X013703Y004616D02*
X014854Y004616D01*
X014854Y004775D02*
X013618Y004775D01*
X012907Y005250D02*
X012886Y005250D01*
X012990Y003823D02*
X011716Y003823D01*
X011113Y003348D02*
X004905Y003348D01*
X004747Y003189D02*
X011268Y003189D01*
X011423Y003031D02*
X004588Y003031D01*
X004430Y002872D02*
X012239Y002872D01*
X012870Y002872D02*
X013050Y002872D01*
X013032Y002865D02*
X012909Y002742D01*
X012842Y002581D01*
X012842Y002407D01*
X012909Y002246D01*
X013032Y002123D01*
X013193Y002056D01*
X013367Y002056D01*
X013527Y002123D01*
X013651Y002246D01*
X013717Y002407D01*
X013717Y002581D01*
X013651Y002742D01*
X013527Y002865D01*
X013367Y002931D01*
X013193Y002931D01*
X013032Y002865D01*
X012934Y003031D02*
X014854Y003031D01*
X014854Y003189D02*
X013594Y003189D01*
X013693Y003348D02*
X014854Y003348D01*
X014854Y003506D02*
X013717Y003506D01*
X013682Y003665D02*
X014854Y003665D01*
X014854Y003823D02*
X013569Y003823D01*
X012966Y003189D02*
X012926Y003189D01*
X012897Y002713D02*
X004237Y002713D01*
X004292Y002555D02*
X005119Y002555D01*
X004960Y002396D02*
X004288Y002396D01*
X004217Y002238D02*
X004801Y002238D01*
X005078Y001921D02*
X005629Y001921D01*
X005624Y001762D02*
X004205Y001762D01*
X004283Y001604D02*
X005624Y001604D01*
X005624Y001445D02*
X004292Y001445D01*
X004242Y001287D02*
X005624Y001287D01*
X005624Y001128D02*
X004107Y001128D01*
X003602Y001128D02*
X002354Y001128D01*
X002354Y001287D02*
X003467Y001287D01*
X003417Y001445D02*
X002354Y001445D01*
X002354Y001604D02*
X003426Y001604D01*
X003504Y001762D02*
X002354Y001762D01*
X002354Y001921D02*
X003131Y001921D01*
X002972Y002079D02*
X002354Y002079D01*
X002354Y002238D02*
X002814Y002238D01*
X002744Y002396D02*
X002354Y002396D01*
X002354Y002555D02*
X002744Y002555D01*
X002744Y002713D02*
X002354Y002713D01*
X002354Y002872D02*
X002744Y002872D01*
X002744Y003031D02*
X002354Y003031D01*
X002354Y003189D02*
X002744Y003189D01*
X002744Y003348D02*
X002354Y003348D01*
X002354Y003506D02*
X002744Y003506D01*
X002744Y003665D02*
X002354Y003665D01*
X002354Y003823D02*
X002744Y003823D01*
X002744Y003982D02*
X002354Y003982D01*
X002354Y004140D02*
X002744Y004140D01*
X002744Y004299D02*
X002354Y004299D01*
X002354Y004457D02*
X002744Y004457D01*
X002744Y004616D02*
X002354Y004616D01*
X002354Y004775D02*
X002744Y004775D01*
X002744Y004933D02*
X002354Y004933D01*
X002354Y005092D02*
X002744Y005092D01*
X002744Y005250D02*
X002354Y005250D01*
X002354Y005409D02*
X002744Y005409D01*
X002744Y005567D02*
X002354Y005567D01*
X002354Y005726D02*
X002744Y005726D01*
X002744Y005884D02*
X002354Y005884D01*
X002354Y006043D02*
X002744Y006043D01*
X002744Y006201D02*
X002354Y006201D01*
X002354Y006360D02*
X002744Y006360D01*
X002744Y006519D02*
X002354Y006519D01*
X002354Y006677D02*
X002791Y006677D01*
X002949Y006836D02*
X002354Y006836D01*
X002354Y006994D02*
X003108Y006994D01*
X003441Y006734D02*
X003164Y006457D01*
X003164Y003341D01*
X003189Y003366D01*
X003329Y003424D01*
X003417Y003424D01*
X003417Y003581D01*
X003484Y003742D01*
X003607Y003865D01*
X003767Y003931D01*
X003941Y003931D01*
X004102Y003865D01*
X004225Y003742D01*
X004241Y003704D01*
X004368Y003704D01*
X005567Y004904D01*
X005741Y004904D01*
X007567Y004904D01*
X007977Y005313D01*
X007974Y005318D01*
X007974Y005469D01*
X008032Y005609D01*
X008139Y005716D01*
X008182Y005734D01*
X008117Y005734D01*
X007567Y006284D01*
X007458Y006284D01*
X007484Y006219D01*
X007484Y006068D01*
X007427Y005929D01*
X007320Y005822D01*
X007180Y005764D01*
X007029Y005764D01*
X007024Y005766D01*
X006664Y005407D01*
X006541Y005284D01*
X004241Y005284D01*
X004225Y005246D01*
X004102Y005123D01*
X003941Y005056D01*
X003767Y005056D01*
X003607Y005123D01*
X003484Y005246D01*
X003417Y005407D01*
X003417Y005581D01*
X003484Y005742D01*
X003607Y005865D01*
X003767Y005931D01*
X003941Y005931D01*
X004102Y005865D01*
X004225Y005742D01*
X004241Y005704D01*
X006367Y005704D01*
X006727Y006063D01*
X006724Y006068D01*
X006724Y006219D01*
X006751Y006284D01*
X004241Y006284D01*
X004225Y006246D01*
X004102Y006123D01*
X003941Y006056D01*
X003767Y006056D01*
X003607Y006123D01*
X003484Y006246D01*
X003417Y006407D01*
X003417Y006581D01*
X003480Y006734D01*
X003441Y006734D01*
X003457Y006677D02*
X003385Y006677D01*
X003417Y006519D02*
X003226Y006519D01*
X003164Y006360D02*
X003436Y006360D01*
X003528Y006201D02*
X003164Y006201D01*
X003164Y006043D02*
X006707Y006043D01*
X006724Y006201D02*
X004181Y006201D01*
X004055Y005884D02*
X006548Y005884D01*
X006389Y005726D02*
X004232Y005726D01*
X004227Y005250D02*
X007914Y005250D01*
X007974Y005409D02*
X006666Y005409D01*
X006825Y005567D02*
X008015Y005567D01*
X008163Y005726D02*
X006983Y005726D01*
X007382Y005884D02*
X007967Y005884D01*
X007808Y006043D02*
X007474Y006043D01*
X007484Y006201D02*
X007650Y006201D01*
X007009Y006836D02*
X005493Y006836D01*
X005803Y006994D02*
X006974Y006994D01*
X007009Y007153D02*
X005987Y007153D01*
X006034Y007311D02*
X006340Y007311D01*
X006182Y007470D02*
X006014Y007470D01*
X006023Y007628D02*
X005907Y007628D01*
X005864Y007787D02*
X004180Y007787D01*
X004272Y007628D02*
X005402Y007628D01*
X005295Y007470D02*
X004292Y007470D01*
X004252Y007311D02*
X005274Y007311D01*
X005503Y007945D02*
X002354Y007945D01*
X002354Y007787D02*
X003529Y007787D01*
X003437Y007628D02*
X002354Y007628D01*
X002354Y007470D02*
X003417Y007470D01*
X003457Y007311D02*
X002354Y007311D01*
X002354Y007153D02*
X003266Y007153D01*
X003653Y008104D02*
X002354Y008104D01*
X002354Y008262D02*
X003477Y008262D01*
X003417Y008421D02*
X002354Y008421D01*
X002354Y008580D02*
X003417Y008580D01*
X003482Y008738D02*
X002354Y008738D01*
X002354Y008897D02*
X003455Y008897D01*
X003296Y009055D02*
X002354Y009055D01*
X002354Y009214D02*
X002897Y009214D01*
X002794Y009372D02*
X002354Y009372D01*
X002354Y009531D02*
X002774Y009531D01*
X002824Y009689D02*
X002354Y009689D01*
X002354Y009848D02*
X003016Y009848D01*
X003293Y009848D02*
X003590Y009848D01*
X003767Y010056D02*
X003941Y010056D01*
X004102Y010123D01*
X004225Y010246D01*
X004292Y010407D01*
X004292Y010581D01*
X004225Y010742D01*
X004102Y010865D01*
X003941Y010931D01*
X003767Y010931D01*
X003607Y010865D01*
X003484Y010742D01*
X003417Y010581D01*
X003417Y010407D01*
X003484Y010246D01*
X003607Y010123D01*
X003767Y010056D01*
X003565Y010165D02*
X002354Y010165D01*
X002354Y010006D02*
X008890Y010006D01*
X008874Y009848D02*
X004119Y009848D01*
X004247Y009689D02*
X008753Y009689D01*
X008594Y009531D02*
X004292Y009531D01*
X004278Y009372D02*
X008436Y009372D01*
X008988Y010165D02*
X004144Y010165D01*
X004257Y010324D02*
X009698Y010324D01*
X009588Y010165D02*
X009521Y010165D01*
X009536Y010482D02*
X004292Y010482D01*
X004267Y010641D02*
X009375Y010641D01*
X009213Y010799D02*
X004168Y010799D01*
X004086Y011116D02*
X008890Y011116D01*
X009051Y010958D02*
X002354Y010958D01*
X002354Y011116D02*
X003623Y011116D01*
X003472Y011275D02*
X002354Y011275D01*
X002354Y011433D02*
X003417Y011433D01*
X003422Y011592D02*
X002354Y011592D01*
X002354Y011750D02*
X003492Y011750D01*
X003714Y011909D02*
X002354Y011909D01*
X002354Y012068D02*
X003741Y012068D01*
X003504Y012226D02*
X002354Y012226D01*
X002354Y012385D02*
X003426Y012385D01*
X003417Y012543D02*
X002354Y012543D01*
X002354Y012702D02*
X003467Y012702D01*
X003602Y012860D02*
X002354Y012860D01*
X004237Y011275D02*
X008728Y011275D01*
X008673Y011909D02*
X008536Y011909D01*
X007604Y012702D02*
X007604Y012702D01*
X007604Y012860D02*
X007604Y012860D01*
X007561Y013019D02*
X007648Y013019D01*
X003541Y010799D02*
X002354Y010799D01*
X002354Y010641D02*
X003442Y010641D01*
X003417Y010482D02*
X002354Y010482D01*
X002354Y010324D02*
X003451Y010324D01*
X004292Y008421D02*
X005296Y008421D01*
X005274Y008262D02*
X004232Y008262D01*
X004056Y008104D02*
X005322Y008104D01*
X003654Y005884D02*
X003164Y005884D01*
X003164Y005726D02*
X003477Y005726D01*
X003417Y005567D02*
X003164Y005567D01*
X003164Y005409D02*
X003417Y005409D01*
X003482Y005250D02*
X003164Y005250D01*
X003164Y005092D02*
X003682Y005092D01*
X003767Y004931D02*
X003607Y004865D01*
X003484Y004742D01*
X003417Y004581D01*
X003417Y004407D01*
X003484Y004246D01*
X003607Y004123D01*
X003767Y004056D01*
X003941Y004056D01*
X004102Y004123D01*
X004225Y004246D01*
X004292Y004407D01*
X004292Y004581D01*
X004225Y004742D01*
X004102Y004865D01*
X003941Y004931D01*
X003767Y004931D01*
X003516Y004775D02*
X003164Y004775D01*
X003164Y004933D02*
X007597Y004933D01*
X007755Y005092D02*
X004027Y005092D01*
X004192Y004775D02*
X005438Y004775D01*
X005280Y004616D02*
X004277Y004616D01*
X004292Y004457D02*
X005121Y004457D01*
X004963Y004299D02*
X004247Y004299D01*
X004120Y004140D02*
X004804Y004140D01*
X004646Y003982D02*
X003164Y003982D01*
X003164Y004140D02*
X003589Y004140D01*
X003462Y004299D02*
X003164Y004299D01*
X003164Y004457D02*
X003417Y004457D01*
X003432Y004616D02*
X003164Y004616D01*
X003164Y003823D02*
X003565Y003823D01*
X003452Y003665D02*
X003164Y003665D01*
X003164Y003506D02*
X003417Y003506D01*
X003171Y003348D02*
X003164Y003348D01*
X004144Y003823D02*
X004487Y003823D01*
X005064Y003506D02*
X010958Y003506D01*
X010803Y003665D02*
X005222Y003665D01*
X005381Y003823D02*
X010648Y003823D01*
X010493Y003982D02*
X005539Y003982D01*
X005698Y004140D02*
X010338Y004140D01*
X010183Y004299D02*
X008156Y004299D01*
X008315Y004457D02*
X010027Y004457D01*
X009872Y004616D02*
X008474Y004616D01*
X008632Y004775D02*
X009717Y004775D01*
X009562Y004933D02*
X008791Y004933D01*
X008949Y005092D02*
X009169Y005092D01*
X011595Y002555D02*
X012842Y002555D01*
X012846Y002396D02*
X011761Y002396D01*
X011928Y002238D02*
X012917Y002238D01*
X013137Y002079D02*
X012094Y002079D01*
X012261Y001921D02*
X013167Y001921D01*
X013392Y001921D02*
X014854Y001921D01*
X014854Y002079D02*
X013422Y002079D01*
X013642Y002238D02*
X014854Y002238D01*
X014854Y002396D02*
X013713Y002396D01*
X013717Y002555D02*
X014854Y002555D01*
X014854Y002713D02*
X013662Y002713D01*
X013510Y002872D02*
X014854Y002872D01*
X014854Y001762D02*
X013630Y001762D01*
X013708Y001604D02*
X014854Y001604D01*
X014854Y001445D02*
X013717Y001445D01*
X013667Y001287D02*
X014854Y001287D01*
X014854Y001128D02*
X013533Y001128D01*
X013027Y001128D02*
X011584Y001128D01*
X011584Y001287D02*
X012315Y001287D01*
X012151Y001445D02*
X011584Y001445D01*
X011584Y001604D02*
X011985Y001604D01*
X011818Y001762D02*
X011584Y001762D01*
X011580Y001921D02*
X011652Y001921D01*
X012427Y001762D02*
X012929Y001762D01*
X011539Y000969D02*
X014854Y000969D01*
X005874Y002238D02*
X005395Y002238D01*
X005237Y002079D02*
X005695Y002079D01*
X005670Y000969D02*
X002354Y000969D01*
M02*
