G75*
G70*
%OFA0B0*%
%FSLAX24Y24*%
%IPPOS*%
%LPD*%
%AMOC8*
5,1,8,0,0,1.08239X$1,22.5*
%
%ADD10C,0.1340*%
%ADD11C,0.0635*%
%ADD12R,0.0671X0.0277*%
%ADD13R,0.0277X0.0671*%
%ADD14R,0.0513X0.0474*%
%ADD15R,0.0474X0.0513*%
%ADD16C,0.0720*%
D10*
X001354Y002244D03*
X001354Y002494D03*
X001354Y002744D03*
X001354Y003244D03*
X001354Y003494D03*
X001354Y003744D03*
X001354Y003994D03*
X001354Y004244D03*
X001354Y004494D03*
X001354Y004744D03*
X001354Y004994D03*
X001354Y005244D03*
X001354Y005494D03*
X001354Y005744D03*
X001354Y005994D03*
X001354Y006244D03*
X001354Y006494D03*
X001354Y006744D03*
X001354Y006994D03*
X001354Y007244D03*
X001354Y007494D03*
X001354Y007744D03*
X001354Y007994D03*
X001354Y008244D03*
X001354Y008494D03*
X001354Y008744D03*
X001354Y008994D03*
X001354Y009244D03*
X001354Y009494D03*
X001354Y009744D03*
X001354Y009994D03*
X001354Y010244D03*
X001354Y010494D03*
X001354Y010744D03*
X001354Y010994D03*
X001354Y011244D03*
X001354Y011494D03*
X001354Y011744D03*
G36*
X011216Y009270D02*
X010855Y008909D01*
X010520Y009244D01*
X010881Y009605D01*
X011216Y009270D01*
G37*
G36*
X011689Y009743D02*
X011328Y009382D01*
X010993Y009717D01*
X011354Y010078D01*
X011689Y009743D01*
G37*
X015854Y009744D03*
X015854Y009994D03*
X015854Y010244D03*
X015854Y010494D03*
X015854Y010744D03*
X015854Y010994D03*
X015854Y011244D03*
X015854Y011494D03*
X015854Y011744D03*
X015854Y011994D03*
X015854Y009494D03*
X015854Y009244D03*
X015854Y008994D03*
X015854Y008744D03*
X015854Y008494D03*
X015854Y008244D03*
X015854Y007994D03*
X015854Y007744D03*
X015854Y007494D03*
X015854Y007244D03*
X015854Y006994D03*
X015854Y006744D03*
X015854Y006494D03*
X015854Y006244D03*
X015854Y005994D03*
X015854Y005744D03*
X015854Y005494D03*
X015854Y005244D03*
X015854Y004994D03*
X015854Y004744D03*
X015854Y004494D03*
X015854Y004244D03*
X015854Y003994D03*
X015854Y003744D03*
X015854Y003494D03*
X015854Y003244D03*
X015854Y002994D03*
X015854Y002744D03*
X015854Y002494D03*
G36*
X011354Y003909D02*
X010993Y004270D01*
X011328Y004605D01*
X011689Y004244D01*
X011354Y003909D01*
G37*
G36*
X010881Y004382D02*
X010520Y004743D01*
X010855Y005078D01*
X011216Y004717D01*
X010881Y004382D01*
G37*
G36*
X010881Y004382D02*
X010520Y004743D01*
X010855Y005078D01*
X011216Y004717D01*
X010881Y004382D01*
G37*
G36*
X011354Y003909D02*
X010993Y004270D01*
X011328Y004605D01*
X011689Y004244D01*
X011354Y003909D01*
G37*
D11*
X013280Y003494D03*
X013280Y002494D03*
X013280Y001494D03*
X013280Y004494D03*
X013280Y005494D03*
X013280Y006494D03*
X013280Y007494D03*
X013280Y008494D03*
X013280Y009494D03*
X013280Y010494D03*
X013280Y011494D03*
X013280Y012494D03*
G36*
X011689Y009743D02*
X011328Y009382D01*
X010993Y009717D01*
X011354Y010078D01*
X011689Y009743D01*
G37*
G36*
X011216Y009270D02*
X010855Y008909D01*
X010520Y009244D01*
X010881Y009605D01*
X011216Y009270D01*
G37*
X003854Y009494D03*
X003854Y008494D03*
X003854Y007494D03*
X003854Y006494D03*
X003854Y005494D03*
X003854Y004494D03*
X003854Y003494D03*
X003854Y002494D03*
X003854Y001494D03*
X003854Y010494D03*
X003854Y011494D03*
X003854Y012494D03*
D12*
X006321Y008569D03*
X006321Y008254D03*
X006321Y007939D03*
X006321Y007624D03*
X006321Y007309D03*
X006321Y006994D03*
X006321Y006679D03*
X006321Y006364D03*
X006321Y006049D03*
X006321Y005734D03*
X006321Y005419D03*
X010888Y005419D03*
X010888Y005734D03*
X010888Y006049D03*
X010888Y006364D03*
X010888Y006679D03*
X010888Y006994D03*
X010888Y007309D03*
X010888Y007624D03*
X010888Y007939D03*
X010888Y008254D03*
X010888Y008569D03*
G36*
X011216Y009270D02*
X010855Y008909D01*
X010520Y009244D01*
X010881Y009605D01*
X011216Y009270D01*
G37*
G36*
X011689Y009743D02*
X011328Y009382D01*
X010993Y009717D01*
X011354Y010078D01*
X011689Y009743D01*
G37*
G36*
X010881Y004382D02*
X010520Y004743D01*
X010855Y005078D01*
X011216Y004717D01*
X010881Y004382D01*
G37*
G36*
X011354Y003909D02*
X010993Y004270D01*
X011328Y004605D01*
X011689Y004244D01*
X011354Y003909D01*
G37*
G36*
X011354Y003909D02*
X010993Y004270D01*
X011328Y004605D01*
X011689Y004244D01*
X011354Y003909D01*
G37*
G36*
X010881Y004382D02*
X010520Y004743D01*
X010855Y005078D01*
X011216Y004717D01*
X010881Y004382D01*
G37*
D13*
X010179Y004710D03*
X009864Y004710D03*
X009549Y004710D03*
X009234Y004710D03*
X008919Y004710D03*
X008604Y004710D03*
X008290Y004710D03*
X007975Y004710D03*
X007660Y004710D03*
X007345Y004710D03*
X007030Y004710D03*
X007030Y009277D03*
X007345Y009277D03*
X007660Y009277D03*
X007975Y009277D03*
X008290Y009277D03*
X008604Y009277D03*
X008919Y009277D03*
X009234Y009277D03*
X009549Y009277D03*
X009864Y009277D03*
X010179Y009277D03*
G36*
X011216Y009270D02*
X010855Y008909D01*
X010520Y009244D01*
X010881Y009605D01*
X011216Y009270D01*
G37*
G36*
X011689Y009743D02*
X011328Y009382D01*
X010993Y009717D01*
X011354Y010078D01*
X011689Y009743D01*
G37*
G36*
X011689Y009743D02*
X011328Y009382D01*
X010993Y009717D01*
X011354Y010078D01*
X011689Y009743D01*
G37*
G36*
X011216Y009270D02*
X010855Y008909D01*
X010520Y009244D01*
X010881Y009605D01*
X011216Y009270D01*
G37*
G36*
X010881Y004382D02*
X010520Y004743D01*
X010855Y005078D01*
X011216Y004717D01*
X010881Y004382D01*
G37*
G36*
X011354Y003909D02*
X010993Y004270D01*
X011328Y004605D01*
X011689Y004244D01*
X011354Y003909D01*
G37*
G36*
X011354Y003909D02*
X010993Y004270D01*
X011328Y004605D01*
X011689Y004244D01*
X011354Y003909D01*
G37*
G36*
X010881Y004382D02*
X010520Y004743D01*
X010855Y005078D01*
X011216Y004717D01*
X010881Y004382D01*
G37*
G36*
X011216Y009270D02*
X010855Y008909D01*
X010520Y009244D01*
X010881Y009605D01*
X011216Y009270D01*
G37*
G36*
X011689Y009743D02*
X011328Y009382D01*
X010993Y009717D01*
X011354Y010078D01*
X011689Y009743D01*
G37*
D15*
X008304Y010109D03*
X008304Y010779D03*
D16*
X008104Y012174D02*
X008104Y012814D01*
X009104Y012814D02*
X009104Y012174D01*
X010104Y012174D02*
X010104Y012814D01*
X011104Y012814D02*
X011104Y012174D01*
G36*
X011689Y009743D02*
X011328Y009382D01*
X010993Y009717D01*
X011354Y010078D01*
X011689Y009743D01*
G37*
G36*
X011216Y009270D02*
X010855Y008909D01*
X010520Y009244D01*
X010881Y009605D01*
X011216Y009270D01*
G37*
X007104Y012174D02*
X007104Y012814D01*
X006104Y012814D02*
X006104Y012174D01*
G36*
X010881Y004382D02*
X010520Y004743D01*
X010855Y005078D01*
X011216Y004717D01*
X010881Y004382D01*
G37*
G36*
X011354Y003909D02*
X010993Y004270D01*
X011328Y004605D01*
X011689Y004244D01*
X011354Y003909D01*
G37*
X011104Y001814D02*
X011104Y001174D01*
X010104Y001174D02*
X010104Y001814D01*
X009104Y001814D02*
X009104Y001174D01*
X008104Y001174D02*
X008104Y001814D01*
X007104Y001814D02*
X007104Y001174D01*
X006104Y001174D02*
X006104Y001814D01*
M02*
