%
M48
M72
T01C0.0236
T02C0.0240
T03C0.0315
T04C0.0400
T05C0.1260
%
T01
X5854Y3494
X7554Y5594
X9604Y6944
X10254Y6294
X11854Y3994
X10354Y3394
X6104Y10494
X3104Y10994
X11604Y10994
T02
X9854Y9894
X9254Y9894
X8604Y8244
X7704Y7844
X7354Y6994
X7104Y6144
X8304Y6494
X8854Y7344
X9604Y6344
X9454Y5344
X10254Y5344
X11554Y5394
X12154Y5844
X12554Y5444
X12754Y6244
X13604Y6994
X12554Y7894
X11904Y7194
X11554Y7594
X11404Y8944
X8354Y5394
X5654Y7344
X5654Y8294
X3154Y9494
X3404Y3044
X12554Y3094
T03
X13280Y3494
X13280Y2494
X13280Y1494
X13280Y4494
X13280Y5494
X13280Y6494
X13280Y7494
X13280Y8494
X13280Y9494
X13280Y10494
X13280Y11494
X13280Y12494
X3854Y12494
X3854Y11494
X3854Y10494
X3854Y9494
X3854Y8494
X3854Y7494
X3854Y6494
X3854Y5494
X3854Y4494
X3854Y3494
X3854Y2494
X3854Y1494
T04
X6104Y1494
X7104Y1494
X8104Y1494
X9104Y1494
X10104Y1494
X11104Y1494
X11104Y12494
X10104Y12494
X9104Y12494
X8104Y12494
X7104Y12494
X6104Y12494
T05
X1354Y2244
X1354Y2494
X1354Y2744
X1354Y3244
X1354Y3494
X1354Y3744
X1354Y3994
X1354Y4244
X1354Y4494
X1354Y4744
X1354Y4994
X1354Y5244
X1354Y5494
X1354Y5744
X1354Y5994
X1354Y6244
X1354Y6494
X1354Y6744
X1354Y6994
X1354Y7244
X1354Y7494
X1354Y7744
X1354Y7994
X1354Y8244
X1354Y8494
X1354Y8744
X1354Y8994
X1354Y9244
X1354Y9494
X1354Y9744
X1354Y9994
X1354Y10244
X1354Y10494
X1354Y10744
X1354Y10994
X1354Y11244
X1354Y11494
X1354Y11744
X15854Y11744
X15854Y11494
X15854Y11244
X15854Y10994
X15854Y10744
X15854Y10494
X15854Y10244
X15854Y9994
X15854Y9744
X15854Y9494
X15854Y9244
X15854Y8994
X15854Y8744
X15854Y8494
X15854Y8244
X15854Y7994
X15854Y7744
X15854Y7494
X15854Y7244
X15854Y6994
X15854Y6744
X15854Y6494
X15854Y6244
X15854Y5994
X15854Y5744
X15854Y5494
X15854Y5244
X15854Y4994
X15854Y4744
X15854Y4494
X15854Y4244
X15854Y3994
X15854Y3744
X15854Y3494
X15854Y3244
X15854Y2994
X15854Y2744
X15854Y2494
X15854Y11994
M30
