G75*
G70*
%OFA0B0*%
%FSLAX24Y24*%
%IPPOS*%
%LPD*%
%AMOC8*
5,1,8,0,0,1.08239X$1,22.5*
%
%ADD10C,0.1340*%
%ADD11C,0.0635*%
%ADD12C,0.0720*%
D10*
X006459Y014294D03*
D11*
X001859Y001494D03*
X001859Y002494D03*
X001859Y003494D03*
X001859Y004494D03*
X001859Y005494D03*
X001859Y006494D03*
X001859Y007494D03*
X001859Y008494D03*
X001859Y009494D03*
X001859Y010494D03*
X001859Y011494D03*
X001859Y012494D03*
X011284Y012494D03*
X011284Y011494D03*
X011284Y010494D03*
X011284Y009494D03*
X011284Y008494D03*
X011284Y007494D03*
X011284Y006494D03*
X011284Y005494D03*
X011284Y004494D03*
X011284Y003494D03*
X011284Y002494D03*
X011284Y001494D03*
D12*
X009109Y001814D02*
X009109Y001174D01*
X008109Y001174D02*
X008109Y001814D01*
X007109Y001814D02*
X007109Y001174D01*
X006109Y001174D02*
X006109Y001814D01*
X005109Y001814D02*
X005109Y001174D01*
X004109Y001174D02*
X004109Y001814D01*
X004109Y012174D02*
X004109Y012814D01*
X005109Y012814D02*
X005109Y012174D01*
X006109Y012174D02*
X006109Y012814D01*
X007109Y012814D02*
X007109Y012174D01*
X008109Y012174D02*
X008109Y012814D01*
X009109Y012814D02*
X009109Y012174D01*
M02*
