%
M48
M72
T01C0.0236
T02C0.0240
T03C0.0315
T04C0.0400
T05C0.1260
%
T01
X3859Y3494
X5559Y5594
X7609Y6944
X8259Y6294
X9859Y3994
X8359Y3394
X4109Y10494
X1109Y10994
X9609Y10994
T02
X7859Y9894
X7259Y9894
X6609Y8244
X6859Y7344
X6309Y6494
X5359Y6994
X5709Y7844
X5109Y6144
X6359Y5394
X7459Y5344
X8259Y5344
X7609Y6344
X9559Y5394
X10159Y5844
X10559Y5444
X10759Y6244
X11609Y6994
X10559Y7894
X9909Y7194
X9559Y7594
X9409Y8944
X10559Y3094
X3659Y7344
X3659Y8294
X1159Y9494
X1409Y3044
T03
X1859Y1494
X1859Y2494
X1859Y3494
X1859Y4494
X1859Y5494
X1859Y6494
X1859Y7494
X1859Y8494
X1859Y9494
X1859Y10494
X1859Y11494
X1859Y12494
X11284Y12494
X11284Y11494
X11284Y10494
X11284Y9494
X11284Y8494
X11284Y7494
X11284Y6494
X11284Y5494
X11284Y4494
X11284Y3494
X11284Y2494
X11284Y1494
T04
X9109Y1494
X8109Y1494
X7109Y1494
X6109Y1494
X5109Y1494
X4109Y1494
X4109Y12494
X5109Y12494
X6109Y12494
X7109Y12494
X8109Y12494
X9109Y12494
T05
X6459Y14294
M30
