%
M48
M72
T01C0.0236
T02C0.0240
T03C0.0354
T04C0.0400
%
T01
X3158Y3150
X3658Y4950
X5908Y6500
X6908Y7250
X7658Y7250
X8408Y7500
X8158Y5750
X7408Y5750
X7158Y4750
X7408Y3800
X8608Y4150
X7908Y2350
X10358Y2750
X10658Y5150
X10658Y6750
X11408Y9810
X12158Y10050
X8408Y10000
X7908Y10500
X6908Y9250
X5508Y9100
X5508Y10300
T02
X9058Y10000
T03
X2658Y10466
X2658Y8734
X1608Y6348
X1608Y3553
T04
X4408Y1500
X5408Y1500
X6408Y1500
X7408Y1500
X8408Y1500
X9408Y1500
X9408Y12500
X8408Y12500
X7408Y12500
X6408Y12500
X5408Y12500
X4408Y12500
M30
