G75*
G70*
%OFA0B0*%
%FSLAX24Y24*%
%IPPOS*%
%LPD*%
%AMOC8*
5,1,8,0,0,1.08239X$1,22.5*
%
%ADD10R,0.0137X0.0550*%
%ADD11R,0.0984X0.0197*%
%ADD12R,0.0984X0.0787*%
%ADD13R,0.0500X0.0220*%
%ADD14R,0.0220X0.0500*%
%ADD15R,0.0217X0.0472*%
%ADD16R,0.0394X0.0433*%
%ADD17R,0.0984X0.0472*%
%ADD18R,0.0433X0.0394*%
%ADD19R,0.0236X0.0866*%
%ADD20R,0.0394X0.0394*%
%ADD21R,0.1181X0.1181*%
D10*
X006244Y008311D03*
X006500Y008311D03*
X006756Y008311D03*
X007012Y008311D03*
X007268Y008311D03*
X007524Y008311D03*
X007780Y008311D03*
X008036Y008311D03*
X008292Y008311D03*
X008548Y008311D03*
X008803Y008311D03*
X009059Y008311D03*
X009315Y008311D03*
X009571Y008311D03*
X009571Y011190D03*
X009315Y011190D03*
X009059Y011190D03*
X008803Y011190D03*
X008548Y011190D03*
X008292Y011190D03*
X008036Y011190D03*
X007780Y011190D03*
X007524Y011190D03*
X007268Y011190D03*
X007012Y011190D03*
X006756Y011190D03*
X006500Y011190D03*
X006244Y011190D03*
D11*
X003642Y010230D03*
X003642Y009915D03*
X003642Y009600D03*
X003642Y009285D03*
X003642Y008970D03*
D12*
X003642Y007829D03*
X001477Y007829D03*
X001477Y011372D03*
X003642Y011372D03*
D13*
X006468Y005853D03*
X006468Y005538D03*
X006468Y005223D03*
X006468Y004908D03*
X006468Y004593D03*
X006468Y004278D03*
X006468Y003963D03*
X006468Y003648D03*
X009848Y003648D03*
X009848Y003963D03*
X009848Y004278D03*
X009848Y004593D03*
X009848Y004908D03*
X009848Y005223D03*
X009848Y005538D03*
X009848Y005853D03*
D14*
X009260Y006440D03*
X008945Y006440D03*
X008630Y006440D03*
X008315Y006440D03*
X008000Y006440D03*
X007685Y006440D03*
X007370Y006440D03*
X007055Y006440D03*
X007055Y003060D03*
X007370Y003060D03*
X007685Y003060D03*
X008000Y003060D03*
X008315Y003060D03*
X008630Y003060D03*
X008945Y003060D03*
X009260Y003060D03*
D15*
X004932Y005488D03*
X004184Y005488D03*
X004184Y006512D03*
X004558Y006512D03*
X004932Y006512D03*
D16*
X005758Y004185D03*
X005758Y003516D03*
X010658Y003866D03*
X010658Y004535D03*
X011408Y007166D03*
X011408Y007835D03*
X012158Y007835D03*
X012158Y007166D03*
X012908Y007166D03*
X012908Y007835D03*
X010408Y009416D03*
X010408Y010085D03*
X004908Y010316D03*
X004908Y010985D03*
D17*
X002690Y005934D03*
X002690Y004950D03*
X002690Y003966D03*
X004658Y004200D03*
X004658Y002901D03*
D18*
X005573Y007200D03*
X006242Y007200D03*
D19*
X011408Y008939D03*
X011908Y008939D03*
X012408Y008939D03*
X012908Y008939D03*
X012908Y011561D03*
X012408Y011561D03*
X011908Y011561D03*
X011408Y011561D03*
D20*
X012343Y006327D03*
X012973Y006327D03*
X012973Y004673D03*
X012343Y004673D03*
X012343Y003677D03*
X012973Y003677D03*
X012973Y002023D03*
X012343Y002023D03*
D21*
X001608Y001750D03*
X003158Y001750D03*
M02*
